FiraSlav-Regular.ufo
<glyph name="exclam" format="2">
  <advance width="600"/>
  <unicode hex="0021"/>
  <outline>
    <contour>
      <point x="345" y="689" type="line"/>
      <point x="336" y="227" type="line"/>
      <point x="261" y="227" type="line"/>
      <point x="251" y="689" type="line"/>
    </contour>
    <contour>
      <point x="299" y="123" type="curve" smooth="yes"/>
      <point x="338" y="123"/>
      <point x="366" y="93"/>
      <point x="366" y="56" type="curve" smooth="yes"/>
      <point x="366" y="18"/>
      <point x="338" y="-11"/>
      <point x="299" y="-11" type="curve" smooth="yes"/>
      <point x="261" y="-11"/>
      <point x="232" y="18"/>
      <point x="232" y="56" type="curve" smooth="yes"/>
      <point x="232" y="93"/>
      <point x="261" y="123"/>
    </contour>
  </outline>
</glyph>
<glyph name="quotedbl" format="2">
  <advance width="600"/>
  <unicode hex="0022"/>
  <outline>
    <contour>
      <point x="179" y="479" type="line"/>
      <point x="164" y="739" type="line"/>
      <point x="269" y="739" type="line"/>
      <point x="253" y="479" type="line"/>
    </contour>
    <contour>
      <point x="347" y="479" type="line"/>
      <point x="331" y="739" type="line"/>
      <point x="436" y="739" type="line"/>
      <point x="421" y="479" type="line"/>
    </contour>
  </outline>
</glyph>
<glyph name="numbersign" format="2">
  <advance width="600"/>
  <unicode hex="0023"/>
  <outline>
    <contour>
      <point x="458" y="456" type="line"/>
      <point x="429" y="234" type="line"/>
      <point x="510" y="234" type="line"/>
      <point x="510" y="170" type="line"/>
      <point x="419" y="170" type="line"/>
      <point x="398" y="0" type="line"/>
      <point x="327" y="0" type="line"/>
      <point x="349" y="170" type="line"/>
      <point x="204" y="170" type="line"/>
      <point x="181" y="0" type="line"/>
      <point x="110" y="0" type="line"/>
      <point x="132" y="170" type="line"/>
      <point x="53" y="170" type="line"/>
      <point x="53" y="234" type="line"/>
      <point x="140" y="234" type="line"/>
      <point x="171" y="456" type="line"/>
      <point x="90" y="456" type="line"/>
      <point x="90" y="522" type="line"/>
      <point x="179" y="522" type="line"/>
      <point x="202" y="689" type="line"/>
      <point x="273" y="689" type="line"/>
      <point x="250" y="522" type="line"/>
      <point x="396" y="522" type="line"/>
      <point x="419" y="689" type="line"/>
      <point x="490" y="689" type="line"/>
      <point x="467" y="522" type="line"/>
      <point x="547" y="522" type="line"/>
      <point x="547" y="456" type="line"/>
    </contour>
    <contour>
      <point x="212" y="234" type="line"/>
      <point x="357" y="234" type="line"/>
      <point x="388" y="456" type="line"/>
      <point x="241" y="456" type="line"/>
    </contour>
  </outline>
</glyph>
<glyph name="dollar" format="2">
  <advance width="600"/>
  <unicode hex="0024"/>
  <outline>
    <contour>
      <point x="346" y="848" type="line"/>
      <point x="346" y="698" type="line"/>
      <point x="425" y="690"/>
      <point x="488" y="655"/>
      <point x="529" y="618" type="curve"/>
      <point x="478" y="565" type="line"/>
      <point x="440" y="600"/>
      <point x="396" y="622"/>
      <point x="346" y="628" type="curve"/>
      <point x="346" y="401" type="line"/>
      <point x="446" y="368"/>
      <point x="538" y="312"/>
      <point x="538" y="189" type="curve" smooth="yes"/>
      <point x="538" y="94"/>
      <point x="473" y="10"/>
      <point x="346" y="-7" type="curve"/>
      <point x="346" y="-153" type="line"/>
      <point x="278" y="-153" type="line"/>
      <point x="278" y="-10" type="line"/>
      <point x="184" y="-5"/>
      <point x="113" y="40"/>
      <point x="69" y="83" type="curve"/>
      <point x="119" y="139" type="line"/>
      <point x="161" y="97"/>
      <point x="212" y="66"/>
      <point x="278" y="61" type="curve"/>
      <point x="278" y="337" type="line"/>
      <point x="161" y="376"/>
      <point x="95" y="435"/>
      <point x="95" y="528" type="curve" smooth="yes"/>
      <point x="95" y="608"/>
      <point x="155" y="686"/>
      <point x="278" y="698" type="curve"/>
      <point x="278" y="848" type="line"/>
    </contour>
    <contour>
      <point x="278" y="626" type="line"/>
      <point x="224" y="617"/>
      <point x="184" y="586"/>
      <point x="184" y="529" type="curve" smooth="yes"/>
      <point x="184" y="482"/>
      <point x="205" y="452"/>
      <point x="278" y="423" type="curve"/>
    </contour>
    <contour>
      <point x="346" y="314" type="curve"/>
      <point x="346" y="65" type="line"/>
      <point x="412" y="78"/>
      <point x="447" y="119"/>
      <point x="447" y="188" type="curve" smooth="yes"/>
      <point x="447" y="244"/>
      <point x="421" y="282"/>
    </contour>
  </outline>
</glyph>
<glyph name="percent" format="2">
  <advance width="600"/>
  <unicode hex="0025"/>
  <outline>
    <contour>
      <point x="505" y="707" type="line"/>
      <point x="558" y="672" type="line"/>
      <point x="85" y="-20" type="line"/>
      <point x="32" y="15" type="line"/>
    </contour>
    <contour>
      <point x="166" y="700" type="curve" smooth="yes"/>
      <point x="260" y="700"/>
      <point x="313" y="626"/>
      <point x="313" y="539" type="curve" smooth="yes"/>
      <point x="313" y="455"/>
      <point x="260" y="378"/>
      <point x="166" y="378" type="curve" smooth="yes"/>
      <point x="73" y="378"/>
      <point x="19" y="455"/>
      <point x="19" y="539" type="curve" smooth="yes"/>
      <point x="19" y="626"/>
      <point x="73" y="700"/>
    </contour>
    <contour>
      <point x="166" y="640" type="curve" smooth="yes"/>
      <point x="126" y="640"/>
      <point x="96" y="607"/>
      <point x="96" y="539" type="curve" smooth="yes"/>
      <point x="96" y="475"/>
      <point x="125" y="437"/>
      <point x="166" y="437" type="curve" smooth="yes"/>
      <point x="206" y="437"/>
      <point x="235" y="468"/>
      <point x="235" y="539" type="curve" smooth="yes"/>
      <point x="235" y="611"/>
      <point x="206" y="640"/>
    </contour>
    <contour>
      <point x="436" y="316" type="curve" smooth="yes"/>
      <point x="530" y="316"/>
      <point x="583" y="242"/>
      <point x="583" y="156" type="curve" smooth="yes"/>
      <point x="583" y="71"/>
      <point x="530" y="-6"/>
      <point x="436" y="-6" type="curve" smooth="yes"/>
      <point x="343" y="-6"/>
      <point x="289" y="71"/>
      <point x="289" y="156" type="curve" smooth="yes"/>
      <point x="289" y="242"/>
      <point x="343" y="316"/>
    </contour>
    <contour>
      <point x="436" y="256" type="curve" smooth="yes"/>
      <point x="396" y="256"/>
      <point x="366" y="226"/>
      <point x="366" y="156" type="curve" smooth="yes"/>
      <point x="366" y="91"/>
      <point x="395" y="53"/>
      <point x="436" y="53" type="curve" smooth="yes"/>
      <point x="476" y="53"/>
      <point x="505" y="84"/>
      <point x="505" y="156" type="curve" smooth="yes"/>
      <point x="505" y="228"/>
      <point x="476" y="256"/>
    </contour>
  </outline>
</glyph>
<glyph name="ampersand" format="2">
  <advance width="600"/>
  <unicode hex="0026"/>
  <outline>
    <contour>
      <point x="279" y="699" type="curve" smooth="yes"/>
      <point x="339" y="699"/>
      <point x="391" y="685"/>
      <point x="446" y="624" type="curve"/>
      <point x="396" y="578" type="line"/>
      <point x="361" y="617"/>
      <point x="328" y="636"/>
      <point x="278" y="636" type="curve" smooth="yes"/>
      <point x="207" y="636"/>
      <point x="172" y="593"/>
      <point x="172" y="534" type="curve" smooth="yes"/>
      <point x="172" y="473"/>
      <point x="226" y="420"/>
      <point x="296" y="420" type="curve" smooth="yes"/>
      <point x="574" y="420" type="line"/>
      <point x="574" y="353" type="line"/>
      <point x="484" y="353" type="line"/>
      <point x="484" y="81" type="line"/>
      <point x="454" y="43"/>
      <point x="392" y="-11"/>
      <point x="277" y="-11" type="curve" smooth="yes"/>
      <point x="121" y="-11"/>
      <point x="54" y="92"/>
      <point x="54" y="195" type="curve" smooth="yes"/>
      <point x="54" y="298"/>
      <point x="110" y="366"/>
      <point x="210" y="387" type="curve"/>
      <point x="210" y="390" type="line"/>
      <point x="120" y="411"/>
      <point x="90" y="472"/>
      <point x="90" y="534" type="curve" smooth="yes"/>
      <point x="90" y="622"/>
      <point x="162" y="699"/>
    </contour>
    <contour>
      <point x="407" y="353" type="line"/>
      <point x="283" y="353" type="line" smooth="yes"/>
      <point x="180" y="353"/>
      <point x="136" y="269"/>
      <point x="136" y="198" type="curve" smooth="yes"/>
      <point x="136" y="125"/>
      <point x="178" y="57"/>
      <point x="279" y="57" type="curve" smooth="yes"/>
      <point x="334" y="57"/>
      <point x="380" y="75"/>
      <point x="407" y="109" type="curve"/>
    </contour>
  </outline>
</glyph>
<glyph name="quotesingle" format="2">
  <advance width="600"/>
  <unicode hex="0027"/>
  <outline>
    <contour>
      <point x="263" y="479" type="line"/>
      <point x="247" y="739" type="line"/>
      <point x="353" y="739" type="line"/>
      <point x="337" y="479" type="line"/>
    </contour>
  </outline>
</glyph>
<glyph name="parenleft" format="2">
  <advance width="600"/>
  <unicode hex="0028"/>
  <outline>
    <contour>
      <point x="213" y="350" type="curve" smooth="yes"/>
      <point x="213" y="141"/>
      <point x="284" y="33"/>
      <point x="426" y="-94" type="curve"/>
      <point x="383" y="-140" type="line"/>
      <point x="220" y="-7"/>
      <point x="125" y="122"/>
      <point x="125" y="350" type="curve" smooth="yes"/>
      <point x="125" y="578"/>
      <point x="220" y="707"/>
      <point x="383" y="840" type="curve"/>
      <point x="426" y="794" type="line"/>
      <point x="282" y="666"/>
      <point x="213" y="560"/>
    </contour>
  </outline>
</glyph>
<glyph name="parenright" format="2">
  <advance width="600"/>
  <unicode hex="0029"/>
  <outline>
    <contour>
      <point x="387" y="350" type="curve" smooth="yes"/>
      <point x="387" y="560"/>
      <point x="318" y="666"/>
      <point x="174" y="794" type="curve"/>
      <point x="217" y="840" type="line"/>
      <point x="380" y="707"/>
      <point x="475" y="578"/>
      <point x="475" y="350" type="curve" smooth="yes"/>
      <point x="475" y="122"/>
      <point x="380" y="-7"/>
      <point x="217" y="-140" type="curve"/>
      <point x="174" y="-94" type="line"/>
      <point x="316" y="33"/>
      <point x="387" y="141"/>
    </contour>
  </outline>
</glyph>
<glyph name="asterisk" format="2">
  <advance width="600"/>
  <unicode hex="002A"/>
  <outline>
    <contour>
      <point x="342" y="527" type="line"/>
      <point x="327" y="362" type="line"/>
      <point x="479" y="425" type="line"/>
      <point x="504" y="345" type="line"/>
      <point x="346" y="309" type="line"/>
      <point x="456" y="189" type="line"/>
      <point x="388" y="137" type="line"/>
      <point x="301" y="277" type="line"/>
      <point x="220" y="134" type="line"/>
      <point x="149" y="182" type="line"/>
      <point x="255" y="309" type="line"/>
      <point x="96" y="345" type="line"/>
      <point x="121" y="425" type="line"/>
      <point x="272" y="362" type="line"/>
      <point x="258" y="527" type="line"/>
    </contour>
  </outline>
</glyph>
<glyph name="plus" format="2">
  <advance width="600"/>
  <unicode hex="002B"/>
  <outline>
    <contour>
      <point x="338" y="495" type="line"/>
      <point x="338" y="346" type="line"/>
      <point x="484" y="346" type="line"/>
      <point x="484" y="276" type="line"/>
      <point x="338" y="276" type="line"/>
      <point x="338" y="127" type="line"/>
      <point x="260" y="127" type="line"/>
      <point x="260" y="276" type="line"/>
      <point x="116" y="276" type="line"/>
      <point x="116" y="346" type="line"/>
      <point x="260" y="346" type="line"/>
      <point x="260" y="495" type="line"/>
    </contour>
  </outline>
</glyph>
<glyph name="comma" format="2">
  <advance width="600"/>
  <unicode hex="002C"/>
  <outline>
    <contour>
      <point x="300" y="165" type="curve" smooth="yes"/>
      <point x="346" y="165"/>
      <point x="381" y="129"/>
      <point x="381" y="85" type="curve" smooth="yes"/>
      <point x="381" y="60"/>
      <point x="376" y="37"/>
      <point x="362" y="6" type="curve" smooth="yes"/>
      <point x="281" y="-179" type="line"/>
      <point x="205" y="-179" type="line"/>
      <point x="252" y="18" type="line"/>
      <point x="233" y="32"/>
      <point x="220" y="58"/>
      <point x="220" y="84" type="curve" smooth="yes"/>
      <point x="220" y="129"/>
      <point x="255" y="165"/>
    </contour>
  </outline>
</glyph>
<glyph name="hyphen" format="2">
  <advance width="600"/>
  <unicode hex="002D"/>
  <outline>
    <contour>
      <point x="125" y="277" type="line"/>
      <point x="125" y="349" type="line"/>
      <point x="475" y="349" type="line"/>
      <point x="475" y="277" type="line"/>
    </contour>
  </outline>
</glyph>
<glyph name="period" format="2">
  <advance width="600"/>
  <unicode hex="002E"/>
  <outline>
    <contour>
      <point x="211" y="77" type="curve" smooth="yes"/>
      <point x="211" y="126"/>
      <point x="249" y="165"/>
      <point x="299" y="165" type="curve" smooth="yes"/>
      <point x="350" y="165"/>
      <point x="387" y="126"/>
      <point x="387" y="77" type="curve" smooth="yes"/>
      <point x="387" y="27"/>
      <point x="350" y="-11"/>
      <point x="299" y="-11" type="curve" smooth="yes"/>
      <point x="249" y="-11"/>
      <point x="211" y="27"/>
    </contour>
  </outline>
</glyph>
<glyph name="slash" format="2">
  <advance width="600"/>
  <unicode hex="002F"/>
  <outline>
    <contour>
      <point x="121" y="-103" type="line"/>
      <point x="53" y="-73" type="line"/>
      <point x="480" y="809" type="line"/>
      <point x="547" y="777" type="line"/>
    </contour>
  </outline>
</glyph>
<glyph name="zero" format="2">
  <advance width="600"/>
  <unicode hex="0030"/>
  <outline>
    <contour>
      <point x="300" y="700" type="curve" smooth="yes"/>
      <point x="448" y="700"/>
      <point x="525" y="573"/>
      <point x="525" y="345" type="curve" smooth="yes"/>
      <point x="525" y="116"/>
      <point x="448" y="-11"/>
      <point x="300" y="-11" type="curve" smooth="yes"/>
      <point x="152" y="-11"/>
      <point x="75" y="116"/>
      <point x="75" y="345" type="curve" smooth="yes"/>
      <point x="75" y="573"/>
      <point x="152" y="700"/>
    </contour>
    <contour>
      <point x="300" y="632" type="curve" smooth="yes"/>
      <point x="215" y="632"/>
      <point x="163" y="548"/>
      <point x="163" y="345" type="curve" smooth="yes"/>
      <point x="163" y="141"/>
      <point x="215" y="57"/>
      <point x="300" y="57" type="curve" smooth="yes"/>
      <point x="386" y="57"/>
      <point x="437" y="141"/>
      <point x="437" y="345" type="curve" smooth="yes"/>
      <point x="437" y="548"/>
      <point x="386" y="632"/>
    </contour>
    <contour>
      <point x="300" y="410" type="curve" smooth="yes"/>
      <point x="338" y="410"/>
      <point x="366" y="381"/>
      <point x="366" y="345" type="curve" smooth="yes"/>
      <point x="366" y="308"/>
      <point x="338" y="279"/>
      <point x="300" y="279" type="curve" smooth="yes"/>
      <point x="263" y="279"/>
      <point x="235" y="308"/>
      <point x="235" y="345" type="curve" smooth="yes"/>
      <point x="235" y="381"/>
      <point x="263" y="410"/>
    </contour>
  </outline>
</glyph>
<glyph name="one" format="2">
  <advance width="600"/>
  <unicode hex="0031"/>
  <outline>
    <contour>
      <point x="374" y="68" type="line"/>
      <point x="517" y="68" type="line"/>
      <point x="517" y="0" type="line"/>
      <point x="120" y="0" type="line"/>
      <point x="120" y="68" type="line"/>
      <point x="289" y="68" type="line"/>
      <point x="289" y="597" type="line"/>
      <point x="132" y="502" type="line"/>
      <point x="95" y="561" type="line"/>
      <point x="300" y="689" type="line"/>
      <point x="374" y="689" type="line"/>
    </contour>
  </outline>
</glyph>
<glyph name="two" format="2">
  <advance width="600"/>
  <unicode hex="0032"/>
  <outline>
    <contour>
      <point x="269" y="700" type="curve" smooth="yes"/>
      <point x="399" y="700"/>
      <point x="477" y="617"/>
      <point x="477" y="508" type="curve" smooth="yes"/>
      <point x="477" y="381"/>
      <point x="396" y="279"/>
      <point x="169" y="72" type="curve"/>
      <point x="493" y="72" type="line"/>
      <point x="483" y="0" type="line"/>
      <point x="73" y="0" type="line"/>
      <point x="73" y="68" type="line"/>
      <point x="333" y="317"/>
      <point x="389" y="393"/>
      <point x="389" y="505" type="curve" smooth="yes"/>
      <point x="389" y="582"/>
      <point x="342" y="629"/>
      <point x="265" y="629" type="curve" smooth="yes"/>
      <point x="198" y="629"/>
      <point x="161" y="607"/>
      <point x="117" y="556" type="curve"/>
      <point x="59" y="601" type="line"/>
      <point x="113" y="667"/>
      <point x="176" y="700"/>
    </contour>
  </outline>
</glyph>
<glyph name="three" format="2">
  <advance width="600"/>
  <unicode hex="0033"/>
  <outline>
    <contour>
      <point x="269" y="700" type="curve" smooth="yes"/>
      <point x="399" y="700"/>
      <point x="480" y="621"/>
      <point x="480" y="527" type="curve" smooth="yes"/>
      <point x="480" y="444"/>
      <point x="418" y="381"/>
      <point x="346" y="367" type="curve"/>
      <point x="426" y="361"/>
      <point x="502" y="305"/>
      <point x="502" y="198" type="curve" smooth="yes"/>
      <point x="502" y="79"/>
      <point x="406" y="-11"/>
      <point x="263" y="-11" type="curve" smooth="yes"/>
      <point x="186" y="-11"/>
      <point x="104" y="17"/>
      <point x="52" y="80" type="curve"/>
      <point x="108" y="126" type="line"/>
      <point x="147" y="80"/>
      <point x="205" y="58"/>
      <point x="261" y="58" type="curve" smooth="yes"/>
      <point x="357" y="58"/>
      <point x="414" y="112"/>
      <point x="414" y="198" type="curve" smooth="yes"/>
      <point x="414" y="297"/>
      <point x="353" y="329"/>
      <point x="271" y="329" type="curve" smooth="yes"/>
      <point x="214" y="329" type="line"/>
      <point x="224" y="396" type="line"/>
      <point x="265" y="396" type="line" smooth="yes"/>
      <point x="331" y="396"/>
      <point x="395" y="433"/>
      <point x="395" y="516" type="curve" smooth="yes"/>
      <point x="395" y="591"/>
      <point x="338" y="632"/>
      <point x="265" y="632" type="curve" smooth="yes"/>
      <point x="206" y="632"/>
      <point x="165" y="611"/>
      <point x="119" y="569" type="curve"/>
      <point x="73" y="620" type="line"/>
      <point x="132" y="676"/>
      <point x="198" y="700"/>
    </contour>
  </outline>
</glyph>
<glyph name="four" format="2">
  <advance width="600"/>
  <unicode hex="0034"/>
  <outline>
    <contour>
      <point x="528" y="235" type="line"/>
      <point x="528" y="167" type="line"/>
      <point x="439" y="167" type="line"/>
      <point x="439" y="0" type="line"/>
      <point x="358" y="0" type="line"/>
      <point x="358" y="167" type="line"/>
      <point x="72" y="167" type="line"/>
      <point x="72" y="229" type="line"/>
      <point x="274" y="700" type="line"/>
      <point x="344" y="670" type="line"/>
      <point x="161" y="235" type="line"/>
      <point x="359" y="235" type="line"/>
      <point x="366" y="430" type="line"/>
      <point x="439" y="430" type="line"/>
      <point x="439" y="235" type="line"/>
    </contour>
  </outline>
</glyph>
<glyph name="five" format="2">
  <advance width="600"/>
  <unicode hex="0035"/>
  <outline>
    <contour>
      <point x="487" y="689" type="line"/>
      <point x="475" y="621" type="line"/>
      <point x="203" y="621" type="line"/>
      <point x="203" y="404" type="line"/>
      <point x="244" y="427"/>
      <point x="280" y="434"/>
      <point x="321" y="434" type="curve" smooth="yes"/>
      <point x="434" y="434"/>
      <point x="510" y="356"/>
      <point x="510" y="218" type="curve" smooth="yes"/>
      <point x="510" y="80"/>
      <point x="419" y="-11"/>
      <point x="277" y="-11" type="curve" smooth="yes"/>
      <point x="194" y="-11"/>
      <point x="130" y="20"/>
      <point x="77" y="71" type="curve"/>
      <point x="129" y="122" type="line"/>
      <point x="171" y="79"/>
      <point x="218" y="58"/>
      <point x="277" y="58" type="curve" smooth="yes"/>
      <point x="368" y="58"/>
      <point x="422" y="114"/>
      <point x="422" y="221" type="curve" smooth="yes"/>
      <point x="422" y="331"/>
      <point x="367" y="368"/>
      <point x="297" y="368" type="curve" smooth="yes"/>
      <point x="257" y="368"/>
      <point x="230" y="359"/>
      <point x="190" y="345" type="curve"/>
      <point x="122" y="345" type="line"/>
      <point x="122" y="689" type="line"/>
    </contour>
  </outline>
</glyph>
<glyph name="six" format="2">
  <advance width="600"/>
  <unicode hex="0036"/>
  <outline>
    <contour>
      <point x="330" y="448" type="curve" smooth="yes"/>
      <point x="435" y="448"/>
      <point x="525" y="379"/>
      <point x="525" y="232" type="curve" smooth="yes"/>
      <point x="525" y="79"/>
      <point x="428" y="-11"/>
      <point x="308" y="-11" type="curve" smooth="yes"/>
      <point x="141" y="-11"/>
      <point x="79" y="120"/>
      <point x="79" y="325" type="curve" smooth="yes"/>
      <point x="79" y="554"/>
      <point x="174" y="700"/>
      <point x="335" y="700" type="curve" smooth="yes"/>
      <point x="389" y="700"/>
      <point x="433" y="685"/>
      <point x="472" y="659" type="curve"/>
      <point x="439" y="603" type="line"/>
      <point x="407" y="622"/>
      <point x="372" y="632"/>
      <point x="334" y="632" type="curve" smooth="yes"/>
      <point x="228" y="632"/>
      <point x="167" y="524"/>
      <point x="164" y="356" type="curve"/>
      <point x="207" y="421"/>
      <point x="262" y="448"/>
    </contour>
    <contour>
      <point x="308" y="57" type="curve" smooth="yes"/>
      <point x="395" y="57"/>
      <point x="439" y="123"/>
      <point x="439" y="229" type="curve" smooth="yes"/>
      <point x="439" y="342"/>
      <point x="389" y="380"/>
      <point x="317" y="380" type="curve" smooth="yes"/>
      <point x="251" y="380"/>
      <point x="199" y="340"/>
      <point x="165" y="282" type="curve"/>
      <point x="168" y="127"/>
      <point x="210" y="57"/>
    </contour>
  </outline>
</glyph>
<glyph name="seven" format="2">
  <advance width="600"/>
  <unicode hex="0037"/>
  <outline>
    <contour>
      <point x="230" y="-9" type="line"/>
      <point x="152" y="14" type="line"/>
      <point x="420" y="619" type="line"/>
      <point x="97" y="619" type="line"/>
      <point x="97" y="689" type="line"/>
      <point x="505" y="689" type="line"/>
      <point x="505" y="624" type="line"/>
    </contour>
  </outline>
</glyph>
<glyph name="eight" format="2">
  <advance width="600"/>
  <unicode hex="0038"/>
  <outline>
    <contour>
      <point x="506" y="525" type="curve" smooth="yes"/>
      <point x="506" y="458"/>
      <point x="463" y="411"/>
      <point x="387" y="369" type="curve"/>
      <point x="477" y="332"/>
      <point x="535" y="269"/>
      <point x="535" y="185" type="curve" smooth="yes"/>
      <point x="535" y="72"/>
      <point x="443" y="-11"/>
      <point x="298" y="-11" type="curve" smooth="yes"/>
      <point x="150" y="-11"/>
      <point x="65" y="74"/>
      <point x="65" y="183" type="curve" smooth="yes"/>
      <point x="65" y="267"/>
      <point x="120" y="324"/>
      <point x="204" y="363" type="curve"/>
      <point x="130" y="398"/>
      <point x="94" y="443"/>
      <point x="94" y="520" type="curve" smooth="yes"/>
      <point x="94" y="646"/>
      <point x="209" y="700"/>
      <point x="300" y="700" type="curve" smooth="yes"/>
      <point x="400" y="700"/>
      <point x="506" y="647"/>
    </contour>
    <contour>
      <point x="176" y="519" type="curve" smooth="yes"/>
      <point x="176" y="440"/>
      <point x="234" y="421"/>
      <point x="328" y="390" type="curve"/>
      <point x="392" y="427"/>
      <point x="424" y="459"/>
      <point x="424" y="521" type="curve" smooth="yes"/>
      <point x="424" y="590"/>
      <point x="379" y="634"/>
      <point x="300" y="634" type="curve" smooth="yes"/>
      <point x="222" y="634"/>
      <point x="176" y="592"/>
    </contour>
    <contour>
      <point x="446" y="183" type="curve" smooth="yes"/>
      <point x="446" y="276"/>
      <point x="370" y="301"/>
      <point x="261" y="339" type="curve"/>
      <point x="205" y="313"/>
      <point x="154" y="269"/>
      <point x="154" y="183" type="curve" smooth="yes"/>
      <point x="154" y="105"/>
      <point x="203" y="57"/>
      <point x="298" y="57" type="curve" smooth="yes"/>
      <point x="394" y="57"/>
      <point x="446" y="111"/>
    </contour>
  </outline>
</glyph>
<glyph name="nine" format="2">
  <advance width="600"/>
  <unicode hex="0039"/>
  <outline>
    <contour>
      <point x="425" y="337" type="curve"/>
      <point x="394" y="293"/>
      <point x="339" y="252"/>
      <point x="262" y="252" type="curve" smooth="yes"/>
      <point x="148" y="252"/>
      <point x="66" y="336"/>
      <point x="66" y="472" type="curve" smooth="yes"/>
      <point x="66" y="620"/>
      <point x="165" y="699"/>
      <point x="289" y="699" type="curve" smooth="yes"/>
      <point x="443" y="699"/>
      <point x="514" y="597"/>
      <point x="514" y="433" type="curve" smooth="yes"/>
      <point x="514" y="139"/>
      <point x="404" y="51"/>
      <point x="147" y="-21" type="curve"/>
      <point x="127" y="43" type="line"/>
      <point x="311" y="92"/>
      <point x="423" y="170"/>
    </contour>
    <contour>
      <point x="276" y="320" type="curve" smooth="yes"/>
      <point x="343" y="320"/>
      <point x="390" y="357"/>
      <point x="427" y="412" type="curve"/>
      <point x="427" y="417"/>
      <point x="427" y="422"/>
      <point x="427" y="427" type="curve" smooth="yes"/>
      <point x="427" y="579"/>
      <point x="382" y="631"/>
      <point x="289" y="631" type="curve" smooth="yes"/>
      <point x="200" y="631"/>
      <point x="154" y="575"/>
      <point x="154" y="469" type="curve" smooth="yes"/>
      <point x="154" y="365"/>
      <point x="200" y="320"/>
    </contour>
  </outline>
</glyph>
<glyph name="colon" format="2">
  <advance width="600"/>
  <unicode hex="003A"/>
  <outline>
    <contour>
      <point x="219" y="431" type="curve" smooth="yes"/>
      <point x="219" y="475"/>
      <point x="253" y="511"/>
      <point x="299" y="511" type="curve" smooth="yes"/>
      <point x="346" y="511"/>
      <point x="380" y="475"/>
      <point x="380" y="431" type="curve" smooth="yes"/>
      <point x="380" y="386"/>
      <point x="346" y="349"/>
      <point x="299" y="349" type="curve" smooth="yes"/>
      <point x="253" y="349"/>
      <point x="219" y="386"/>
    </contour>
    <contour>
      <point x="219" y="70" type="curve" smooth="yes"/>
      <point x="219" y="114"/>
      <point x="253" y="151"/>
      <point x="299" y="151" type="curve" smooth="yes"/>
      <point x="346" y="151"/>
      <point x="380" y="114"/>
      <point x="380" y="70" type="curve" smooth="yes"/>
      <point x="380" y="24"/>
      <point x="346" y="-11"/>
      <point x="299" y="-11" type="curve" smooth="yes"/>
      <point x="253" y="-11"/>
      <point x="219" y="24"/>
    </contour>
  </outline>
</glyph>
<glyph name="semicolon" format="2">
  <advance width="600"/>
  <unicode hex="003B"/>
  <outline>
    <contour>
      <point x="299" y="511" type="curve" smooth="yes"/>
      <point x="346" y="511"/>
      <point x="380" y="475"/>
      <point x="380" y="431" type="curve" smooth="yes"/>
      <point x="380" y="386"/>
      <point x="346" y="349"/>
      <point x="299" y="349" type="curve" smooth="yes"/>
      <point x="253" y="349"/>
      <point x="219" y="386"/>
      <point x="219" y="431" type="curve" smooth="yes"/>
      <point x="219" y="475"/>
      <point x="253" y="511"/>
    </contour>
    <contour>
      <point x="299" y="166" type="curve" smooth="yes"/>
      <point x="345" y="166"/>
      <point x="380" y="130"/>
      <point x="380" y="85" type="curve" smooth="yes"/>
      <point x="380" y="60"/>
      <point x="375" y="38"/>
      <point x="361" y="6" type="curve" smooth="yes"/>
      <point x="279" y="-180" type="line"/>
      <point x="203" y="-180" type="line"/>
      <point x="251" y="18" type="line"/>
      <point x="231" y="33"/>
      <point x="219" y="58"/>
      <point x="219" y="85" type="curve" smooth="yes"/>
      <point x="219" y="130"/>
      <point x="253" y="166"/>
    </contour>
  </outline>
</glyph>
<glyph name="less" format="2">
  <advance width="600"/>
  <unicode hex="003C"/>
  <outline>
    <contour>
      <point x="472" y="594" type="line"/>
      <point x="513" y="530" type="line"/>
      <point x="160" y="313" type="line"/>
      <point x="513" y="94" type="line"/>
      <point x="468" y="33" type="line"/>
      <point x="88" y="270" type="line"/>
      <point x="88" y="357" type="line"/>
    </contour>
  </outline>
</glyph>
<glyph name="greater" format="2">
  <advance width="600"/>
  <unicode hex="003E"/>
  <outline>
    <contour>
      <point x="129" y="594" type="line"/>
      <point x="513" y="356" type="line"/>
      <point x="513" y="270" type="line"/>
      <point x="133" y="33" type="line"/>
      <point x="88" y="95" type="line"/>
      <point x="441" y="313" type="line"/>
      <point x="88" y="530" type="line"/>
    </contour>
  </outline>
</glyph>
<glyph name="question" format="2">
  <advance width="600"/>
  <unicode hex="003F"/>
  <outline>
    <contour>
      <point x="299" y="700" type="curve" smooth="yes"/>
      <point x="422" y="700"/>
      <point x="497" y="624"/>
      <point x="497" y="545" type="curve" smooth="yes"/>
      <point x="497" y="385"/>
      <point x="316" y="408"/>
      <point x="316" y="261" type="curve" smooth="yes"/>
      <point x="316" y="227" type="line"/>
      <point x="232" y="227" type="line"/>
      <point x="232" y="266" type="line" smooth="yes"/>
      <point x="232" y="428"/>
      <point x="409" y="427"/>
      <point x="409" y="540" type="curve" smooth="yes"/>
      <point x="409" y="597"/>
      <point x="358" y="630"/>
      <point x="291" y="630" type="curve" smooth="yes"/>
      <point x="244" y="630"/>
      <point x="191" y="607"/>
      <point x="149" y="556" type="curve"/>
      <point x="90" y="601" type="line"/>
      <point x="148" y="669"/>
      <point x="219" y="700"/>
    </contour>
    <contour>
      <point x="277" y="123" type="curve" smooth="yes"/>
      <point x="316" y="123"/>
      <point x="344" y="93"/>
      <point x="344" y="56" type="curve" smooth="yes"/>
      <point x="344" y="18"/>
      <point x="316" y="-11"/>
      <point x="277" y="-11" type="curve" smooth="yes"/>
      <point x="239" y="-11"/>
      <point x="210" y="18"/>
      <point x="210" y="56" type="curve" smooth="yes"/>
      <point x="210" y="93"/>
      <point x="239" y="123"/>
    </contour>
  </outline>
</glyph>
<glyph name="at" format="2">
  <advance width="600"/>
  <unicode hex="0040"/>
  <outline>
    <contour>
      <point x="284" y="700" type="curve" smooth="yes"/>
      <point x="542" y="700"/>
      <point x="586" y="489"/>
      <point x="586" y="285" type="curve" smooth="yes"/>
      <point x="586" y="33"/>
      <point x="559" y="-91"/>
      <point x="439" y="-91" type="curve" smooth="yes"/>
      <point x="356" y="-91"/>
      <point x="321" y="0"/>
      <point x="321" y="50" type="curve" smooth="yes"/>
      <point x="321" y="51"/>
      <point x="321" y="51"/>
      <point x="321" y="52" type="curve" smooth="yes"/>
      <point x="317" y="52" type="line"/>
      <point x="298" y="5"/>
      <point x="260" y="-46"/>
      <point x="180" y="-46" type="curve" smooth="yes"/>
      <point x="71" y="-46"/>
      <point x="30" y="51"/>
      <point x="30" y="183" type="curve" smooth="yes"/>
      <point x="30" y="358"/>
      <point x="102" y="441"/>
      <point x="226" y="441" type="curve" smooth="yes"/>
      <point x="272" y="441"/>
      <point x="311" y="434"/>
      <point x="367" y="404" type="curve"/>
      <point x="367" y="108" type="line" smooth="yes"/>
      <point x="367" y="1"/>
      <point x="398" y="-23"/>
      <point x="437" y="-23" type="curve" smooth="yes"/>
      <point x="498" y="-23"/>
      <point x="499" y="104"/>
      <point x="499" y="268" type="curve" smooth="yes"/>
      <point x="499" y="273"/>
      <point x="499" y="279"/>
      <point x="499" y="284" type="curve" smooth="yes"/>
      <point x="499" y="475"/>
      <point x="468" y="626"/>
      <point x="285" y="626" type="curve" smooth="yes"/>
      <point x="219" y="626"/>
      <point x="142" y="609"/>
      <point x="58" y="534" type="curve"/>
      <point x="9" y="591" type="line"/>
      <point x="99" y="668"/>
      <point x="195" y="700"/>
    </contour>
    <contour>
      <point x="229" y="379" type="curve" smooth="yes"/>
      <point x="138" y="379"/>
      <point x="111" y="313"/>
      <point x="111" y="183" type="curve" smooth="yes"/>
      <point x="111" y="86"/>
      <point x="130" y="17"/>
      <point x="190" y="17" type="curve" smooth="yes"/>
      <point x="260" y="17"/>
      <point x="281" y="77"/>
      <point x="293" y="105" type="curve"/>
      <point x="293" y="365" type="line"/>
      <point x="272" y="375"/>
      <point x="253" y="379"/>
    </contour>
  </outline>
</glyph>
<glyph name="B" format="2">
  <advance width="600"/>
  <unicode hex="0042"/>
  <outline>
    <contour>
      <point x="540" y="196" type="curve" smooth="yes"/>
      <point x="540" y="46"/>
      <point x="408" y="0"/>
      <point x="282" y="0" type="curve" smooth="yes"/>
      <point x="96" y="0" type="line"/>
      <point x="96" y="689" type="line"/>
      <point x="266" y="689" type="line" smooth="yes"/>
      <point x="387" y="689"/>
      <point x="510" y="650"/>
      <point x="510" y="515" type="curve" smooth="yes"/>
      <point x="510" y="426"/>
      <point x="447" y="380"/>
      <point x="381" y="365" type="curve"/>
      <point x="458" y="352"/>
      <point x="540" y="313"/>
    </contour>
    <contour>
      <point x="421" y="510" type="curve" smooth="yes"/>
      <point x="421" y="589"/>
      <point x="369" y="618"/>
      <point x="286" y="618" type="curve" smooth="yes"/>
      <point x="183" y="618" type="line"/>
      <point x="183" y="396" type="line"/>
      <point x="294" y="396" type="line" smooth="yes"/>
      <point x="375" y="396"/>
      <point x="421" y="430"/>
    </contour>
    <contour>
      <point x="448" y="193" type="curve" smooth="yes"/>
      <point x="448" y="298"/>
      <point x="381" y="324"/>
      <point x="300" y="324" type="curve" smooth="yes"/>
      <point x="183" y="324" type="line"/>
      <point x="183" y="72" type="line"/>
      <point x="297" y="72" type="line" smooth="yes"/>
      <point x="364" y="72"/>
      <point x="448" y="91"/>
    </contour>
  </outline>
</glyph>
<glyph name="C" format="2">
  <advance width="600"/>
  <unicode hex="0043"/>
  <outline>
    <contour>
      <point x="358" y="700" type="curve" smooth="yes"/>
      <point x="448" y="700"/>
      <point x="503" y="676"/>
      <point x="558" y="633" type="curve"/>
      <point x="509" y="576" type="line"/>
      <point x="465" y="613"/>
      <point x="417" y="627"/>
      <point x="364" y="627" type="curve" smooth="yes"/>
      <point x="252" y="627"/>
      <point x="154" y="555"/>
      <point x="154" y="345" type="curve" smooth="yes"/>
      <point x="154" y="140"/>
      <point x="245" y="63"/>
      <point x="363" y="63" type="curve" smooth="yes"/>
      <point x="440" y="63"/>
      <point x="486" y="91"/>
      <point x="523" y="120" type="curve"/>
      <point x="568" y="64" type="line"/>
      <point x="526" y="23"/>
      <point x="460" y="-11"/>
      <point x="362" y="-11" type="curve" smooth="yes"/>
      <point x="194" y="-11"/>
      <point x="63" y="113"/>
      <point x="63" y="345" type="curve" smooth="yes"/>
      <point x="63" y="577"/>
      <point x="199" y="700"/>
    </contour>
  </outline>
</glyph>
<glyph name="F" format="2">
  <advance width="600"/>
  <unicode hex="0046"/>
  <outline>
    <contour>
      <point x="225" y="617" type="line"/>
      <point x="225" y="376" type="line"/>
      <point x="495" y="376" type="line"/>
      <point x="495" y="306" type="line"/>
      <point x="225" y="306" type="line"/>
      <point x="225" y="0" type="line"/>
      <point x="138" y="0" type="line"/>
      <point x="138" y="689" type="line"/>
      <point x="544" y="689" type="line"/>
      <point x="534" y="617" type="line"/>
    </contour>
  </outline>
</glyph>
<glyph name="G" format="2">
  <advance width="600"/>
  <unicode hex="0047"/>
  <outline>
    <contour>
      <point x="314" y="-11" type="curve" smooth="yes"/>
      <point x="150" y="-11"/>
      <point x="45" y="107"/>
      <point x="45" y="345" type="curve" smooth="yes"/>
      <point x="45" y="582"/>
      <point x="185" y="700"/>
      <point x="334" y="700" type="curve" smooth="yes"/>
      <point x="424" y="700"/>
      <point x="476" y="674"/>
      <point x="530" y="624" type="curve"/>
      <point x="478" y="570" type="line"/>
      <point x="436" y="609"/>
      <point x="391" y="627"/>
      <point x="334" y="627" type="curve" smooth="yes"/>
      <point x="234" y="627"/>
      <point x="138" y="557"/>
      <point x="138" y="345" type="curve" smooth="yes"/>
      <point x="138" y="145"/>
      <point x="201" y="62"/>
      <point x="321" y="62" type="curve" smooth="yes"/>
      <point x="369" y="62"/>
      <point x="413" y="73"/>
      <point x="452" y="95" type="curve"/>
      <point x="452" y="304" type="line"/>
      <point x="317" y="304" type="line"/>
      <point x="307" y="377" type="line"/>
      <point x="539" y="377" type="line"/>
      <point x="539" y="49" type="line"/>
      <point x="477" y="14"/>
      <point x="411" y="-11"/>
    </contour>
  </outline>
</glyph>
<glyph name="L" format="2">
  <advance width="600"/>
  <unicode hex="004C"/>
  <outline>
    <contour>
      <point x="136" y="0" type="line"/>
      <point x="136" y="689" type="line"/>
      <point x="222" y="689" type="line"/>
      <point x="222" y="77" type="line"/>
      <point x="537" y="77" type="line"/>
      <point x="526" y="0" type="line"/>
    </contour>
  </outline>
</glyph>
<glyph name="M" format="2">
  <advance width="600"/>
  <unicode hex="004D"/>
  <outline>
    <contour>
      <point x="531" y="689" type="line"/>
      <point x="570" y="0" type="line"/>
      <point x="486" y="0" type="line"/>
      <point x="465" y="360" type="line" smooth="yes"/>
      <point x="459" y="455"/>
      <point x="459" y="575"/>
      <point x="459" y="609" type="curve"/>
      <point x="343" y="124" type="line"/>
      <point x="256" y="124" type="line"/>
      <point x="132" y="609" type="line"/>
      <point x="133" y="591"/>
      <point x="134" y="555"/>
      <point x="134" y="513" type="curve" smooth="yes"/>
      <point x="134" y="464"/>
      <point x="133" y="406"/>
      <point x="130" y="360" type="curve" smooth="yes"/>
      <point x="112" y="0" type="line"/>
      <point x="30" y="0" type="line"/>
      <point x="69" y="689" type="line"/>
      <point x="190" y="689" type="line"/>
      <point x="302" y="217" type="line"/>
      <point x="409" y="689" type="line"/>
    </contour>
  </outline>
</glyph>
<glyph name="V" format="2">
  <advance width="600"/>
  <unicode hex="0056"/>
  <outline>
    <contour>
      <point x="302" y="99" type="line"/>
      <point x="488" y="689" type="line"/>
      <point x="575" y="689" type="line"/>
      <point x="345" y="0" type="line"/>
      <point x="255" y="0" type="line"/>
      <point x="25" y="689" type="line"/>
      <point x="118" y="689" type="line"/>
    </contour>
  </outline>
</glyph>
<glyph name="Z" format="2">
  <advance width="600"/>
  <unicode hex="005A"/>
  <outline>
    <contour>
      <point x="167" y="75" type="line"/>
      <point x="527" y="75" type="line"/>
      <point x="517" y="0" type="line"/>
      <point x="72" y="0" type="line"/>
      <point x="72" y="70" type="line"/>
      <point x="435" y="614" type="line"/>
      <point x="108" y="614" type="line"/>
      <point x="108" y="689" type="line"/>
      <point x="528" y="689" type="line"/>
      <point x="528" y="617" type="line"/>
    </contour>
  </outline>
</glyph>
<glyph name="bracketleft" format="2">
  <advance width="600"/>
  <unicode hex="005B"/>
  <outline>
    <contour>
      <point x="184" y="-115" type="line"/>
      <point x="184" y="815" type="line"/>
      <point x="435" y="815" type="line"/>
      <point x="435" y="743" type="line"/>
      <point x="264" y="743" type="line"/>
      <point x="264" y="-44" type="line"/>
      <point x="435" y="-44" type="line"/>
      <point x="435" y="-115" type="line"/>
    </contour>
  </outline>
</glyph>
<glyph name="backslash" format="2">
  <advance width="600"/>
  <unicode hex="005C"/>
  <outline>
    <contour>
      <point x="53" y="777" type="line"/>
      <point x="119" y="809" type="line"/>
      <point x="547" y="-73" type="line"/>
      <point x="479" y="-103" type="line"/>
    </contour>
  </outline>
</glyph>
<glyph name="bracketright" format="2">
  <advance width="600"/>
  <unicode hex="005D"/>
  <outline>
    <contour>
      <point x="416" y="815" type="line"/>
      <point x="416" y="-115" type="line"/>
      <point x="165" y="-115" type="line"/>
      <point x="165" y="-44" type="line"/>
      <point x="336" y="-44" type="line"/>
      <point x="336" y="743" type="line"/>
      <point x="165" y="743" type="line"/>
      <point x="165" y="815" type="line"/>
    </contour>
  </outline>
</glyph>
<glyph name="asciicircum" format="2">
  <advance width="600"/>
  <unicode hex="005E"/>
  <outline>
    <contour>
      <point x="337" y="840" type="line"/>
      <point x="526" y="527" type="line"/>
      <point x="435" y="527" type="line"/>
      <point x="299" y="764" type="line"/>
      <point x="164" y="527" type="line"/>
      <point x="74" y="527" type="line"/>
      <point x="263" y="840" type="line"/>
    </contour>
  </outline>
</glyph>
<glyph name="underscore" format="2">
  <advance width="600"/>
  <unicode hex="005F"/>
  <outline>
    <contour>
      <point x="50" y="-182" type="line"/>
      <point x="50" y="-108" type="line"/>
      <point x="550" y="-108" type="line"/>
      <point x="550" y="-182" type="line"/>
    </contour>
  </outline>
</glyph>
<glyph name="grave" format="2">
  <advance width="600"/>
  <unicode hex="0060"/>
  <outline>
    <contour>
      <point x="387" y="622" type="line"/>
      <point x="184" y="715" type="line"/>
      <point x="230" y="787" type="line"/>
      <point x="414" y="668" type="line"/>
    </contour>
  </outline>
</glyph>
<glyph name="b" format="2">
  <advance width="600"/>
  <unicode hex="0062"/>
  <outline>
    <contour>
      <point x="184" y="458" type="line"/>
      <point x="223" y="509"/>
      <point x="274" y="538"/>
      <point x="335" y="538" type="curve" smooth="yes"/>
      <point x="475" y="538"/>
      <point x="532" y="429"/>
      <point x="532" y="264" type="curve" smooth="yes"/>
      <point x="532" y="104"/>
      <point x="459" y="-11"/>
      <point x="323" y="-11" type="curve" smooth="yes"/>
      <point x="263" y="-11"/>
      <point x="216" y="9"/>
      <point x="180" y="55" type="curve"/>
      <point x="174" y="0" type="line"/>
      <point x="100" y="0" type="line"/>
      <point x="100" y="739" type="line"/>
      <point x="184" y="749" type="line"/>
    </contour>
    <contour>
      <point x="304" y="57" type="curve" smooth="yes"/>
      <point x="391" y="57"/>
      <point x="441" y="124"/>
      <point x="441" y="264" type="curve" smooth="yes"/>
      <point x="441" y="401"/>
      <point x="398" y="470"/>
      <point x="316" y="470" type="curve" smooth="yes"/>
      <point x="258" y="470"/>
      <point x="213" y="428"/>
      <point x="184" y="386" type="curve"/>
      <point x="184" y="125" type="line"/>
      <point x="212" y="82"/>
      <point x="255" y="57"/>
    </contour>
  </outline>
</glyph>
<glyph name="d" format="2">
  <advance width="600"/>
  <unicode hex="0064"/>
  <outline>
    <contour>
      <point x="416" y="749" type="line"/>
      <point x="500" y="739" type="line"/>
      <point x="500" y="0" type="line"/>
      <point x="426" y="0" type="line"/>
      <point x="418" y="69" type="line"/>
      <point x="379" y="14"/>
      <point x="326" y="-11"/>
      <point x="269" y="-11" type="curve" smooth="yes"/>
      <point x="131" y="-11"/>
      <point x="68" y="99"/>
      <point x="68" y="263" type="curve" smooth="yes"/>
      <point x="68" y="421"/>
      <point x="145" y="538"/>
      <point x="274" y="538" type="curve" smooth="yes"/>
      <point x="335" y="538"/>
      <point x="380" y="516"/>
      <point x="416" y="475" type="curve"/>
    </contour>
    <contour>
      <point x="296" y="470" type="curve" smooth="yes"/>
      <point x="209" y="470"/>
      <point x="159" y="402"/>
      <point x="159" y="263" type="curve" smooth="yes"/>
      <point x="159" y="126"/>
      <point x="203" y="56"/>
      <point x="286" y="56" type="curve" smooth="yes"/>
      <point x="346" y="56"/>
      <point x="387" y="96"/>
      <point x="416" y="140" type="curve"/>
      <point x="416" y="402" type="line"/>
      <point x="387" y="445"/>
      <point x="345" y="470"/>
    </contour>
  </outline>
</glyph>
<glyph name="f" format="2">
  <advance width="600"/>
  <unicode hex="0066"/>
  <outline>
    <contour>
      <point x="411" y="749" type="curve" smooth="yes"/>
      <point x="468" y="749"/>
      <point x="513" y="738"/>
      <point x="554" y="721" type="curve"/>
      <point x="527" y="658" type="line"/>
      <point x="493" y="673"/>
      <point x="454" y="680"/>
      <point x="414" y="680" type="curve" smooth="yes"/>
      <point x="341" y="680"/>
      <point x="304" y="651"/>
      <point x="304" y="593" type="curve" smooth="yes"/>
      <point x="304" y="486" type="line"/>
      <point x="482" y="486" type="line"/>
      <point x="473" y="419" type="line"/>
      <point x="304" y="419" type="line"/>
      <point x="304" y="0" type="line"/>
      <point x="219" y="0" type="line"/>
      <point x="219" y="419" type="line"/>
      <point x="94" y="419" type="line"/>
      <point x="94" y="486" type="line"/>
      <point x="219" y="486" type="line"/>
      <point x="219" y="591" type="line" smooth="yes"/>
      <point x="219" y="688"/>
      <point x="302" y="749"/>
    </contour>
  </outline>
</glyph>
<glyph name="g" format="2">
  <advance width="600"/>
  <unicode hex="0067"/>
  <outline>
    <contour>
      <point x="529" y="582" type="curve"/>
      <point x="554" y="503" type="line"/>
      <point x="510" y="489"/>
      <point x="459" y="488"/>
      <point x="400" y="488" type="curve"/>
      <point x="462" y="460"/>
      <point x="492" y="415"/>
      <point x="492" y="355" type="curve" smooth="yes"/>
      <point x="492" y="251"/>
      <point x="419" y="176"/>
      <point x="294" y="176" type="curve" smooth="yes"/>
      <point x="259" y="176"/>
      <point x="238" y="179"/>
      <point x="215" y="187" type="curve"/>
      <point x="200" y="175"/>
      <point x="188" y="155"/>
      <point x="188" y="136" type="curve" smooth="yes"/>
      <point x="188" y="111"/>
      <point x="204" y="91"/>
      <point x="258" y="91" type="curve" smooth="yes"/>
      <point x="353" y="91" type="line" smooth="yes"/>
      <point x="459" y="91"/>
      <point x="539" y="30"/>
      <point x="539" y="-52" type="curve" smooth="yes"/>
      <point x="539" y="-155"/>
      <point x="448" y="-212"/>
      <point x="288" y="-212" type="curve" smooth="yes"/>
      <point x="120" y="-212"/>
      <point x="66" y="-160"/>
      <point x="66" y="-53" type="curve"/>
      <point x="142" y="-53" type="line"/>
      <point x="142" y="-115"/>
      <point x="170" y="-144"/>
      <point x="288" y="-144" type="curve" smooth="yes"/>
      <point x="403" y="-144"/>
      <point x="454" y="-114"/>
      <point x="454" y="-57" type="curve" smooth="yes"/>
      <point x="454" y="-7"/>
      <point x="403" y="18"/>
      <point x="336" y="18" type="curve" smooth="yes"/>
      <point x="242" y="18" type="line" smooth="yes"/>
      <point x="150" y="18"/>
      <point x="109" y="65"/>
      <point x="109" y="118" type="curve" smooth="yes"/>
      <point x="109" y="151"/>
      <point x="129" y="185"/>
      <point x="167" y="210" type="curve"/>
      <point x="107" y="241"/>
      <point x="79" y="287"/>
      <point x="79" y="355" type="curve" smooth="yes"/>
      <point x="79" y="462"/>
      <point x="164" y="538"/>
      <point x="289" y="538" type="curve" smooth="yes"/>
      <point x="421" y="538"/>
      <point x="467" y="556"/>
    </contour>
    <contour>
      <point x="288" y="476" type="curve" smooth="yes"/>
      <point x="203" y="476"/>
      <point x="165" y="426"/>
      <point x="165" y="355" type="curve" smooth="yes"/>
      <point x="165" y="283"/>
      <point x="204" y="232"/>
      <point x="290" y="232" type="curve" smooth="yes"/>
      <point x="365" y="232"/>
      <point x="405" y="278"/>
      <point x="405" y="356" type="curve" smooth="yes"/>
      <point x="405" y="435"/>
      <point x="366" y="476"/>
    </contour>
  </outline>
</glyph>
<glyph name="k" format="2">
  <advance width="600"/>
  <unicode hex="006B"/>
  <outline>
    <contour>
      <point x="190" y="749" type="line"/>
      <point x="190" y="0" type="line"/>
      <point x="106" y="0" type="line"/>
      <point x="106" y="739" type="line"/>
    </contour>
    <contour>
      <point x="541" y="527" type="line"/>
      <point x="305" y="289" type="line"/>
      <point x="569" y="0" type="line"/>
      <point x="458" y="0" type="line"/>
      <point x="199" y="288" type="line"/>
      <point x="433" y="527" type="line"/>
    </contour>
  </outline>
</glyph>
<glyph name="l" format="2">
  <advance width="600"/>
  <unicode hex="006C"/>
  <outline>
    <contour>
      <point x="306" y="739" type="line"/>
      <point x="306" y="130" type="line" smooth="yes"/>
      <point x="306" y="78"/>
      <point x="342" y="59"/>
      <point x="393" y="59" type="curve" smooth="yes"/>
      <point x="424" y="59"/>
      <point x="452" y="66"/>
      <point x="481" y="77" type="curve"/>
      <point x="503" y="16" type="line"/>
      <point x="475" y="1"/>
      <point x="432" y="-11"/>
      <point x="378" y="-11" type="curve" smooth="yes"/>
      <point x="285" y="-11"/>
      <point x="222" y="43"/>
      <point x="222" y="134" type="curve" smooth="yes"/>
      <point x="222" y="672" type="line"/>
      <point x="60" y="672" type="line"/>
      <point x="60" y="739" type="line"/>
    </contour>
  </outline>
</glyph>
<glyph name="m" format="2">
  <advance width="600"/>
  <unicode hex="006D"/>
  <outline>
    <contour>
      <point x="447" y="538" type="curve" smooth="yes"/>
      <point x="498" y="538"/>
      <point x="549" y="513"/>
      <point x="549" y="392" type="curve" smooth="yes"/>
      <point x="549" y="0" type="line"/>
      <point x="472" y="0" type="line"/>
      <point x="472" y="378" type="line" smooth="yes"/>
      <point x="472" y="445"/>
      <point x="469" y="472"/>
      <point x="431" y="472" type="curve" smooth="yes"/>
      <point x="399" y="472"/>
      <point x="368" y="454"/>
      <point x="339" y="409" type="curve"/>
      <point x="339" y="0" type="line"/>
      <point x="261" y="0" type="line"/>
      <point x="261" y="378" type="line" smooth="yes"/>
      <point x="261" y="445"/>
      <point x="258" y="472"/>
      <point x="220" y="472" type="curve" smooth="yes"/>
      <point x="187" y="472"/>
      <point x="157" y="454"/>
      <point x="128" y="409" type="curve"/>
      <point x="128" y="0" type="line"/>
      <point x="51" y="0" type="line"/>
      <point x="51" y="527" type="line"/>
      <point x="116" y="527" type="line"/>
      <point x="122" y="465" type="line"/>
      <point x="150" y="506"/>
      <point x="183" y="538"/>
      <point x="236" y="538" type="curve" smooth="yes"/>
      <point x="276" y="538"/>
      <point x="315" y="522"/>
      <point x="331" y="468" type="curve"/>
      <point x="360" y="510"/>
      <point x="394" y="538"/>
    </contour>
  </outline>
</glyph>
<glyph name="n" format="2">
  <advance width="600"/>
  <unicode hex="006E"/>
  <outline>
    <contour>
      <point x="100" y="0" type="line"/>
      <point x="100" y="527" type="line"/>
      <point x="172" y="527" type="line"/>
      <point x="179" y="453" type="line"/>
      <point x="221" y="507"/>
      <point x="291" y="538"/>
      <point x="353" y="538" type="curve" smooth="yes"/>
      <point x="456" y="538"/>
      <point x="501" y="480"/>
      <point x="501" y="382" type="curve" smooth="yes"/>
      <point x="501" y="0" type="line"/>
      <point x="417" y="0" type="line"/>
      <point x="417" y="320" type="line" smooth="yes"/>
      <point x="417" y="428"/>
      <point x="406" y="471"/>
      <point x="327" y="471" type="curve" smooth="yes"/>
      <point x="265" y="471"/>
      <point x="212" y="425"/>
      <point x="184" y="383" type="curve"/>
      <point x="184" y="0" type="line"/>
    </contour>
  </outline>
</glyph>
<glyph name="braceleft" format="2">
  <advance width="600"/>
  <unicode hex="007B"/>
  <outline>
    <contour>
      <point x="451" y="836" type="curve"/>
      <point x="451" y="769" type="line"/>
      <point x="381" y="769"/>
      <point x="326" y="753"/>
      <point x="326" y="698" type="curve" smooth="yes"/>
      <point x="326" y="695"/>
      <point x="326" y="692"/>
      <point x="326" y="689" type="curve" smooth="yes"/>
      <point x="346" y="484" type="line" smooth="yes"/>
      <point x="347" y="475"/>
      <point x="347" y="466"/>
      <point x="347" y="458" type="curve" smooth="yes"/>
      <point x="347" y="392"/>
      <point x="315" y="362"/>
      <point x="253" y="350" type="curve"/>
      <point x="315" y="338"/>
      <point x="347" y="311"/>
      <point x="347" y="243" type="curve" smooth="yes"/>
      <point x="347" y="235"/>
      <point x="347" y="226"/>
      <point x="346" y="216" type="curve" smooth="yes"/>
      <point x="326" y="11" type="line" smooth="yes"/>
      <point x="326" y="8"/>
      <point x="326" y="5"/>
      <point x="326" y="2" type="curve" smooth="yes"/>
      <point x="326" y="-54"/>
      <point x="381" y="-69"/>
      <point x="451" y="-69" type="curve"/>
      <point x="451" y="-136" type="line"/>
      <point x="345" y="-136"/>
      <point x="247" y="-106"/>
      <point x="247" y="-0" type="curve" smooth="yes"/>
      <point x="247" y="6"/>
      <point x="247" y="13"/>
      <point x="248" y="20" type="curve" smooth="yes"/>
      <point x="269" y="210" type="line" smooth="yes"/>
      <point x="270" y="217"/>
      <point x="270" y="223"/>
      <point x="270" y="230" type="curve" smooth="yes"/>
      <point x="270" y="286"/>
      <point x="238" y="316"/>
      <point x="117" y="316" type="curve"/>
      <point x="117" y="384" type="line"/>
      <point x="238" y="384"/>
      <point x="270" y="413"/>
      <point x="270" y="469" type="curve" smooth="yes"/>
      <point x="270" y="475"/>
      <point x="270" y="481"/>
      <point x="269" y="488" type="curve" smooth="yes"/>
      <point x="248" y="680" type="line" smooth="yes"/>
      <point x="247" y="687"/>
      <point x="247" y="694"/>
      <point x="247" y="700" type="curve" smooth="yes"/>
      <point x="247" y="806"/>
      <point x="345" y="836"/>
    </contour>
  </outline>
</glyph>
<glyph name="braceright" format="2">
  <advance width="600"/>
  <unicode hex="007D"/>
  <outline>
    <contour>
      <point x="149" y="836" type="line"/>
      <point x="255" y="836"/>
      <point x="353" y="806"/>
      <point x="353" y="700" type="curve" smooth="yes"/>
      <point x="353" y="694"/>
      <point x="353" y="687"/>
      <point x="352" y="680" type="curve" smooth="yes"/>
      <point x="331" y="488" type="line" smooth="yes"/>
      <point x="330" y="483"/>
      <point x="330" y="478"/>
      <point x="330" y="473" type="curve" smooth="yes"/>
      <point x="330" y="415"/>
      <point x="370" y="384"/>
      <point x="483" y="384" type="curve"/>
      <point x="483" y="316" type="line"/>
      <point x="369" y="316"/>
      <point x="330" y="285"/>
      <point x="330" y="226" type="curve" smooth="yes"/>
      <point x="330" y="221"/>
      <point x="330" y="216"/>
      <point x="331" y="210" type="curve" smooth="yes"/>
      <point x="352" y="20" type="line" smooth="yes"/>
      <point x="353" y="13"/>
      <point x="353" y="6"/>
      <point x="353" y="-0" type="curve" smooth="yes"/>
      <point x="353" y="-106"/>
      <point x="255" y="-136"/>
      <point x="149" y="-136" type="curve"/>
      <point x="149" y="-69" type="line"/>
      <point x="219" y="-69"/>
      <point x="274" y="-54"/>
      <point x="274" y="2" type="curve" smooth="yes"/>
      <point x="274" y="5"/>
      <point x="274" y="8"/>
      <point x="274" y="11" type="curve" smooth="yes"/>
      <point x="254" y="216" type="line" smooth="yes"/>
      <point x="253" y="226"/>
      <point x="252" y="235"/>
      <point x="252" y="243" type="curve" smooth="yes"/>
      <point x="252" y="311"/>
      <point x="285" y="338"/>
      <point x="358" y="349" type="curve"/>
      <point x="287" y="362"/>
      <point x="253" y="393"/>
      <point x="253" y="459" type="curve" smooth="yes"/>
      <point x="253" y="467"/>
      <point x="253" y="475"/>
      <point x="254" y="484" type="curve" smooth="yes"/>
      <point x="274" y="689" type="line" smooth="yes"/>
      <point x="274" y="692"/>
      <point x="274" y="695"/>
      <point x="274" y="698" type="curve" smooth="yes"/>
      <point x="274" y="753"/>
      <point x="219" y="769"/>
      <point x="149" y="769" type="curve"/>
    </contour>
  </outline>
</glyph>
<glyph name="asciitilde" format="2">
  <advance width="600"/>
  <unicode hex="007E"/>
  <outline>
    <contour>
      <point x="205" y="401" type="curve" smooth="yes"/>
      <point x="305" y="401"/>
      <point x="337" y="301"/>
      <point x="398" y="301" type="curve" smooth="yes"/>
      <point x="439" y="301"/>
      <point x="471" y="338"/>
      <point x="497" y="386" type="curve"/>
      <point x="557" y="354" type="line"/>
      <point x="527" y="297"/>
      <point x="483" y="228"/>
      <point x="395" y="228" type="curve" smooth="yes"/>
      <point x="301" y="228"/>
      <point x="266" y="328"/>
      <point x="202" y="328" type="curve" smooth="yes"/>
      <point x="159" y="328"/>
      <point x="129" y="291"/>
      <point x="103" y="243" type="curve"/>
      <point x="43" y="273" type="line"/>
      <point x="73" y="331"/>
      <point x="116" y="401"/>
    </contour>
  </outline>
</glyph>
<glyph name="exclamdown" format="2">
  <advance width="600"/>
  <unicode hex="00A1"/>
  <outline>
    <contour>
      <point x="299" y="499" type="curve" smooth="yes"/>
      <point x="336" y="499"/>
      <point x="366" y="469"/>
      <point x="366" y="431" type="curve" smooth="yes"/>
      <point x="366" y="394"/>
      <point x="336" y="365"/>
      <point x="299" y="365" type="curve" smooth="yes"/>
      <point x="261" y="365"/>
      <point x="232" y="394"/>
      <point x="232" y="431" type="curve" smooth="yes"/>
      <point x="232" y="469"/>
      <point x="261" y="499"/>
    </contour>
    <contour>
      <point x="335" y="260" type="line"/>
      <point x="348" y="-197" type="line"/>
      <point x="251" y="-197" type="line"/>
      <point x="263" y="260" type="line"/>
    </contour>
  </outline>
</glyph>
<glyph name="cent" format="2">
  <advance width="600"/>
  <unicode hex="00A2"/>
  <outline>
    <contour>
      <point x="373" y="683" type="line"/>
      <point x="373" y="533" type="line"/>
      <point x="415" y="528"/>
      <point x="456" y="513"/>
      <point x="494" y="482" type="curve"/>
      <point x="452" y="426" type="line"/>
      <point x="408" y="458"/>
      <point x="375" y="467"/>
      <point x="336" y="467" type="curve" smooth="yes"/>
      <point x="249" y="467"/>
      <point x="197" y="400"/>
      <point x="197" y="261" type="curve" smooth="yes"/>
      <point x="197" y="121"/>
      <point x="250" y="61"/>
      <point x="336" y="61" type="curve" smooth="yes"/>
      <point x="376" y="61"/>
      <point x="410" y="72"/>
      <point x="453" y="106" type="curve"/>
      <point x="494" y="46" type="line"/>
      <point x="456" y="14"/>
      <point x="415" y="-1"/>
      <point x="373" y="-6" type="curve"/>
      <point x="373" y="-153" type="line"/>
      <point x="298" y="-153" type="line"/>
      <point x="298" y="-6" type="line"/>
      <point x="171" y="10"/>
      <point x="106" y="110"/>
      <point x="106" y="261" type="curve" smooth="yes"/>
      <point x="106" y="405"/>
      <point x="171" y="514"/>
      <point x="299" y="532" type="curve"/>
      <point x="299" y="683" type="line"/>
    </contour>
  </outline>
</glyph>
<glyph name="sterling" format="2">
  <advance width="600"/>
  <unicode hex="00A3"/>
  <outline>
    <contour>
      <point x="346" y="700" type="curve" smooth="yes"/>
      <point x="418" y="700"/>
      <point x="481" y="675"/>
      <point x="525" y="613" type="curve"/>
      <point x="469" y="570" type="line"/>
      <point x="435" y="612"/>
      <point x="398" y="629"/>
      <point x="349" y="629" type="curve" smooth="yes"/>
      <point x="278" y="629"/>
      <point x="241" y="588"/>
      <point x="241" y="508" type="curve" smooth="yes"/>
      <point x="241" y="387" type="line"/>
      <point x="447" y="387" type="line"/>
      <point x="447" y="329" type="line"/>
      <point x="241" y="329" type="line"/>
      <point x="241" y="205" type="line" smooth="yes"/>
      <point x="241" y="151"/>
      <point x="231" y="101"/>
      <point x="179" y="72" type="curve"/>
      <point x="517" y="72" type="line"/>
      <point x="507" y="0" type="line"/>
      <point x="75" y="0" type="line"/>
      <point x="75" y="68" type="line"/>
      <point x="154" y="93"/>
      <point x="156" y="139"/>
      <point x="156" y="201" type="curve" smooth="yes"/>
      <point x="156" y="329" type="line"/>
      <point x="74" y="329" type="line"/>
      <point x="74" y="387" type="line"/>
      <point x="156" y="387" type="line"/>
      <point x="156" y="515" type="line" smooth="yes"/>
      <point x="156" y="621"/>
      <point x="227" y="700"/>
    </contour>
  </outline>
</glyph>
<glyph name="currency" format="2">
  <advance width="600"/>
  <unicode hex="00A4"/>
  <outline>
    <contour>
      <point x="89" y="610" type="line"/>
      <point x="177" y="520" type="line"/>
      <point x="212" y="541"/>
      <point x="254" y="553"/>
      <point x="301" y="553" type="curve" smooth="yes"/>
      <point x="347" y="553"/>
      <point x="390" y="542"/>
      <point x="422" y="520" type="curve"/>
      <point x="511" y="609" type="line"/>
      <point x="566" y="555" type="line"/>
      <point x="479" y="467" type="line"/>
      <point x="501" y="434"/>
      <point x="515" y="390"/>
      <point x="515" y="342" type="curve" smooth="yes"/>
      <point x="515" y="292"/>
      <point x="500" y="250"/>
      <point x="478" y="215" type="curve"/>
      <point x="566" y="128" type="line"/>
      <point x="511" y="74" type="line"/>
      <point x="421" y="162" type="line"/>
      <point x="388" y="141"/>
      <point x="347" y="130"/>
      <point x="301" y="130" type="curve" smooth="yes"/>
      <point x="254" y="130"/>
      <point x="212" y="141"/>
      <point x="178" y="162" type="curve"/>
      <point x="89" y="73" type="line"/>
      <point x="34" y="127" type="line"/>
      <point x="123" y="216" type="line"/>
      <point x="101" y="251"/>
      <point x="88" y="293"/>
      <point x="88" y="342" type="curve" smooth="yes"/>
      <point x="88" y="390"/>
      <point x="101" y="432"/>
      <point x="122" y="465" type="curve"/>
      <point x="34" y="556" type="line"/>
    </contour>
    <contour>
      <point x="301" y="486" type="curve" smooth="yes"/>
      <point x="217" y="486"/>
      <point x="173" y="431"/>
      <point x="173" y="342" type="curve" smooth="yes"/>
      <point x="173" y="252"/>
      <point x="217" y="199"/>
      <point x="301" y="199" type="curve" smooth="yes"/>
      <point x="385" y="199"/>
      <point x="428" y="252"/>
      <point x="428" y="342" type="curve" smooth="yes"/>
      <point x="428" y="431"/>
      <point x="385" y="486"/>
    </contour>
  </outline>
</glyph>
<glyph name="yen" format="2">
  <advance width="600"/>
  <unicode hex="00A5"/>
  <outline>
    <contour>
      <point x="561" y="689" type="line"/>
      <point x="367" y="345" type="line"/>
      <point x="486" y="345" type="line"/>
      <point x="486" y="287" type="line"/>
      <point x="344" y="287" type="line"/>
      <point x="344" y="201" type="line"/>
      <point x="486" y="201" type="line"/>
      <point x="486" y="142" type="line"/>
      <point x="344" y="142" type="line"/>
      <point x="344" y="0" type="line"/>
      <point x="256" y="0" type="line"/>
      <point x="256" y="142" type="line"/>
      <point x="116" y="142" type="line"/>
      <point x="116" y="201" type="line"/>
      <point x="256" y="201" type="line"/>
      <point x="256" y="287" type="line"/>
      <point x="116" y="287" type="line"/>
      <point x="116" y="345" type="line"/>
      <point x="232" y="345" type="line"/>
      <point x="39" y="689" type="line"/>
      <point x="135" y="689" type="line"/>
      <point x="301" y="372" type="line"/>
      <point x="305" y="372" type="line"/>
      <point x="472" y="689" type="line"/>
    </contour>
  </outline>
</glyph>
<glyph name="brokenbar" format="2">
  <advance width="600"/>
  <unicode hex="00A6"/>
  <outline>
    <contour>
      <point x="337" y="807" type="line"/>
      <point x="337" y="452" type="line"/>
      <point x="262" y="452" type="line"/>
      <point x="262" y="807" type="line"/>
    </contour>
    <contour>
      <point x="337" y="253" type="line"/>
      <point x="337" y="-102" type="line"/>
      <point x="262" y="-102" type="line"/>
      <point x="262" y="253" type="line"/>
    </contour>
  </outline>
</glyph>
<glyph name="section" format="2">
  <advance width="600"/>
  <unicode hex="00A7"/>
  <outline>
    <contour>
      <point x="317" y="700" type="curve" smooth="yes"/>
      <point x="390" y="700"/>
      <point x="440" y="678"/>
      <point x="484" y="646" type="curve"/>
      <point x="444" y="589" type="line"/>
      <point x="404" y="616"/>
      <point x="368" y="631"/>
      <point x="311" y="631" type="curve" smooth="yes"/>
      <point x="254" y="631"/>
      <point x="216" y="603"/>
      <point x="216" y="561" type="curve" smooth="yes"/>
      <point x="216" y="515"/>
      <point x="239" y="497"/>
      <point x="340" y="462" type="curve" smooth="yes"/>
      <point x="448" y="427"/>
      <point x="493" y="388"/>
      <point x="493" y="310" type="curve" smooth="yes"/>
      <point x="493" y="255"/>
      <point x="457" y="211"/>
      <point x="413" y="184" type="curve"/>
      <point x="449" y="157"/>
      <point x="472" y="123"/>
      <point x="472" y="76" type="curve" smooth="yes"/>
      <point x="472" y="-15"/>
      <point x="392" y="-69"/>
      <point x="279" y="-69" type="curve" smooth="yes"/>
      <point x="206" y="-69"/>
      <point x="151" y="-47"/>
      <point x="108" y="-15" type="curve"/>
      <point x="148" y="42" type="line"/>
      <point x="188" y="14"/>
      <point x="228" y="-1"/>
      <point x="284" y="-1" type="curve" smooth="yes"/>
      <point x="340" y="-1"/>
      <point x="384" y="26"/>
      <point x="384" y="70" type="curve" smooth="yes"/>
      <point x="384" y="115"/>
      <point x="361" y="134"/>
      <point x="260" y="167" type="curve" smooth="yes"/>
      <point x="152" y="203"/>
      <point x="106" y="241"/>
      <point x="106" y="320" type="curve" smooth="yes"/>
      <point x="106" y="374"/>
      <point x="143" y="418"/>
      <point x="187" y="445" type="curve"/>
      <point x="150" y="473"/>
      <point x="128" y="509"/>
      <point x="128" y="554" type="curve" smooth="yes"/>
      <point x="128" y="644"/>
      <point x="213" y="700"/>
    </contour>
    <contour>
      <point x="239" y="416" type="curve"/>
      <point x="207" y="391"/>
      <point x="190" y="359"/>
      <point x="190" y="331" type="curve" smooth="yes"/>
      <point x="190" y="272"/>
      <point x="223" y="263"/>
      <point x="361" y="213" type="curve"/>
      <point x="392" y="238"/>
      <point x="410" y="270"/>
      <point x="410" y="299" type="curve" smooth="yes"/>
      <point x="410" y="355"/>
      <point x="377" y="365"/>
    </contour>
  </outline>
</glyph>
<glyph name="dieresis" format="2">
  <advance width="600"/>
  <unicode hex="00A8"/>
  <outline>
    <contour>
      <point x="196" y="648" type="curve" smooth="yes"/>
      <point x="165" y="648"/>
      <point x="141" y="671"/>
      <point x="141" y="701" type="curve" smooth="yes"/>
      <point x="141" y="733"/>
      <point x="165" y="756"/>
      <point x="196" y="756" type="curve" smooth="yes"/>
      <point x="227" y="756"/>
      <point x="250" y="733"/>
      <point x="250" y="701" type="curve" smooth="yes"/>
      <point x="250" y="671"/>
      <point x="227" y="648"/>
    </contour>
    <contour>
      <point x="403" y="648" type="curve" smooth="yes"/>
      <point x="372" y="648"/>
      <point x="349" y="671"/>
      <point x="349" y="701" type="curve" smooth="yes"/>
      <point x="349" y="733"/>
      <point x="372" y="756"/>
      <point x="403" y="756" type="curve" smooth="yes"/>
      <point x="434" y="756"/>
      <point x="458" y="733"/>
      <point x="458" y="701" type="curve" smooth="yes"/>
      <point x="458" y="671"/>
      <point x="434" y="648"/>
    </contour>
  </outline>
</glyph>
<glyph name="copyright" format="2">
  <advance width="600"/>
  <unicode hex="00A9"/>
  <outline>
    <contour>
      <point x="301" y="747" type="curve" smooth="yes"/>
      <point x="473" y="747"/>
      <point x="571" y="608"/>
      <point x="571" y="435" type="curve" smooth="yes"/>
      <point x="571" y="264"/>
      <point x="473" y="125"/>
      <point x="301" y="125" type="curve" smooth="yes"/>
      <point x="129" y="125"/>
      <point x="29" y="264"/>
      <point x="29" y="435" type="curve" smooth="yes"/>
      <point x="29" y="608"/>
      <point x="128" y="747"/>
    </contour>
    <contour>
      <point x="301" y="697" type="curve" smooth="yes"/>
      <point x="156" y="697"/>
      <point x="85" y="580"/>
      <point x="85" y="435" type="curve" smooth="yes"/>
      <point x="85" y="291"/>
      <point x="156" y="176"/>
      <point x="301" y="176" type="curve" smooth="yes"/>
      <point x="445" y="176"/>
      <point x="516" y="291"/>
      <point x="516" y="435" type="curve" smooth="yes"/>
      <point x="516" y="580"/>
      <point x="445" y="697"/>
    </contour>
    <contour>
      <point x="304" y="625" type="curve" smooth="yes"/>
      <point x="356" y="625"/>
      <point x="386" y="613"/>
      <point x="422" y="586" type="curve"/>
      <point x="386" y="539" type="line"/>
      <point x="360" y="559"/>
      <point x="334" y="569"/>
      <point x="308" y="569" type="curve" smooth="yes"/>
      <point x="255" y="569"/>
      <point x="214" y="531"/>
      <point x="214" y="436" type="curve" smooth="yes"/>
      <point x="214" y="348"/>
      <point x="252" y="307"/>
      <point x="308" y="307" type="curve" smooth="yes"/>
      <point x="344" y="307"/>
      <point x="370" y="320"/>
      <point x="394" y="342" type="curve"/>
      <point x="427" y="294" type="line"/>
      <point x="399" y="269"/>
      <point x="361" y="247"/>
      <point x="305" y="247" type="curve" smooth="yes"/>
      <point x="210" y="247"/>
      <point x="142" y="314"/>
      <point x="142" y="436" type="curve" smooth="yes"/>
      <point x="142" y="560"/>
      <point x="218" y="625"/>
    </contour>
  </outline>
</glyph>
<glyph name="ordfeminine" format="2">
  <advance width="600"/>
  <unicode hex="00AA"/>
  <outline>
    <contour>
      <point x="290" y="749" type="curve" smooth="yes"/>
      <point x="402" y="749"/>
      <point x="456" y="696"/>
      <point x="456" y="609" type="curve" smooth="yes"/>
      <point x="456" y="412" type="line" smooth="yes"/>
      <point x="456" y="382"/>
      <point x="467" y="368"/>
      <point x="490" y="361" type="curve"/>
      <point x="471" y="307" type="line"/>
      <point x="430" y="312"/>
      <point x="402" y="329"/>
      <point x="388" y="366" type="curve"/>
      <point x="355" y="328"/>
      <point x="305" y="307"/>
      <point x="254" y="307" type="curve" smooth="yes"/>
      <point x="163" y="307"/>
      <point x="102" y="360"/>
      <point x="102" y="440" type="curve" smooth="yes"/>
      <point x="102" y="528"/>
      <point x="183" y="577"/>
      <point x="319" y="577" type="curve" smooth="yes"/>
      <point x="378" y="577" type="line"/>
      <point x="378" y="606" type="line" smooth="yes"/>
      <point x="378" y="662"/>
      <point x="341" y="685"/>
      <point x="279" y="685" type="curve" smooth="yes"/>
      <point x="250" y="685"/>
      <point x="205" y="678"/>
      <point x="157" y="660" type="curve"/>
      <point x="134" y="719" type="line"/>
      <point x="193" y="741"/>
      <point x="245" y="749"/>
    </contour>
    <contour>
      <point x="378" y="520" type="line"/>
      <point x="320" y="520" type="line" smooth="yes"/>
      <point x="226" y="520"/>
      <point x="187" y="492"/>
      <point x="187" y="444" type="curve" smooth="yes"/>
      <point x="187" y="393"/>
      <point x="218" y="367"/>
      <point x="273" y="367" type="curve" smooth="yes"/>
      <point x="313" y="367"/>
      <point x="352" y="388"/>
      <point x="378" y="423" type="curve"/>
    </contour>
    <contour>
      <point x="498" y="75" type="line"/>
      <point x="498" y="0" type="line"/>
      <point x="106" y="0" type="line"/>
      <point x="106" y="75" type="line"/>
    </contour>
  </outline>
</glyph>
<glyph name="guillemotleft" format="2">
  <advance width="600"/>
  <unicode hex="00AB"/>
  <outline>
    <contour>
      <point x="309" y="87" type="line"/>
      <point x="258" y="55" type="line"/>
      <point x="82" y="263" type="line"/>
      <point x="82" y="324" type="line"/>
      <point x="258" y="532" type="line"/>
      <point x="309" y="500" type="line"/>
      <point x="173" y="294" type="line"/>
    </contour>
    <contour>
      <point x="517" y="87" type="line"/>
      <point x="466" y="55" type="line"/>
      <point x="289" y="263" type="line"/>
      <point x="289" y="324" type="line"/>
      <point x="466" y="532" type="line"/>
      <point x="517" y="500" type="line"/>
      <point x="381" y="294" type="line"/>
    </contour>
  </outline>
</glyph>
<glyph name="logicalnot" format="2">
  <advance width="600"/>
  <unicode hex="00AC"/>
  <outline>
    <contour>
      <point x="484" y="348" type="line"/>
      <point x="484" y="134" type="line"/>
      <point x="407" y="134" type="line"/>
      <point x="407" y="276" type="line"/>
      <point x="116" y="276" type="line"/>
      <point x="116" y="348" type="line"/>
    </contour>
  </outline>
</glyph>
<glyph name="registered" format="2">
  <advance width="600"/>
  <unicode hex="00AE"/>
  <outline>
    <contour>
      <point x="300" y="747" type="curve" smooth="yes"/>
      <point x="440" y="747"/>
      <point x="553" y="632"/>
      <point x="553" y="492" type="curve" smooth="yes"/>
      <point x="553" y="351"/>
      <point x="440" y="239"/>
      <point x="300" y="239" type="curve" smooth="yes"/>
      <point x="160" y="239"/>
      <point x="46" y="351"/>
      <point x="46" y="492" type="curve" smooth="yes"/>
      <point x="46" y="632"/>
      <point x="160" y="747"/>
    </contour>
    <contour>
      <point x="300" y="700" type="curve" smooth="yes"/>
      <point x="185" y="700"/>
      <point x="99" y="606"/>
      <point x="99" y="492" type="curve" smooth="yes"/>
      <point x="99" y="377"/>
      <point x="185" y="286"/>
      <point x="300" y="286" type="curve" smooth="yes"/>
      <point x="415" y="286"/>
      <point x="500" y="377"/>
      <point x="500" y="492" type="curve" smooth="yes"/>
      <point x="500" y="606"/>
      <point x="415" y="700"/>
    </contour>
    <contour>
      <point x="286" y="636" type="line" smooth="yes"/>
      <point x="368" y="636"/>
      <point x="408" y="607"/>
      <point x="408" y="551" type="curve" smooth="yes"/>
      <point x="408" y="509"/>
      <point x="380" y="483"/>
      <point x="341" y="472" type="curve"/>
      <point x="427" y="354" type="line"/>
      <point x="361" y="354" type="line"/>
      <point x="286" y="463" type="line"/>
      <point x="257" y="463" type="line"/>
      <point x="257" y="354" type="line"/>
      <point x="201" y="354" type="line"/>
      <point x="201" y="636" type="line"/>
    </contour>
    <contour>
      <point x="287" y="592" type="curve" smooth="yes"/>
      <point x="257" y="592" type="line"/>
      <point x="257" y="506" type="line"/>
      <point x="289" y="506" type="line" smooth="yes"/>
      <point x="328" y="506"/>
      <point x="350" y="519"/>
      <point x="350" y="551" type="curve" smooth="yes"/>
      <point x="350" y="578"/>
      <point x="331" y="592"/>
    </contour>
  </outline>
</glyph>
<glyph name="macron" format="2">
  <advance width="600"/>
  <unicode hex="00AF"/>
  <outline>
    <contour>
      <point x="434" y="676" type="line"/>
      <point x="165" y="676" type="line"/>
      <point x="165" y="740" type="line"/>
      <point x="434" y="740" type="line"/>
    </contour>
  </outline>
</glyph>
<glyph name="degree" format="2">
  <advance width="600"/>
  <unicode hex="00B0"/>
  <outline>
    <contour>
      <point x="228" y="749" type="curve" smooth="yes"/>
      <point x="311" y="749"/>
      <point x="390" y="693"/>
      <point x="390" y="592" type="curve" smooth="yes"/>
      <point x="390" y="492"/>
      <point x="311" y="436"/>
      <point x="228" y="436" type="curve" smooth="yes"/>
      <point x="145" y="436"/>
      <point x="65" y="492"/>
      <point x="65" y="593" type="curve" smooth="yes"/>
      <point x="65" y="693"/>
      <point x="145" y="749"/>
    </contour>
    <contour>
      <point x="228" y="689" type="curve" smooth="yes"/>
      <point x="182" y="689"/>
      <point x="139" y="659"/>
      <point x="139" y="593" type="curve" smooth="yes"/>
      <point x="139" y="526"/>
      <point x="182" y="495"/>
      <point x="228" y="495" type="curve" smooth="yes"/>
      <point x="274" y="495"/>
      <point x="317" y="526"/>
      <point x="317" y="592" type="curve" smooth="yes"/>
      <point x="317" y="658"/>
      <point x="274" y="689"/>
    </contour>
  </outline>
</glyph>
<glyph name="plusminus" format="2">
  <advance width="600"/>
  <unicode hex="00B1"/>
  <outline>
    <contour>
      <point x="340" y="538" type="line"/>
      <point x="340" y="389" type="line"/>
      <point x="484" y="389" type="line"/>
      <point x="484" y="318" type="line"/>
      <point x="340" y="318" type="line"/>
      <point x="340" y="163" type="line"/>
      <point x="260" y="163" type="line"/>
      <point x="260" y="318" type="line"/>
      <point x="116" y="318" type="line"/>
      <point x="116" y="389" type="line"/>
      <point x="260" y="389" type="line"/>
      <point x="260" y="538" type="line"/>
    </contour>
    <contour>
      <point x="484" y="73" type="line"/>
      <point x="484" y="0" type="line"/>
      <point x="116" y="0" type="line"/>
      <point x="116" y="73" type="line"/>
    </contour>
  </outline>
</glyph>
<glyph name="uni00B2" format="2">
  <advance width="600"/>
  <unicode hex="00B2"/>
  <outline>
    <contour>
      <point x="435" y="536" type="curve" smooth="yes"/>
      <point x="435" y="472"/>
      <point x="392" y="438"/>
      <point x="266" y="376" type="curve"/>
      <point x="445" y="376" type="line"/>
      <point x="436" y="315" type="line"/>
      <point x="159" y="315" type="line"/>
      <point x="159" y="368" type="line"/>
      <point x="319" y="465"/>
      <point x="359" y="489"/>
      <point x="359" y="533" type="curve" smooth="yes"/>
      <point x="359" y="563"/>
      <point x="337" y="581"/>
      <point x="300" y="581" type="curve" smooth="yes"/>
      <point x="267" y="581"/>
      <point x="235" y="569"/>
      <point x="205" y="533" type="curve"/>
      <point x="154" y="572" type="line"/>
      <point x="194" y="618"/>
      <point x="246" y="642"/>
      <point x="302" y="642" type="curve" smooth="yes"/>
      <point x="387" y="642"/>
      <point x="435" y="598"/>
    </contour>
  </outline>
</glyph>
<glyph name="uni00B3" format="2">
  <advance width="600"/>
  <unicode hex="00B3"/>
  <outline>
    <contour>
      <point x="308" y="642" type="curve" smooth="yes"/>
      <point x="389" y="642"/>
      <point x="438" y="607"/>
      <point x="438" y="553" type="curve" smooth="yes"/>
      <point x="438" y="517"/>
      <point x="420" y="495"/>
      <point x="367" y="486" type="curve"/>
      <point x="424" y="477"/>
      <point x="452" y="458"/>
      <point x="452" y="410" type="curve" smooth="yes"/>
      <point x="452" y="350"/>
      <point x="396" y="309"/>
      <point x="298" y="309" type="curve" smooth="yes"/>
      <point x="245" y="309"/>
      <point x="188" y="325"/>
      <point x="147" y="367" type="curve"/>
      <point x="193" y="406" type="line"/>
      <point x="224" y="378"/>
      <point x="263" y="366"/>
      <point x="301" y="366" type="curve" smooth="yes"/>
      <point x="353" y="366"/>
      <point x="377" y="384"/>
      <point x="377" y="412" type="curve" smooth="yes"/>
      <point x="377" y="446"/>
      <point x="352" y="459"/>
      <point x="305" y="459" type="curve" smooth="yes"/>
      <point x="259" y="459" type="line"/>
      <point x="266" y="502" type="line"/>
      <point x="301" y="502" type="line" smooth="yes"/>
      <point x="340" y="502"/>
      <point x="365" y="513"/>
      <point x="365" y="543" type="curve" smooth="yes"/>
      <point x="365" y="572"/>
      <point x="344" y="587"/>
      <point x="303" y="587" type="curve" smooth="yes"/>
      <point x="267" y="587"/>
      <point x="233" y="575"/>
      <point x="199" y="549" type="curve"/>
      <point x="159" y="590" type="line"/>
      <point x="206" y="628"/>
      <point x="255" y="642"/>
    </contour>
  </outline>
</glyph>
<glyph name="uni00B5" format="2">
  <advance width="600"/>
  <unicode hex="00B5"/>
  <outline>
    <contour>
      <point x="484" y="527" type="line"/>
      <point x="484" y="168" type="line" smooth="yes"/>
      <point x="484" y="99"/>
      <point x="499" y="40"/>
      <point x="511" y="0" type="curve"/>
      <point x="432" y="-12" type="line"/>
      <point x="422" y="6"/>
      <point x="411" y="48"/>
      <point x="408" y="73" type="curve"/>
      <point x="377" y="22"/>
      <point x="320" y="-12"/>
      <point x="267" y="-12" type="curve" smooth="yes"/>
      <point x="213" y="-12"/>
      <point x="189" y="2"/>
      <point x="163" y="39" type="curve"/>
      <point x="168" y="3"/>
      <point x="172" y="-28"/>
      <point x="172" y="-49" type="curve" smooth="yes"/>
      <point x="172" y="-202" type="line"/>
      <point x="88" y="-212" type="line"/>
      <point x="88" y="527" type="line"/>
      <point x="172" y="527" type="line"/>
      <point x="172" y="231" type="line" smooth="yes"/>
      <point x="172" y="126"/>
      <point x="181" y="63"/>
      <point x="261" y="63" type="curve" smooth="yes"/>
      <point x="324" y="63"/>
      <point x="370" y="100"/>
      <point x="400" y="142" type="curve"/>
      <point x="400" y="527" type="line"/>
    </contour>
  </outline>
</glyph>
<glyph name="paragraph" format="2">
  <advance width="600"/>
  <unicode hex="00B6"/>
  <outline>
    <contour>
      <point x="556" y="689" type="line"/>
      <point x="556" y="-201" type="line"/>
      <point x="479" y="-212" type="line"/>
      <point x="479" y="619" type="line"/>
      <point x="367" y="619" type="line"/>
      <point x="367" y="-201" type="line"/>
      <point x="290" y="-212" type="line"/>
      <point x="290" y="289" type="line"/>
      <point x="126" y="289"/>
      <point x="43" y="377"/>
      <point x="43" y="487" type="curve" smooth="yes"/>
      <point x="43" y="600"/>
      <point x="130" y="689"/>
      <point x="297" y="689" type="curve" smooth="yes"/>
    </contour>
  </outline>
</glyph>
<glyph name="periodcentered" format="2">
  <advance width="600"/>
  <unicode hex="00B7"/>
  <outline>
    <contour>
      <point x="211" y="342" type="curve" smooth="yes"/>
      <point x="211" y="391"/>
      <point x="249" y="429"/>
      <point x="299" y="429" type="curve" smooth="yes"/>
      <point x="350" y="429"/>
      <point x="387" y="391"/>
      <point x="387" y="342" type="curve" smooth="yes"/>
      <point x="387" y="292"/>
      <point x="350" y="253"/>
      <point x="299" y="253" type="curve" smooth="yes"/>
      <point x="249" y="253"/>
      <point x="211" y="292"/>
    </contour>
  </outline>
</glyph>
<glyph name="cedilla" format="2">
  <advance width="600"/>
  <unicode hex="00B8"/>
  <outline>
    <contour>
      <point x="340" y="-141" type="curve" smooth="yes"/>
      <point x="340" y="-104"/>
      <point x="307" y="-97"/>
      <point x="254" y="-97" type="curve"/>
      <point x="262" y="16" type="line"/>
      <point x="320" y="16" type="line"/>
      <point x="320" y="-57" type="line"/>
      <point x="385" y="-63"/>
      <point x="413" y="-101"/>
      <point x="413" y="-140" type="curve" smooth="yes"/>
      <point x="413" y="-206"/>
      <point x="355" y="-238"/>
      <point x="291" y="-238" type="curve" smooth="yes"/>
      <point x="251" y="-238"/>
      <point x="212" y="-229"/>
      <point x="186" y="-214" type="curve"/>
      <point x="213" y="-166" type="line"/>
      <point x="232" y="-176"/>
      <point x="258" y="-182"/>
      <point x="280" y="-182" type="curve" smooth="yes"/>
      <point x="316" y="-182"/>
      <point x="340" y="-170"/>
    </contour>
  </outline>
</glyph>
<glyph name="uni00B9" format="2">
  <advance width="600"/>
  <unicode hex="00B9"/>
  <outline>
    <contour>
      <point x="364" y="315" type="line"/>
      <point x="364" y="554" type="line"/>
      <point x="268" y="502" type="line"/>
      <point x="233" y="551" type="line"/>
      <point x="378" y="636" type="line"/>
      <point x="435" y="636" type="line"/>
      <point x="435" y="315" type="line"/>
    </contour>
  </outline>
</glyph>
<glyph name="ordmasculine" format="2">
  <advance width="600"/>
  <unicode hex="00BA"/>
  <outline>
    <contour>
      <point x="300" y="749" type="curve" smooth="yes"/>
      <point x="425" y="749"/>
      <point x="503" y="663"/>
      <point x="503" y="529" type="curve" smooth="yes"/>
      <point x="503" y="398"/>
      <point x="423" y="307"/>
      <point x="300" y="307" type="curve" smooth="yes"/>
      <point x="176" y="307"/>
      <point x="96" y="395"/>
      <point x="96" y="529" type="curve" smooth="yes"/>
      <point x="96" y="659"/>
      <point x="177" y="749"/>
    </contour>
    <contour>
      <point x="300" y="685" type="curve" smooth="yes"/>
      <point x="227" y="685"/>
      <point x="180" y="635"/>
      <point x="180" y="529" type="curve" smooth="yes"/>
      <point x="180" y="421"/>
      <point x="227" y="372"/>
      <point x="300" y="372" type="curve" smooth="yes"/>
      <point x="373" y="372"/>
      <point x="419" y="421"/>
      <point x="419" y="529" type="curve" smooth="yes"/>
      <point x="419" y="635"/>
      <point x="373" y="685"/>
    </contour>
    <contour>
      <point x="497" y="75" type="line"/>
      <point x="497" y="0" type="line"/>
      <point x="104" y="0" type="line"/>
      <point x="104" y="75" type="line"/>
    </contour>
  </outline>
</glyph>
<glyph name="guillemotright" format="2">
  <advance width="600"/>
  <unicode hex="00BB"/>
  <outline>
    <contour>
      <point x="217" y="294" type="line"/>
      <point x="82" y="500" type="line"/>
      <point x="133" y="532" type="line"/>
      <point x="309" y="324" type="line"/>
      <point x="309" y="263" type="line"/>
      <point x="133" y="55" type="line"/>
      <point x="82" y="87" type="line"/>
    </contour>
    <contour>
      <point x="424" y="294" type="line"/>
      <point x="289" y="500" type="line"/>
      <point x="340" y="532" type="line"/>
      <point x="517" y="324" type="line"/>
      <point x="517" y="263" type="line"/>
      <point x="340" y="55" type="line"/>
      <point x="289" y="87" type="line"/>
    </contour>
  </outline>
</glyph>
<glyph name="onequarter" format="2">
  <advance width="600"/>
  <unicode hex="00BC"/>
  <outline>
    <contour>
      <point x="129" y="368" type="line"/>
      <point x="129" y="607" type="line"/>
      <point x="33" y="555" type="line"/>
      <point x="-2" y="604" type="line"/>
      <point x="143" y="689" type="line"/>
      <point x="200" y="689" type="line"/>
      <point x="200" y="368" type="line"/>
    </contour>
    <contour>
      <point x="45" y="184" type="line"/>
      <point x="14" y="238" type="line"/>
      <point x="549" y="494" type="line"/>
      <point x="579" y="440" type="line"/>
    </contour>
    <contour>
      <point x="546" y="56" type="line"/>
      <point x="546" y="0" type="line"/>
      <point x="473" y="0" type="line"/>
      <point x="473" y="56" type="line"/>
      <point x="295" y="56" type="line"/>
      <point x="295" y="104" type="line"/>
      <point x="430" y="331" type="line"/>
      <point x="492" y="306" type="line"/>
      <point x="377" y="115" type="line"/>
      <point x="473" y="115" type="line"/>
      <point x="479" y="201" type="line"/>
      <point x="546" y="201" type="line"/>
      <point x="546" y="115" type="line"/>
      <point x="601" y="115" type="line"/>
      <point x="601" y="56" type="line"/>
    </contour>
  </outline>
</glyph>
<glyph name="onehalf" format="2">
  <advance width="600"/>
  <unicode hex="00BD"/>
  <outline>
    <contour>
      <point x="126" y="368" type="line"/>
      <point x="126" y="607" type="line"/>
      <point x="30" y="555" type="line"/>
      <point x="-5" y="604" type="line"/>
      <point x="140" y="689" type="line"/>
      <point x="197" y="689" type="line"/>
      <point x="197" y="368" type="line"/>
    </contour>
    <contour>
      <point x="41" y="184" type="line"/>
      <point x="10" y="238" type="line"/>
      <point x="545" y="494" type="line"/>
      <point x="575" y="440" type="line"/>
    </contour>
    <contour>
      <point x="595" y="221" type="curve" smooth="yes"/>
      <point x="595" y="157"/>
      <point x="551" y="123"/>
      <point x="426" y="61" type="curve"/>
      <point x="604" y="61" type="line"/>
      <point x="596" y="0" type="line"/>
      <point x="319" y="0" type="line"/>
      <point x="319" y="53" type="line"/>
      <point x="478" y="150"/>
      <point x="518" y="174"/>
      <point x="518" y="218" type="curve" smooth="yes"/>
      <point x="518" y="248"/>
      <point x="496" y="266"/>
      <point x="459" y="266" type="curve" smooth="yes"/>
      <point x="426" y="266"/>
      <point x="394" y="254"/>
      <point x="364" y="218" type="curve"/>
      <point x="313" y="257" type="line"/>
      <point x="353" y="303"/>
      <point x="405" y="327"/>
      <point x="462" y="327" type="curve" smooth="yes"/>
      <point x="547" y="327"/>
      <point x="595" y="283"/>
    </contour>
  </outline>
</glyph>
<glyph name="threequarters" format="2">
  <advance width="600"/>
  <unicode hex="00BE"/>
  <outline>
    <contour>
      <point x="158" y="695" type="curve" smooth="yes"/>
      <point x="239" y="695"/>
      <point x="288" y="660"/>
      <point x="288" y="606" type="curve" smooth="yes"/>
      <point x="288" y="570"/>
      <point x="270" y="548"/>
      <point x="217" y="539" type="curve"/>
      <point x="274" y="530"/>
      <point x="302" y="511"/>
      <point x="302" y="463" type="curve" smooth="yes"/>
      <point x="302" y="403"/>
      <point x="246" y="362"/>
      <point x="148" y="362" type="curve" smooth="yes"/>
      <point x="95" y="362"/>
      <point x="38" y="378"/>
      <point x="-3" y="420" type="curve"/>
      <point x="43" y="459" type="line"/>
      <point x="74" y="431"/>
      <point x="113" y="419"/>
      <point x="151" y="419" type="curve" smooth="yes"/>
      <point x="203" y="419"/>
      <point x="227" y="437"/>
      <point x="227" y="465" type="curve" smooth="yes"/>
      <point x="227" y="499"/>
      <point x="202" y="512"/>
      <point x="155" y="512" type="curve" smooth="yes"/>
      <point x="109" y="512" type="line"/>
      <point x="116" y="555" type="line"/>
      <point x="151" y="555" type="line" smooth="yes"/>
      <point x="190" y="555"/>
      <point x="215" y="566"/>
      <point x="215" y="596" type="curve" smooth="yes"/>
      <point x="215" y="625"/>
      <point x="194" y="640"/>
      <point x="153" y="640" type="curve" smooth="yes"/>
      <point x="117" y="640"/>
      <point x="83" y="628"/>
      <point x="49" y="602" type="curve"/>
      <point x="9" y="643" type="line"/>
      <point x="56" y="681"/>
      <point x="105" y="695"/>
    </contour>
    <contour>
      <point x="54" y="184" type="line"/>
      <point x="23" y="238" type="line"/>
      <point x="558" y="494" type="line"/>
      <point x="588" y="440" type="line"/>
    </contour>
    <contour>
      <point x="547" y="56" type="line"/>
      <point x="547" y="0" type="line"/>
      <point x="475" y="0" type="line"/>
      <point x="475" y="56" type="line"/>
      <point x="296" y="56" type="line"/>
      <point x="296" y="104" type="line"/>
      <point x="432" y="331" type="line"/>
      <point x="493" y="306" type="line"/>
      <point x="378" y="115" type="line"/>
      <point x="475" y="115" type="line"/>
      <point x="481" y="201" type="line"/>
      <point x="547" y="201" type="line"/>
      <point x="547" y="115" type="line"/>
      <point x="603" y="115" type="line"/>
      <point x="603" y="56" type="line"/>
    </contour>
  </outline>
</glyph>
<glyph name="questiondown" format="2">
  <advance width="600"/>
  <unicode hex="00BF"/>
  <outline>
    <contour>
      <point x="324" y="499" type="curve" smooth="yes"/>
      <point x="361" y="499"/>
      <point x="391" y="469"/>
      <point x="391" y="431" type="curve" smooth="yes"/>
      <point x="391" y="394"/>
      <point x="361" y="365"/>
      <point x="324" y="365" type="curve" smooth="yes"/>
      <point x="286" y="365"/>
      <point x="257" y="394"/>
      <point x="257" y="431" type="curve" smooth="yes"/>
      <point x="257" y="469"/>
      <point x="286" y="499"/>
    </contour>
    <contour>
      <point x="370" y="260" type="line"/>
      <point x="370" y="222" type="line" smooth="yes"/>
      <point x="370" y="59"/>
      <point x="192" y="61"/>
      <point x="192" y="-52" type="curve" smooth="yes"/>
      <point x="192" y="-110"/>
      <point x="243" y="-142"/>
      <point x="310" y="-142" type="curve" smooth="yes"/>
      <point x="358" y="-142"/>
      <point x="411" y="-120"/>
      <point x="452" y="-68" type="curve"/>
      <point x="512" y="-113" type="line"/>
      <point x="454" y="-181"/>
      <point x="383" y="-212"/>
      <point x="302" y="-212" type="curve" smooth="yes"/>
      <point x="179" y="-212"/>
      <point x="105" y="-136"/>
      <point x="105" y="-57" type="curve" smooth="yes"/>
      <point x="105" y="102"/>
      <point x="285" y="80"/>
      <point x="285" y="226" type="curve" smooth="yes"/>
      <point x="285" y="260" type="line"/>
    </contour>
  </outline>
</glyph>
<glyph name="Atilde" format="2">
  <advance width="600"/>
  <unicode hex="00C3"/>
  <outline>
    <contour>
      <point x="358" y="778" type="curve" smooth="yes"/>
      <point x="306" y="778"/>
      <point x="278" y="826"/>
      <point x="242" y="826" type="curve" smooth="yes"/>
      <point x="219" y="826"/>
      <point x="205" y="810"/>
      <point x="189" y="780" type="curve"/>
      <point x="136" y="806" type="line"/>
      <point x="159" y="854"/>
      <point x="194" y="891"/>
      <point x="242" y="891" type="curve" smooth="yes"/>
      <point x="298" y="891"/>
      <point x="321" y="842"/>
      <point x="358" y="842" type="curve" smooth="yes"/>
      <point x="378" y="842"/>
      <point x="393" y="856"/>
      <point x="411" y="887" type="curve"/>
      <point x="465" y="860" type="line"/>
      <point x="439" y="804"/>
      <point x="401" y="778"/>
    </contour>
    <contour>
      <point x="434" y="176" type="line"/>
      <point x="161" y="176" type="line"/>
      <point x="106" y="0" type="line"/>
      <point x="20" y="0" type="line"/>
      <point x="245" y="689" type="line"/>
      <point x="355" y="689" type="line"/>
      <point x="579" y="0" type="line"/>
      <point x="489" y="0" type="line"/>
    </contour>
    <contour>
      <point x="184" y="248" type="line"/>
      <point x="411" y="248" type="line"/>
      <point x="298" y="615" type="line"/>
    </contour>
  </outline>
</glyph>
<glyph name="Adieresis" format="2">
  <advance width="600"/>
  <unicode hex="00C4"/>
  <outline>
    <contour>
      <point x="196" y="767" type="curve" smooth="yes"/>
      <point x="165" y="767"/>
      <point x="141" y="790"/>
      <point x="141" y="820" type="curve" smooth="yes"/>
      <point x="141" y="852"/>
      <point x="165" y="875"/>
      <point x="196" y="875" type="curve" smooth="yes"/>
      <point x="227" y="875"/>
      <point x="250" y="852"/>
      <point x="250" y="820" type="curve" smooth="yes"/>
      <point x="250" y="790"/>
      <point x="227" y="767"/>
    </contour>
    <contour>
      <point x="403" y="767" type="curve" smooth="yes"/>
      <point x="372" y="767"/>
      <point x="349" y="790"/>
      <point x="349" y="820" type="curve" smooth="yes"/>
      <point x="349" y="852"/>
      <point x="372" y="875"/>
      <point x="403" y="875" type="curve" smooth="yes"/>
      <point x="434" y="875"/>
      <point x="458" y="852"/>
      <point x="458" y="820" type="curve" smooth="yes"/>
      <point x="458" y="790"/>
      <point x="434" y="767"/>
    </contour>
    <contour>
      <point x="434" y="176" type="line"/>
      <point x="161" y="176" type="line"/>
      <point x="106" y="0" type="line"/>
      <point x="20" y="0" type="line"/>
      <point x="245" y="689" type="line"/>
      <point x="355" y="689" type="line"/>
      <point x="579" y="0" type="line"/>
      <point x="489" y="0" type="line"/>
    </contour>
    <contour>
      <point x="184" y="248" type="line"/>
      <point x="411" y="248" type="line"/>
      <point x="298" y="615" type="line"/>
    </contour>
  </outline>
</glyph>
<glyph name="Aring" format="2">
  <advance width="600"/>
  <unicode hex="00C5"/>
  <outline>
    <contour>
      <point x="300" y="943" type="curve" smooth="yes"/>
      <point x="365" y="943"/>
      <point x="411" y="897"/>
      <point x="411" y="840" type="curve" smooth="yes"/>
      <point x="411" y="783"/>
      <point x="365" y="738"/>
      <point x="300" y="738" type="curve" smooth="yes"/>
      <point x="235" y="738"/>
      <point x="189" y="783"/>
      <point x="189" y="840" type="curve" smooth="yes"/>
      <point x="189" y="897"/>
      <point x="235" y="943"/>
    </contour>
    <contour>
      <point x="300" y="896" type="curve" smooth="yes"/>
      <point x="267" y="896"/>
      <point x="246" y="875"/>
      <point x="246" y="840" type="curve" smooth="yes"/>
      <point x="246" y="804"/>
      <point x="267" y="783"/>
      <point x="300" y="783" type="curve" smooth="yes"/>
      <point x="334" y="783"/>
      <point x="354" y="804"/>
      <point x="354" y="840" type="curve" smooth="yes"/>
      <point x="354" y="875"/>
      <point x="334" y="896"/>
    </contour>
    <contour>
      <point x="434" y="176" type="line"/>
      <point x="161" y="176" type="line"/>
      <point x="106" y="0" type="line"/>
      <point x="20" y="0" type="line"/>
      <point x="245" y="689" type="line"/>
      <point x="355" y="689" type="line"/>
      <point x="579" y="0" type="line"/>
      <point x="489" y="0" type="line"/>
    </contour>
    <contour>
      <point x="184" y="248" type="line"/>
      <point x="411" y="248" type="line"/>
      <point x="298" y="615" type="line"/>
    </contour>
  </outline>
</glyph>
<glyph name="Ccedilla" format="2">
  <advance width="600"/>
  <unicode hex="00C7"/>
  <outline>
    <contour>
      <point x="370" y="-57" type="line"/>
      <point x="435" y="-63"/>
      <point x="463" y="-101"/>
      <point x="463" y="-140" type="curve" smooth="yes"/>
      <point x="463" y="-206"/>
      <point x="405" y="-238"/>
      <point x="341" y="-238" type="curve" smooth="yes"/>
      <point x="301" y="-238"/>
      <point x="262" y="-229"/>
      <point x="236" y="-214" type="curve"/>
      <point x="263" y="-166" type="line"/>
      <point x="282" y="-176"/>
      <point x="308" y="-182"/>
      <point x="330" y="-182" type="curve" smooth="yes"/>
      <point x="366" y="-182"/>
      <point x="390" y="-170"/>
      <point x="390" y="-141" type="curve" smooth="yes"/>
      <point x="390" y="-104"/>
      <point x="357" y="-97"/>
      <point x="304" y="-97" type="curve"/>
      <point x="310" y="-7" type="line"/>
      <point x="168" y="16"/>
      <point x="63" y="138"/>
      <point x="63" y="345" type="curve" smooth="yes"/>
      <point x="63" y="577"/>
      <point x="199" y="700"/>
      <point x="358" y="700" type="curve" smooth="yes"/>
      <point x="448" y="700"/>
      <point x="503" y="676"/>
      <point x="558" y="633" type="curve"/>
      <point x="509" y="576" type="line"/>
      <point x="465" y="613"/>
      <point x="417" y="627"/>
      <point x="364" y="627" type="curve" smooth="yes"/>
      <point x="252" y="627"/>
      <point x="154" y="555"/>
      <point x="154" y="345" type="curve" smooth="yes"/>
      <point x="154" y="140"/>
      <point x="245" y="63"/>
      <point x="363" y="63" type="curve" smooth="yes"/>
      <point x="440" y="63"/>
      <point x="486" y="91"/>
      <point x="523" y="120" type="curve"/>
      <point x="568" y="64" type="line"/>
      <point x="527" y="24"/>
      <point x="463" y="-9"/>
      <point x="370" y="-11" type="curve"/>
    </contour>
  </outline>
</glyph>
<glyph name="Eacute" format="2">
  <advance width="600"/>
  <unicode hex="00C9"/>
  <outline>
    <contour>
      <point x="404" y="906" type="line"/>
      <point x="441" y="834" type="line"/>
      <point x="228" y="755" type="line"/>
      <point x="206" y="801" type="line"/>
    </contour>
    <contour>
      <point x="212" y="617" type="line"/>
      <point x="212" y="385" type="line"/>
      <point x="468" y="385" type="line"/>
      <point x="468" y="314" type="line"/>
      <point x="212" y="314" type="line"/>
      <point x="212" y="70" type="line"/>
      <point x="526" y="70" type="line"/>
      <point x="526" y="0" type="line"/>
      <point x="126" y="0" type="line"/>
      <point x="126" y="689" type="line"/>
      <point x="517" y="689" type="line"/>
      <point x="507" y="617" type="line"/>
    </contour>
  </outline>
</glyph>
<glyph name="Idieresis" format="2">
  <advance width="600"/>
  <unicode hex="00CF"/>
  <outline>
    <contour>
      <point x="196" y="767" type="curve" smooth="yes"/>
      <point x="165" y="767"/>
      <point x="141" y="790"/>
      <point x="141" y="820" type="curve" smooth="yes"/>
      <point x="141" y="852"/>
      <point x="165" y="875"/>
      <point x="196" y="875" type="curve" smooth="yes"/>
      <point x="227" y="875"/>
      <point x="250" y="852"/>
      <point x="250" y="820" type="curve" smooth="yes"/>
      <point x="250" y="790"/>
      <point x="227" y="767"/>
    </contour>
    <contour>
      <point x="403" y="767" type="curve" smooth="yes"/>
      <point x="372" y="767"/>
      <point x="349" y="790"/>
      <point x="349" y="820" type="curve" smooth="yes"/>
      <point x="349" y="852"/>
      <point x="372" y="875"/>
      <point x="403" y="875" type="curve" smooth="yes"/>
      <point x="434" y="875"/>
      <point x="458" y="852"/>
      <point x="458" y="820" type="curve" smooth="yes"/>
      <point x="458" y="790"/>
      <point x="434" y="767"/>
    </contour>
    <contour>
      <point x="497" y="689" type="line"/>
      <point x="497" y="619" type="line"/>
      <point x="344" y="619" type="line"/>
      <point x="344" y="69" type="line"/>
      <point x="497" y="69" type="line"/>
      <point x="497" y="0" type="line"/>
      <point x="103" y="0" type="line"/>
      <point x="103" y="69" type="line"/>
      <point x="256" y="69" type="line"/>
      <point x="256" y="619" type="line"/>
      <point x="103" y="619" type="line"/>
      <point x="103" y="689" type="line"/>
    </contour>
  </outline>
</glyph>
<glyph name="Ntilde" format="2">
  <advance width="600"/>
  <unicode hex="00D1"/>
  <outline>
    <contour>
      <point x="356" y="778" type="curve" smooth="yes"/>
      <point x="304" y="778"/>
      <point x="276" y="826"/>
      <point x="240" y="826" type="curve" smooth="yes"/>
      <point x="217" y="826"/>
      <point x="203" y="810"/>
      <point x="187" y="780" type="curve"/>
      <point x="134" y="806" type="line"/>
      <point x="157" y="854"/>
      <point x="192" y="891"/>
      <point x="240" y="891" type="curve" smooth="yes"/>
      <point x="296" y="891"/>
      <point x="319" y="842"/>
      <point x="356" y="842" type="curve" smooth="yes"/>
      <point x="376" y="842"/>
      <point x="391" y="856"/>
      <point x="409" y="887" type="curve"/>
      <point x="463" y="860" type="line"/>
      <point x="437" y="804"/>
      <point x="399" y="778"/>
    </contour>
    <contour>
      <point x="395" y="0" type="line"/>
      <point x="152" y="605" type="line"/>
      <point x="154" y="575"/>
      <point x="164" y="451"/>
      <point x="164" y="345" type="curve" smooth="yes"/>
      <point x="164" y="0" type="line"/>
      <point x="83" y="0" type="line"/>
      <point x="83" y="689" type="line"/>
      <point x="201" y="689" type="line"/>
      <point x="448" y="81" type="line"/>
      <point x="447" y="109"/>
      <point x="436" y="220"/>
      <point x="436" y="344" type="curve" smooth="yes"/>
      <point x="436" y="689" type="line"/>
      <point x="517" y="689" type="line"/>
      <point x="517" y="0" type="line"/>
    </contour>
  </outline>
</glyph>
<glyph name="Otilde" format="2">
  <advance width="600"/>
  <unicode hex="00D5"/>
  <outline>
    <contour>
      <point x="358" y="778" type="curve" smooth="yes"/>
      <point x="306" y="778"/>
      <point x="278" y="826"/>
      <point x="242" y="826" type="curve" smooth="yes"/>
      <point x="219" y="826"/>
      <point x="205" y="810"/>
      <point x="189" y="780" type="curve"/>
      <point x="136" y="806" type="line"/>
      <point x="159" y="854"/>
      <point x="194" y="891"/>
      <point x="242" y="891" type="curve" smooth="yes"/>
      <point x="298" y="891"/>
      <point x="321" y="842"/>
      <point x="358" y="842" type="curve" smooth="yes"/>
      <point x="378" y="842"/>
      <point x="393" y="856"/>
      <point x="411" y="887" type="curve"/>
      <point x="465" y="860" type="line"/>
      <point x="439" y="804"/>
      <point x="401" y="778"/>
    </contour>
    <contour>
      <point x="553" y="344" type="curve" smooth="yes"/>
      <point x="553" y="135"/>
      <point x="467" y="-11"/>
      <point x="300" y="-11" type="curve" smooth="yes"/>
      <point x="133" y="-11"/>
      <point x="47" y="130"/>
      <point x="47" y="343" type="curve" smooth="yes"/>
      <point x="47" y="551"/>
      <point x="133" y="700"/>
      <point x="300" y="700" type="curve" smooth="yes"/>
      <point x="467" y="700"/>
      <point x="553" y="556"/>
    </contour>
    <contour>
      <point x="463" y="344" type="curve" smooth="yes"/>
      <point x="463" y="527"/>
      <point x="416" y="627"/>
      <point x="300" y="627" type="curve" smooth="yes"/>
      <point x="184" y="627"/>
      <point x="137" y="526"/>
      <point x="137" y="343" type="curve" smooth="yes"/>
      <point x="137" y="159"/>
      <point x="187" y="62"/>
      <point x="300" y="62" type="curve" smooth="yes"/>
      <point x="416" y="62"/>
      <point x="463" y="160"/>
    </contour>
  </outline>
</glyph>
<glyph name="Odieresis" format="2">
  <advance width="600"/>
  <unicode hex="00D6"/>
  <outline>
    <contour>
      <point x="196" y="767" type="curve" smooth="yes"/>
      <point x="165" y="767"/>
      <point x="141" y="790"/>
      <point x="141" y="820" type="curve" smooth="yes"/>
      <point x="141" y="852"/>
      <point x="165" y="875"/>
      <point x="196" y="875" type="curve" smooth="yes"/>
      <point x="227" y="875"/>
      <point x="250" y="852"/>
      <point x="250" y="820" type="curve" smooth="yes"/>
      <point x="250" y="790"/>
      <point x="227" y="767"/>
    </contour>
    <contour>
      <point x="403" y="767" type="curve" smooth="yes"/>
      <point x="372" y="767"/>
      <point x="349" y="790"/>
      <point x="349" y="820" type="curve" smooth="yes"/>
      <point x="349" y="852"/>
      <point x="372" y="875"/>
      <point x="403" y="875" type="curve" smooth="yes"/>
      <point x="434" y="875"/>
      <point x="458" y="852"/>
      <point x="458" y="820" type="curve" smooth="yes"/>
      <point x="458" y="790"/>
      <point x="434" y="767"/>
    </contour>
    <contour>
      <point x="553" y="344" type="curve" smooth="yes"/>
      <point x="553" y="135"/>
      <point x="467" y="-11"/>
      <point x="300" y="-11" type="curve" smooth="yes"/>
      <point x="133" y="-11"/>
      <point x="47" y="130"/>
      <point x="47" y="343" type="curve" smooth="yes"/>
      <point x="47" y="551"/>
      <point x="133" y="700"/>
      <point x="300" y="700" type="curve" smooth="yes"/>
      <point x="467" y="700"/>
      <point x="553" y="556"/>
    </contour>
    <contour>
      <point x="463" y="344" type="curve" smooth="yes"/>
      <point x="463" y="527"/>
      <point x="416" y="627"/>
      <point x="300" y="627" type="curve" smooth="yes"/>
      <point x="184" y="627"/>
      <point x="137" y="526"/>
      <point x="137" y="343" type="curve" smooth="yes"/>
      <point x="137" y="159"/>
      <point x="187" y="62"/>
      <point x="300" y="62" type="curve" smooth="yes"/>
      <point x="416" y="62"/>
      <point x="463" y="160"/>
    </contour>
  </outline>
</glyph>
<glyph name="Ugrave" format="2">
  <advance width="600"/>
  <unicode hex="00D9"/>
  <outline>
    <contour>
      <point x="231" y="909" type="line"/>
      <point x="416" y="801" type="line"/>
      <point x="390" y="755" type="line"/>
      <point x="185" y="837" type="line"/>
    </contour>
    <contour>
      <point x="528" y="689" type="line"/>
      <point x="528" y="223" type="line" smooth="yes"/>
      <point x="528" y="83"/>
      <point x="438" y="-11"/>
      <point x="299" y="-11" type="curve" smooth="yes"/>
      <point x="157" y="-11"/>
      <point x="72" y="84"/>
      <point x="72" y="223" type="curve" smooth="yes"/>
      <point x="72" y="689" type="line"/>
      <point x="159" y="689" type="line"/>
      <point x="159" y="220" type="line" smooth="yes"/>
      <point x="159" y="115"/>
      <point x="210" y="64"/>
      <point x="299" y="64" type="curve" smooth="yes"/>
      <point x="389" y="64"/>
      <point x="440" y="115"/>
      <point x="440" y="220" type="curve" smooth="yes"/>
      <point x="440" y="689" type="line"/>
    </contour>
  </outline>
</glyph>
<glyph name="Udieresis" format="2">
  <advance width="600"/>
  <unicode hex="00DC"/>
  <outline>
    <contour>
      <point x="196" y="767" type="curve" smooth="yes"/>
      <point x="165" y="767"/>
      <point x="141" y="790"/>
      <point x="141" y="820" type="curve" smooth="yes"/>
      <point x="141" y="852"/>
      <point x="165" y="875"/>
      <point x="196" y="875" type="curve" smooth="yes"/>
      <point x="227" y="875"/>
      <point x="250" y="852"/>
      <point x="250" y="820" type="curve" smooth="yes"/>
      <point x="250" y="790"/>
      <point x="227" y="767"/>
    </contour>
    <contour>
      <point x="403" y="767" type="curve" smooth="yes"/>
      <point x="372" y="767"/>
      <point x="349" y="790"/>
      <point x="349" y="820" type="curve" smooth="yes"/>
      <point x="349" y="852"/>
      <point x="372" y="875"/>
      <point x="403" y="875" type="curve" smooth="yes"/>
      <point x="434" y="875"/>
      <point x="458" y="852"/>
      <point x="458" y="820" type="curve" smooth="yes"/>
      <point x="458" y="790"/>
      <point x="434" y="767"/>
    </contour>
    <contour>
      <point x="528" y="689" type="line"/>
      <point x="528" y="223" type="line" smooth="yes"/>
      <point x="528" y="83"/>
      <point x="438" y="-11"/>
      <point x="299" y="-11" type="curve" smooth="yes"/>
      <point x="157" y="-11"/>
      <point x="72" y="84"/>
      <point x="72" y="223" type="curve" smooth="yes"/>
      <point x="72" y="689" type="line"/>
      <point x="159" y="689" type="line"/>
      <point x="159" y="220" type="line" smooth="yes"/>
      <point x="159" y="115"/>
      <point x="210" y="64"/>
      <point x="299" y="64" type="curve" smooth="yes"/>
      <point x="389" y="64"/>
      <point x="440" y="115"/>
      <point x="440" y="220" type="curve" smooth="yes"/>
      <point x="440" y="689" type="line"/>
    </contour>
  </outline>
</glyph>
<glyph name="Yacute" format="2">
  <advance width="600"/>
  <unicode hex="00DD"/>
  <outline>
    <contour>
      <point x="386" y="906" type="line"/>
      <point x="423" y="834" type="line"/>
      <point x="210" y="755" type="line"/>
      <point x="188" y="801" type="line"/>
    </contour>
    <contour>
      <point x="344" y="266" type="line"/>
      <point x="344" y="0" type="line"/>
      <point x="256" y="0" type="line"/>
      <point x="256" y="265" type="line"/>
      <point x="23" y="689" type="line"/>
      <point x="119" y="689" type="line"/>
      <point x="302" y="343" type="line"/>
      <point x="487" y="689" type="line"/>
      <point x="577" y="689" type="line"/>
    </contour>
  </outline>
</glyph>
<glyph name="Thorn" format="2">
  <advance width="600"/>
  <unicode hex="00DE"/>
  <outline>
    <contour>
      <point x="194" y="689" type="line"/>
      <point x="194" y="572" type="line"/>
      <point x="292" y="572" type="line" smooth="yes"/>
      <point x="458" y="572"/>
      <point x="556" y="504"/>
      <point x="556" y="355" type="curve" smooth="yes"/>
      <point x="556" y="194"/>
      <point x="446" y="128"/>
      <point x="292" y="128" type="curve" smooth="yes"/>
      <point x="194" y="128" type="line"/>
      <point x="194" y="0" type="line"/>
      <point x="107" y="0" type="line"/>
      <point x="107" y="689" type="line"/>
    </contour>
    <contour>
      <point x="303" y="503" type="curve" smooth="yes"/>
      <point x="194" y="503" type="line"/>
      <point x="194" y="198" type="line"/>
      <point x="303" y="198" type="line" smooth="yes"/>
      <point x="398" y="198"/>
      <point x="464" y="232"/>
      <point x="464" y="353" type="curve" smooth="yes"/>
      <point x="464" y="460"/>
      <point x="399" y="503"/>
    </contour>
  </outline>
</glyph>
<glyph name="germandbls" format="2">
  <advance width="600"/>
  <unicode hex="00DF"/>
  <outline>
    <contour>
      <point x="297" y="749" type="curve" smooth="yes"/>
      <point x="400" y="749"/>
      <point x="471" y="690"/>
      <point x="471" y="605" type="curve" smooth="yes"/>
      <point x="471" y="508"/>
      <point x="357" y="491"/>
      <point x="357" y="429" type="curve" smooth="yes"/>
      <point x="357" y="341"/>
      <point x="558" y="335"/>
      <point x="558" y="167" type="curve" smooth="yes"/>
      <point x="558" y="51"/>
      <point x="472" y="-11"/>
      <point x="372" y="-11" type="curve" smooth="yes"/>
      <point x="318" y="-11"/>
      <point x="277" y="1"/>
      <point x="242" y="23" type="curve"/>
      <point x="277" y="81" type="line"/>
      <point x="301" y="66"/>
      <point x="335" y="57"/>
      <point x="364" y="57" type="curve" smooth="yes"/>
      <point x="431" y="57"/>
      <point x="472" y="91"/>
      <point x="472" y="163" type="curve" smooth="yes"/>
      <point x="472" y="291"/>
      <point x="274" y="288"/>
      <point x="274" y="419" type="curve" smooth="yes"/>
      <point x="274" y="514"/>
      <point x="390" y="523"/>
      <point x="390" y="597" type="curve" smooth="yes"/>
      <point x="390" y="633"/>
      <point x="368" y="682"/>
      <point x="296" y="682" type="curve" smooth="yes"/>
      <point x="221" y="682"/>
      <point x="180" y="642"/>
      <point x="180" y="539" type="curve" smooth="yes"/>
      <point x="180" y="0" type="line"/>
      <point x="96" y="0" type="line"/>
      <point x="96" y="533" type="line" smooth="yes"/>
      <point x="96" y="675"/>
      <point x="172" y="749"/>
    </contour>
  </outline>
</glyph>
<glyph name="atilde" format="2">
  <advance width="600"/>
  <unicode hex="00E3"/>
  <outline>
    <contour>
      <point x="350" y="659" type="curve" smooth="yes"/>
      <point x="298" y="659"/>
      <point x="270" y="707"/>
      <point x="234" y="707" type="curve" smooth="yes"/>
      <point x="211" y="707"/>
      <point x="197" y="691"/>
      <point x="181" y="661" type="curve"/>
      <point x="128" y="687" type="line"/>
      <point x="151" y="735"/>
      <point x="186" y="772"/>
      <point x="234" y="772" type="curve" smooth="yes"/>
      <point x="290" y="772"/>
      <point x="313" y="723"/>
      <point x="350" y="723" type="curve" smooth="yes"/>
      <point x="370" y="723"/>
      <point x="385" y="737"/>
      <point x="403" y="768" type="curve"/>
      <point x="457" y="741" type="line"/>
      <point x="431" y="685"/>
      <point x="393" y="659"/>
    </contour>
    <contour>
      <point x="478" y="115" type="line" smooth="yes"/>
      <point x="478" y="73"/>
      <point x="491" y="57"/>
      <point x="521" y="48" type="curve"/>
      <point x="500" y="-12" type="line"/>
      <point x="455" y="-6"/>
      <point x="418" y="15"/>
      <point x="404" y="63" type="curve"/>
      <point x="366" y="14"/>
      <point x="307" y="-11"/>
      <point x="239" y="-11" type="curve" smooth="yes"/>
      <point x="133" y="-11"/>
      <point x="69" y="53"/>
      <point x="69" y="151" type="curve" smooth="yes"/>
      <point x="69" y="259"/>
      <point x="156" y="320"/>
      <point x="315" y="320" type="curve" smooth="yes"/>
      <point x="393" y="320" type="line"/>
      <point x="393" y="363" type="line" smooth="yes"/>
      <point x="393" y="440"/>
      <point x="346" y="468"/>
      <point x="268" y="468" type="curve" smooth="yes"/>
      <point x="233" y="468"/>
      <point x="185" y="460"/>
      <point x="131" y="441" type="curve"/>
      <point x="108" y="505" type="line"/>
      <point x="173" y="528"/>
      <point x="229" y="538"/>
      <point x="281" y="538" type="curve" smooth="yes"/>
      <point x="412" y="538"/>
      <point x="478" y="472"/>
      <point x="478" y="368" type="curve" smooth="yes"/>
    </contour>
    <contour>
      <point x="260" y="52" type="curve" smooth="yes"/>
      <point x="312" y="52"/>
      <point x="362" y="80"/>
      <point x="393" y="127" type="curve"/>
      <point x="393" y="262" type="line"/>
      <point x="317" y="262" type="line" smooth="yes"/>
      <point x="201" y="262"/>
      <point x="159" y="220"/>
      <point x="159" y="152" type="curve" smooth="yes"/>
      <point x="159" y="86"/>
      <point x="191" y="52"/>
    </contour>
  </outline>
</glyph>
<glyph name="aring" format="2">
  <advance width="600"/>
  <unicode hex="00E5"/>
  <outline>
    <contour>
      <point x="292" y="824" type="curve" smooth="yes"/>
      <point x="357" y="824"/>
      <point x="403" y="778"/>
      <point x="403" y="721" type="curve" smooth="yes"/>
      <point x="403" y="664"/>
      <point x="357" y="619"/>
      <point x="292" y="619" type="curve" smooth="yes"/>
      <point x="227" y="619"/>
      <point x="181" y="664"/>
      <point x="181" y="721" type="curve" smooth="yes"/>
      <point x="181" y="778"/>
      <point x="227" y="824"/>
    </contour>
    <contour>
      <point x="292" y="777" type="curve" smooth="yes"/>
      <point x="259" y="777"/>
      <point x="238" y="756"/>
      <point x="238" y="721" type="curve" smooth="yes"/>
      <point x="238" y="685"/>
      <point x="259" y="664"/>
      <point x="292" y="664" type="curve" smooth="yes"/>
      <point x="326" y="664"/>
      <point x="346" y="685"/>
      <point x="346" y="721" type="curve" smooth="yes"/>
      <point x="346" y="756"/>
      <point x="326" y="777"/>
    </contour>
    <contour>
      <point x="478" y="115" type="line" smooth="yes"/>
      <point x="478" y="73"/>
      <point x="491" y="57"/>
      <point x="521" y="48" type="curve"/>
      <point x="500" y="-12" type="line"/>
      <point x="455" y="-6"/>
      <point x="418" y="15"/>
      <point x="404" y="63" type="curve"/>
      <point x="366" y="14"/>
      <point x="307" y="-11"/>
      <point x="239" y="-11" type="curve" smooth="yes"/>
      <point x="133" y="-11"/>
      <point x="69" y="53"/>
      <point x="69" y="151" type="curve" smooth="yes"/>
      <point x="69" y="259"/>
      <point x="156" y="320"/>
      <point x="315" y="320" type="curve" smooth="yes"/>
      <point x="393" y="320" type="line"/>
      <point x="393" y="363" type="line" smooth="yes"/>
      <point x="393" y="440"/>
      <point x="346" y="468"/>
      <point x="268" y="468" type="curve" smooth="yes"/>
      <point x="233" y="468"/>
      <point x="185" y="460"/>
      <point x="131" y="441" type="curve"/>
      <point x="108" y="505" type="line"/>
      <point x="173" y="528"/>
      <point x="229" y="538"/>
      <point x="281" y="538" type="curve" smooth="yes"/>
      <point x="412" y="538"/>
      <point x="478" y="472"/>
      <point x="478" y="368" type="curve" smooth="yes"/>
    </contour>
    <contour>
      <point x="260" y="52" type="curve" smooth="yes"/>
      <point x="312" y="52"/>
      <point x="362" y="80"/>
      <point x="393" y="127" type="curve"/>
      <point x="393" y="262" type="line"/>
      <point x="317" y="262" type="line" smooth="yes"/>
      <point x="201" y="262"/>
      <point x="159" y="220"/>
      <point x="159" y="152" type="curve" smooth="yes"/>
      <point x="159" y="86"/>
      <point x="191" y="52"/>
    </contour>
  </outline>
</glyph>
<glyph name="ae" format="2">
  <advance width="600"/>
  <unicode hex="00E6"/>
  <outline>
    <contour>
      <point x="435" y="538" type="curve" smooth="yes"/>
      <point x="554" y="538"/>
      <point x="607" y="440"/>
      <point x="607" y="279" type="curve" smooth="yes"/>
      <point x="607" y="261"/>
      <point x="606" y="245"/>
      <point x="605" y="233" type="curve"/>
      <point x="336" y="233" type="line"/>
      <point x="345" y="113"/>
      <point x="378" y="59"/>
      <point x="449" y="59" type="curve" smooth="yes"/>
      <point x="487" y="59"/>
      <point x="514" y="73"/>
      <point x="548" y="99" type="curve"/>
      <point x="587" y="41" type="line"/>
      <point x="546" y="9"/>
      <point x="504" y="-11"/>
      <point x="447" y="-11" type="curve" smooth="yes"/>
      <point x="377" y="-11"/>
      <point x="331" y="21"/>
      <point x="299" y="78" type="curve"/>
      <point x="253" y="16"/>
      <point x="213" y="-11"/>
      <point x="146" y="-11" type="curve" smooth="yes"/>
      <point x="53" y="-11"/>
      <point x="-6" y="53"/>
      <point x="-6" y="151" type="curve" smooth="yes"/>
      <point x="-6" y="261"/>
      <point x="68" y="320"/>
      <point x="208" y="320" type="curve" smooth="yes"/>
      <point x="254" y="320" type="line"/>
      <point x="254" y="363" type="line" smooth="yes"/>
      <point x="254" y="437"/>
      <point x="221" y="468"/>
      <point x="163" y="468" type="curve" smooth="yes"/>
      <point x="127" y="468"/>
      <point x="102" y="460"/>
      <point x="58" y="441" type="curve"/>
      <point x="36" y="504" type="line"/>
      <point x="80" y="525"/>
      <point x="128" y="538"/>
      <point x="171" y="538" type="curve" smooth="yes"/>
      <point x="250" y="538"/>
      <point x="288" y="503"/>
      <point x="309" y="450" type="curve"/>
      <point x="327" y="504"/>
      <point x="371" y="538"/>
    </contour>
    <contour>
      <point x="432" y="468" type="curve" smooth="yes"/>
      <point x="372" y="468"/>
      <point x="344" y="424"/>
      <point x="336" y="299" type="curve"/>
      <point x="525" y="299" type="line"/>
      <point x="523" y="409"/>
      <point x="500" y="468"/>
    </contour>
    <contour>
      <point x="254" y="262" type="curve"/>
      <point x="212" y="262" type="line" smooth="yes"/>
      <point x="115" y="262"/>
      <point x="85" y="220"/>
      <point x="85" y="156" type="curve" smooth="yes"/>
      <point x="85" y="88"/>
      <point x="114" y="53"/>
      <point x="159" y="53" type="curve" smooth="yes"/>
      <point x="203" y="53"/>
      <point x="232" y="87"/>
      <point x="268" y="150" type="curve"/>
      <point x="258" y="182"/>
      <point x="254" y="221"/>
    </contour>
  </outline>
</glyph>
<glyph name="ccedilla" format="2">
  <advance width="600"/>
  <unicode hex="00E7"/>
  <outline>
    <contour>
      <point x="359" y="-57" type="line"/>
      <point x="424" y="-63"/>
      <point x="452" y="-101"/>
      <point x="452" y="-140" type="curve" smooth="yes"/>
      <point x="452" y="-206"/>
      <point x="394" y="-238"/>
      <point x="330" y="-238" type="curve" smooth="yes"/>
      <point x="290" y="-238"/>
      <point x="251" y="-229"/>
      <point x="225" y="-214" type="curve"/>
      <point x="252" y="-166" type="line"/>
      <point x="271" y="-176"/>
      <point x="297" y="-182"/>
      <point x="319" y="-182" type="curve" smooth="yes"/>
      <point x="355" y="-182"/>
      <point x="379" y="-170"/>
      <point x="379" y="-141" type="curve" smooth="yes"/>
      <point x="379" y="-104"/>
      <point x="346" y="-97"/>
      <point x="293" y="-97" type="curve"/>
      <point x="299" y="-9" type="line"/>
      <point x="166" y="8"/>
      <point x="91" y="110"/>
      <point x="91" y="261" type="curve" smooth="yes"/>
      <point x="91" y="419"/>
      <point x="182" y="538"/>
      <point x="339" y="538" type="curve" smooth="yes"/>
      <point x="407" y="538"/>
      <point x="466" y="517"/>
      <point x="515" y="476" type="curve"/>
      <point x="474" y="421" type="line"/>
      <point x="429" y="451"/>
      <point x="385" y="467"/>
      <point x="338" y="467" type="curve" smooth="yes"/>
      <point x="247" y="467"/>
      <point x="182" y="400"/>
      <point x="182" y="261" type="curve" smooth="yes"/>
      <point x="182" y="120"/>
      <point x="248" y="61"/>
      <point x="339" y="61" type="curve" smooth="yes"/>
      <point x="392" y="61"/>
      <point x="436" y="80"/>
      <point x="476" y="107" type="curve"/>
      <point x="516" y="52" type="line"/>
      <point x="476" y="17"/>
      <point x="415" y="-6"/>
      <point x="359" y="-11" type="curve"/>
    </contour>
  </outline>
</glyph>
<glyph name="igrave" format="2">
  <advance width="600"/>
  <unicode hex="00EC"/>
  <outline>
    <contour>
      <point x="388" y="622" type="line"/>
      <point x="185" y="715" type="line"/>
      <point x="231" y="787" type="line"/>
      <point x="415" y="668" type="line"/>
    </contour>
    <contour>
      <point x="367" y="527" type="line"/>
      <point x="367" y="67" type="line"/>
      <point x="515" y="67" type="line"/>
      <point x="515" y="0" type="line"/>
      <point x="121" y="0" type="line"/>
      <point x="121" y="67" type="line"/>
      <point x="283" y="67" type="line"/>
      <point x="283" y="460" type="line"/>
      <point x="126" y="460" type="line"/>
      <point x="126" y="527" type="line"/>
    </contour>
  </outline>
</glyph>
<glyph name="iacute" format="2">
  <advance width="600"/>
  <unicode hex="00ED"/>
  <outline>
    <contour>
      <point x="385" y="797" type="line"/>
      <point x="423" y="725" type="line"/>
      <point x="214" y="640" type="line"/>
      <point x="188" y="685" type="line"/>
    </contour>
    <contour>
      <point x="367" y="527" type="line"/>
      <point x="367" y="67" type="line"/>
      <point x="515" y="67" type="line"/>
      <point x="515" y="0" type="line"/>
      <point x="121" y="0" type="line"/>
      <point x="121" y="67" type="line"/>
      <point x="283" y="67" type="line"/>
      <point x="283" y="460" type="line"/>
      <point x="126" y="460" type="line"/>
      <point x="126" y="527" type="line"/>
    </contour>
  </outline>
</glyph>
<glyph name="icircumflex" format="2">
  <advance width="600"/>
  <unicode hex="00EE"/>
  <outline>
    <contour>
      <point x="178" y="629" type="line"/>
      <point x="138" y="670" type="line"/>
      <point x="273" y="789" type="line"/>
      <point x="330" y="789" type="line"/>
      <point x="464" y="670" type="line"/>
      <point x="426" y="629" type="line"/>
      <point x="302" y="720" type="line"/>
    </contour>
    <contour>
      <point x="367" y="527" type="line"/>
      <point x="367" y="67" type="line"/>
      <point x="515" y="67" type="line"/>
      <point x="515" y="0" type="line"/>
      <point x="121" y="0" type="line"/>
      <point x="121" y="67" type="line"/>
      <point x="283" y="67" type="line"/>
      <point x="283" y="460" type="line"/>
      <point x="126" y="460" type="line"/>
      <point x="126" y="527" type="line"/>
    </contour>
  </outline>
</glyph>
<glyph name="idieresis" format="2">
  <advance width="600"/>
  <unicode hex="00EF"/>
  <outline>
    <contour>
      <point x="197" y="648" type="curve" smooth="yes"/>
      <point x="166" y="648"/>
      <point x="142" y="671"/>
      <point x="142" y="701" type="curve" smooth="yes"/>
      <point x="142" y="733"/>
      <point x="166" y="756"/>
      <point x="197" y="756" type="curve" smooth="yes"/>
      <point x="228" y="756"/>
      <point x="251" y="733"/>
      <point x="251" y="701" type="curve" smooth="yes"/>
      <point x="251" y="671"/>
      <point x="228" y="648"/>
    </contour>
    <contour>
      <point x="404" y="648" type="curve" smooth="yes"/>
      <point x="373" y="648"/>
      <point x="350" y="671"/>
      <point x="350" y="701" type="curve" smooth="yes"/>
      <point x="350" y="733"/>
      <point x="373" y="756"/>
      <point x="404" y="756" type="curve" smooth="yes"/>
      <point x="435" y="756"/>
      <point x="459" y="733"/>
      <point x="459" y="701" type="curve" smooth="yes"/>
      <point x="459" y="671"/>
      <point x="435" y="648"/>
    </contour>
    <contour>
      <point x="367" y="527" type="line"/>
      <point x="367" y="67" type="line"/>
      <point x="515" y="67" type="line"/>
      <point x="515" y="0" type="line"/>
      <point x="121" y="0" type="line"/>
      <point x="121" y="67" type="line"/>
      <point x="283" y="67" type="line"/>
      <point x="283" y="460" type="line"/>
      <point x="126" y="460" type="line"/>
      <point x="126" y="527" type="line"/>
    </contour>
  </outline>
</glyph>
<glyph name="eth" format="2">
  <advance width="600"/>
  <unicode hex="00F0"/>
  <outline>
    <contour>
      <point x="170" y="562" type="line"/>
      <point x="250" y="647" type="line"/>
      <point x="218" y="662"/>
      <point x="180" y="674"/>
      <point x="133" y="683" type="curve"/>
      <point x="152" y="749" type="line"/>
      <point x="210" y="737"/>
      <point x="261" y="721"/>
      <point x="301" y="700" type="curve"/>
      <point x="371" y="773" type="line"/>
      <point x="422" y="729" type="line"/>
      <point x="360" y="665" type="line"/>
      <point x="479" y="583"/>
      <point x="532" y="455"/>
      <point x="532" y="264" type="curve" smooth="yes"/>
      <point x="532" y="95"/>
      <point x="438" y="-11"/>
      <point x="295" y="-11" type="curve" smooth="yes"/>
      <point x="169" y="-11"/>
      <point x="67" y="77"/>
      <point x="67" y="235" type="curve" smooth="yes"/>
      <point x="67" y="383"/>
      <point x="166" y="481"/>
      <point x="280" y="481" type="curve" smooth="yes"/>
      <point x="348" y="481"/>
      <point x="399" y="456"/>
      <point x="437" y="412" type="curve"/>
      <point x="419" y="497"/>
      <point x="372" y="566"/>
      <point x="308" y="612" type="curve"/>
      <point x="229" y="532" type="line"/>
    </contour>
    <contour>
      <point x="448" y="267" type="curve" smooth="yes"/>
      <point x="448" y="291"/>
      <point x="446" y="312"/>
      <point x="444" y="332" type="curve"/>
      <point x="410" y="385"/>
      <point x="355" y="414"/>
      <point x="290" y="414" type="curve" smooth="yes"/>
      <point x="218" y="414"/>
      <point x="153" y="361"/>
      <point x="153" y="239" type="curve" smooth="yes"/>
      <point x="153" y="120"/>
      <point x="211" y="57"/>
      <point x="294" y="57" type="curve" smooth="yes"/>
      <point x="387" y="57"/>
      <point x="448" y="129"/>
    </contour>
  </outline>
</glyph>
<glyph name="ntilde" format="2">
  <advance width="600"/>
  <unicode hex="00F1"/>
  <outline>
    <contour>
      <point x="358" y="659" type="curve" smooth="yes"/>
      <point x="306" y="659"/>
      <point x="278" y="707"/>
      <point x="242" y="707" type="curve" smooth="yes"/>
      <point x="219" y="707"/>
      <point x="205" y="691"/>
      <point x="189" y="661" type="curve"/>
      <point x="136" y="687" type="line"/>
      <point x="159" y="735"/>
      <point x="194" y="772"/>
      <point x="242" y="772" type="curve" smooth="yes"/>
      <point x="298" y="772"/>
      <point x="321" y="723"/>
      <point x="358" y="723" type="curve" smooth="yes"/>
      <point x="378" y="723"/>
      <point x="393" y="737"/>
      <point x="411" y="768" type="curve"/>
      <point x="465" y="741" type="line"/>
      <point x="439" y="685"/>
      <point x="401" y="659"/>
    </contour>
    <contour>
      <point x="100" y="0" type="line"/>
      <point x="100" y="527" type="line"/>
      <point x="172" y="527" type="line"/>
      <point x="179" y="453" type="line"/>
      <point x="221" y="507"/>
      <point x="291" y="538"/>
      <point x="353" y="538" type="curve" smooth="yes"/>
      <point x="456" y="538"/>
      <point x="501" y="480"/>
      <point x="501" y="382" type="curve" smooth="yes"/>
      <point x="501" y="0" type="line"/>
      <point x="417" y="0" type="line"/>
      <point x="417" y="320" type="line" smooth="yes"/>
      <point x="417" y="428"/>
      <point x="406" y="471"/>
      <point x="327" y="471" type="curve" smooth="yes"/>
      <point x="265" y="471"/>
      <point x="212" y="425"/>
      <point x="184" y="383" type="curve"/>
      <point x="184" y="0" type="line"/>
    </contour>
  </outline>
</glyph>
<glyph name="ocircumflex" format="2">
  <advance width="600"/>
  <unicode hex="00F4"/>
  <outline>
    <contour>
      <point x="177" y="629" type="line"/>
      <point x="137" y="670" type="line"/>
      <point x="272" y="789" type="line"/>
      <point x="329" y="789" type="line"/>
      <point x="463" y="670" type="line"/>
      <point x="425" y="629" type="line"/>
      <point x="301" y="720" type="line"/>
    </contour>
    <contour>
      <point x="301" y="538" type="curve" smooth="yes"/>
      <point x="449" y="538"/>
      <point x="527" y="430"/>
      <point x="527" y="264" type="curve" smooth="yes"/>
      <point x="527" y="102"/>
      <point x="447" y="-11"/>
      <point x="300" y="-11" type="curve" smooth="yes"/>
      <point x="152" y="-11"/>
      <point x="73" y="97"/>
      <point x="73" y="263" type="curve" smooth="yes"/>
      <point x="73" y="425"/>
      <point x="153" y="538"/>
    </contour>
    <contour>
      <point x="301" y="469" type="curve" smooth="yes"/>
      <point x="210" y="469"/>
      <point x="164" y="403"/>
      <point x="164" y="263" type="curve" smooth="yes"/>
      <point x="164" y="123"/>
      <point x="209" y="58"/>
      <point x="300" y="58" type="curve" smooth="yes"/>
      <point x="391" y="58"/>
      <point x="436" y="123"/>
      <point x="436" y="264" type="curve" smooth="yes"/>
      <point x="436" y="403"/>
      <point x="391" y="469"/>
    </contour>
  </outline>
</glyph>
<glyph name="otilde" format="2">
  <advance width="600"/>
  <unicode hex="00F5"/>
  <outline>
    <contour>
      <point x="358" y="659" type="curve" smooth="yes"/>
      <point x="306" y="659"/>
      <point x="278" y="707"/>
      <point x="242" y="707" type="curve" smooth="yes"/>
      <point x="219" y="707"/>
      <point x="205" y="691"/>
      <point x="189" y="661" type="curve"/>
      <point x="136" y="687" type="line"/>
      <point x="159" y="735"/>
      <point x="194" y="772"/>
      <point x="242" y="772" type="curve" smooth="yes"/>
      <point x="298" y="772"/>
      <point x="321" y="723"/>
      <point x="358" y="723" type="curve" smooth="yes"/>
      <point x="378" y="723"/>
      <point x="393" y="737"/>
      <point x="411" y="768" type="curve"/>
      <point x="465" y="741" type="line"/>
      <point x="439" y="685"/>
      <point x="401" y="659"/>
    </contour>
    <contour>
      <point x="301" y="538" type="curve" smooth="yes"/>
      <point x="449" y="538"/>
      <point x="527" y="430"/>
      <point x="527" y="264" type="curve" smooth="yes"/>
      <point x="527" y="102"/>
      <point x="447" y="-11"/>
      <point x="300" y="-11" type="curve" smooth="yes"/>
      <point x="152" y="-11"/>
      <point x="73" y="97"/>
      <point x="73" y="263" type="curve" smooth="yes"/>
      <point x="73" y="425"/>
      <point x="153" y="538"/>
    </contour>
    <contour>
      <point x="301" y="469" type="curve" smooth="yes"/>
      <point x="210" y="469"/>
      <point x="164" y="403"/>
      <point x="164" y="263" type="curve" smooth="yes"/>
      <point x="164" y="123"/>
      <point x="209" y="58"/>
      <point x="300" y="58" type="curve" smooth="yes"/>
      <point x="391" y="58"/>
      <point x="436" y="123"/>
      <point x="436" y="264" type="curve" smooth="yes"/>
      <point x="436" y="403"/>
      <point x="391" y="469"/>
    </contour>
  </outline>
</glyph>
<glyph name="divide" format="2">
  <advance width="600"/>
  <unicode hex="00F7"/>
  <outline>
    <contour>
      <point x="300" y="575" type="curve" smooth="yes"/>
      <point x="338" y="575"/>
      <point x="368" y="545"/>
      <point x="368" y="508" type="curve" smooth="yes"/>
      <point x="368" y="471"/>
      <point x="338" y="442"/>
      <point x="300" y="442" type="curve" smooth="yes"/>
      <point x="262" y="442"/>
      <point x="232" y="471"/>
      <point x="232" y="508" type="curve" smooth="yes"/>
      <point x="232" y="545"/>
      <point x="262" y="575"/>
    </contour>
    <contour>
      <point x="484" y="348" type="line"/>
      <point x="484" y="276" type="line"/>
      <point x="116" y="276" type="line"/>
      <point x="116" y="348" type="line"/>
    </contour>
    <contour>
      <point x="300" y="183" type="curve" smooth="yes"/>
      <point x="338" y="183"/>
      <point x="368" y="153"/>
      <point x="368" y="116" type="curve" smooth="yes"/>
      <point x="368" y="79"/>
      <point x="338" y="49"/>
      <point x="300" y="49" type="curve" smooth="yes"/>
      <point x="262" y="49"/>
      <point x="232" y="79"/>
      <point x="232" y="116" type="curve" smooth="yes"/>
      <point x="232" y="153"/>
      <point x="262" y="183"/>
    </contour>
  </outline>
</glyph>
<glyph name="oslash" format="2">
  <advance width="600"/>
  <unicode hex="00F8"/>
  <outline>
    <contour>
      <point x="417" y="508" type="line"/>
      <point x="487" y="465"/>
      <point x="527" y="378"/>
      <point x="527" y="264" type="curve" smooth="yes"/>
      <point x="527" y="102"/>
      <point x="447" y="-11"/>
      <point x="300" y="-11" type="curve" smooth="yes"/>
      <point x="282" y="-11"/>
      <point x="266" y="-10"/>
      <point x="250" y="-7" type="curve"/>
      <point x="213" y="-130" type="line"/>
      <point x="143" y="-110" type="line"/>
      <point x="185" y="18" type="line"/>
      <point x="113" y="61"/>
      <point x="73" y="148"/>
      <point x="73" y="263" type="curve" smooth="yes"/>
      <point x="73" y="425"/>
      <point x="153" y="538"/>
      <point x="301" y="538" type="curve" smooth="yes"/>
      <point x="318" y="538"/>
      <point x="334" y="536"/>
      <point x="350" y="533" type="curve"/>
      <point x="388" y="654" type="line"/>
      <point x="458" y="633" type="line"/>
    </contour>
    <contour>
      <point x="301" y="469" type="curve" smooth="yes"/>
      <point x="211" y="469"/>
      <point x="164" y="403"/>
      <point x="164" y="263" type="curve" smooth="yes"/>
      <point x="164" y="171"/>
      <point x="182" y="115"/>
      <point x="216" y="85" type="curve"/>
      <point x="334" y="466" type="line"/>
      <point x="324" y="468"/>
      <point x="313" y="469"/>
    </contour>
    <contour>
      <point x="300" y="58" type="curve" smooth="yes"/>
      <point x="390" y="58"/>
      <point x="436" y="124"/>
      <point x="436" y="264" type="curve" smooth="yes"/>
      <point x="436" y="355"/>
      <point x="419" y="411"/>
      <point x="385" y="441" type="curve"/>
      <point x="267" y="61" type="line"/>
      <point x="277" y="59"/>
      <point x="288" y="58"/>
    </contour>
  </outline>
</glyph>
<glyph name="ugrave" format="2">
  <advance width="600"/>
  <unicode hex="00F9"/>
  <outline>
    <contour>
      <point x="387" y="622" type="line"/>
      <point x="184" y="715" type="line"/>
      <point x="230" y="787" type="line"/>
      <point x="414" y="668" type="line"/>
    </contour>
    <contour>
      <point x="184" y="527" type="line"/>
      <point x="184" y="153" type="line" smooth="yes"/>
      <point x="184" y="85"/>
      <point x="212" y="55"/>
      <point x="273" y="55" type="curve" smooth="yes"/>
      <point x="331" y="55"/>
      <point x="387" y="94"/>
      <point x="416" y="139" type="curve"/>
      <point x="416" y="527" type="line"/>
      <point x="500" y="527" type="line"/>
      <point x="500" y="0" type="line"/>
      <point x="428" y="0" type="line"/>
      <point x="421" y="71" type="line"/>
      <point x="379" y="18"/>
      <point x="314" y="-11"/>
      <point x="252" y="-11" type="curve" smooth="yes"/>
      <point x="150" y="-11"/>
      <point x="100" y="46"/>
      <point x="100" y="144" type="curve" smooth="yes"/>
      <point x="100" y="527" type="line"/>
    </contour>
  </outline>
</glyph>
<glyph name="udieresis" format="2">
  <advance width="600"/>
  <unicode hex="00FC"/>
  <outline>
    <contour>
      <point x="196" y="648" type="curve" smooth="yes"/>
      <point x="165" y="648"/>
      <point x="141" y="671"/>
      <point x="141" y="701" type="curve" smooth="yes"/>
      <point x="141" y="733"/>
      <point x="165" y="756"/>
      <point x="196" y="756" type="curve" smooth="yes"/>
      <point x="227" y="756"/>
      <point x="250" y="733"/>
      <point x="250" y="701" type="curve" smooth="yes"/>
      <point x="250" y="671"/>
      <point x="227" y="648"/>
    </contour>
    <contour>
      <point x="403" y="648" type="curve" smooth="yes"/>
      <point x="372" y="648"/>
      <point x="349" y="671"/>
      <point x="349" y="701" type="curve" smooth="yes"/>
      <point x="349" y="733"/>
      <point x="372" y="756"/>
      <point x="403" y="756" type="curve" smooth="yes"/>
      <point x="434" y="756"/>
      <point x="458" y="733"/>
      <point x="458" y="701" type="curve" smooth="yes"/>
      <point x="458" y="671"/>
      <point x="434" y="648"/>
    </contour>
    <contour>
      <point x="184" y="527" type="line"/>
      <point x="184" y="153" type="line" smooth="yes"/>
      <point x="184" y="85"/>
      <point x="212" y="55"/>
      <point x="273" y="55" type="curve" smooth="yes"/>
      <point x="331" y="55"/>
      <point x="387" y="94"/>
      <point x="416" y="139" type="curve"/>
      <point x="416" y="527" type="line"/>
      <point x="500" y="527" type="line"/>
      <point x="500" y="0" type="line"/>
      <point x="428" y="0" type="line"/>
      <point x="421" y="71" type="line"/>
      <point x="379" y="18"/>
      <point x="314" y="-11"/>
      <point x="252" y="-11" type="curve" smooth="yes"/>
      <point x="150" y="-11"/>
      <point x="100" y="46"/>
      <point x="100" y="144" type="curve" smooth="yes"/>
      <point x="100" y="527" type="line"/>
    </contour>
  </outline>
</glyph>
<glyph name="Amacron" format="2">
  <advance width="600"/>
  <unicode hex="0100"/>
  <outline>
    <contour>
      <point x="434" y="795" type="line"/>
      <point x="165" y="795" type="line"/>
      <point x="165" y="859" type="line"/>
      <point x="434" y="859" type="line"/>
    </contour>
    <contour>
      <point x="434" y="176" type="line"/>
      <point x="161" y="176" type="line"/>
      <point x="106" y="0" type="line"/>
      <point x="20" y="0" type="line"/>
      <point x="245" y="689" type="line"/>
      <point x="355" y="689" type="line"/>
      <point x="579" y="0" type="line"/>
      <point x="489" y="0" type="line"/>
    </contour>
    <contour>
      <point x="184" y="248" type="line"/>
      <point x="411" y="248" type="line"/>
      <point x="298" y="615" type="line"/>
    </contour>
  </outline>
</glyph>
<glyph name="Aogonek" format="2">
  <advance width="600"/>
  <unicode hex="0104"/>
  <outline>
    <contour>
      <point x="539" y="0" type="line"/>
      <point x="436" y="-45"/>
      <point x="415" y="-79"/>
      <point x="415" y="-114" type="curve" smooth="yes"/>
      <point x="415" y="-144"/>
      <point x="429" y="-162"/>
      <point x="471" y="-162" type="curve" smooth="yes"/>
      <point x="492" y="-162"/>
      <point x="508" y="-160"/>
      <point x="532" y="-155" type="curve"/>
      <point x="524" y="-223" type="line"/>
      <point x="503" y="-226"/>
      <point x="487" y="-229"/>
      <point x="460" y="-229" type="curve" smooth="yes"/>
      <point x="384" y="-229"/>
      <point x="338" y="-187"/>
      <point x="338" y="-131" type="curve" smooth="yes"/>
      <point x="338" y="-69"/>
      <point x="383" y="-20"/>
      <point x="483" y="17" type="curve"/>
      <point x="434" y="176" type="line"/>
      <point x="161" y="176" type="line"/>
      <point x="106" y="0" type="line"/>
      <point x="20" y="0" type="line"/>
      <point x="245" y="689" type="line"/>
      <point x="355" y="689" type="line"/>
      <point x="579" y="0" type="line"/>
    </contour>
    <contour>
      <point x="184" y="248" type="line"/>
      <point x="411" y="248" type="line"/>
      <point x="298" y="615" type="line"/>
    </contour>
  </outline>
</glyph>
<glyph name="Cdotaccent" format="2">
  <advance width="600"/>
  <unicode hex="010A"/>
  <outline>
    <contour>
      <point x="364" y="892" type="curve" smooth="yes"/>
      <point x="401" y="892"/>
      <point x="425" y="867"/>
      <point x="425" y="833" type="curve" smooth="yes"/>
      <point x="425" y="799"/>
      <point x="401" y="774"/>
      <point x="364" y="774" type="curve" smooth="yes"/>
      <point x="328" y="774"/>
      <point x="304" y="799"/>
      <point x="304" y="833" type="curve" smooth="yes"/>
      <point x="304" y="867"/>
      <point x="328" y="892"/>
    </contour>
    <contour>
      <point x="358" y="700" type="curve" smooth="yes"/>
      <point x="448" y="700"/>
      <point x="503" y="676"/>
      <point x="558" y="633" type="curve"/>
      <point x="509" y="576" type="line"/>
      <point x="465" y="613"/>
      <point x="417" y="627"/>
      <point x="364" y="627" type="curve" smooth="yes"/>
      <point x="252" y="627"/>
      <point x="154" y="555"/>
      <point x="154" y="345" type="curve" smooth="yes"/>
      <point x="154" y="140"/>
      <point x="245" y="63"/>
      <point x="363" y="63" type="curve" smooth="yes"/>
      <point x="440" y="63"/>
      <point x="486" y="91"/>
      <point x="523" y="120" type="curve"/>
      <point x="568" y="64" type="line"/>
      <point x="526" y="23"/>
      <point x="460" y="-11"/>
      <point x="362" y="-11" type="curve" smooth="yes"/>
      <point x="194" y="-11"/>
      <point x="63" y="113"/>
      <point x="63" y="345" type="curve" smooth="yes"/>
      <point x="63" y="577"/>
      <point x="199" y="700"/>
    </contour>
  </outline>
</glyph>
<glyph name="Dcaron" format="2">
  <advance width="600"/>
  <unicode hex="010E"/>
  <outline>
    <contour>
      <point x="410" y="905" type="line"/>
      <point x="447" y="862" type="line"/>
      <point x="313" y="754" type="line"/>
      <point x="256" y="754" type="line"/>
      <point x="121" y="862" type="line"/>
      <point x="159" y="905" type="line"/>
      <point x="284" y="824" type="line"/>
    </contour>
    <contour>
      <point x="553" y="348" type="curve" smooth="yes"/>
      <point x="553" y="59"/>
      <point x="384" y="0"/>
      <point x="241" y="0" type="curve" smooth="yes"/>
      <point x="83" y="0" type="line"/>
      <point x="83" y="689" type="line"/>
      <point x="230" y="689" type="line" smooth="yes"/>
      <point x="392" y="689"/>
      <point x="553" y="634"/>
    </contour>
    <contour>
      <point x="460" y="348" type="curve" smooth="yes"/>
      <point x="460" y="588"/>
      <point x="346" y="618"/>
      <point x="251" y="618" type="curve" smooth="yes"/>
      <point x="170" y="618" type="line"/>
      <point x="170" y="70" type="line"/>
      <point x="252" y="70" type="line" smooth="yes"/>
      <point x="351" y="70"/>
      <point x="460" y="120"/>
    </contour>
  </outline>
</glyph>
<glyph name="dcaron" format="2">
  <advance width="600"/>
  <unicode hex="010F"/>
  <outline>
    <contour>
      <point x="387" y="749" type="line"/>
      <point x="471" y="739" type="line"/>
      <point x="471" y="0" type="line"/>
      <point x="397" y="0" type="line"/>
      <point x="389" y="69" type="line"/>
      <point x="350" y="14"/>
      <point x="297" y="-11"/>
      <point x="240" y="-11" type="curve" smooth="yes"/>
      <point x="102" y="-11"/>
      <point x="39" y="99"/>
      <point x="39" y="263" type="curve" smooth="yes"/>
      <point x="39" y="421"/>
      <point x="116" y="538"/>
      <point x="246" y="538" type="curve" smooth="yes"/>
      <point x="306" y="538"/>
      <point x="351" y="516"/>
      <point x="387" y="475" type="curve"/>
    </contour>
    <contour>
      <point x="537" y="747" type="line"/>
      <point x="613" y="738" type="line"/>
      <point x="560" y="560" type="line"/>
      <point x="513" y="567" type="line"/>
    </contour>
    <contour>
      <point x="267" y="470" type="curve" smooth="yes"/>
      <point x="180" y="470"/>
      <point x="130" y="402"/>
      <point x="130" y="263" type="curve" smooth="yes"/>
      <point x="130" y="126"/>
      <point x="174" y="56"/>
      <point x="257" y="56" type="curve" smooth="yes"/>
      <point x="317" y="56"/>
      <point x="358" y="96"/>
      <point x="387" y="140" type="curve"/>
      <point x="387" y="402" type="line"/>
      <point x="358" y="445"/>
      <point x="316" y="470"/>
    </contour>
  </outline>
</glyph>
<glyph name="Dcroat" format="2">
  <advance width="600"/>
  <unicode hex="0110"/>
  <outline>
    <contour>
      <point x="240" y="689" type="line" smooth="yes"/>
      <point x="401" y="689"/>
      <point x="562" y="634"/>
      <point x="562" y="348" type="curve" smooth="yes"/>
      <point x="562" y="59"/>
      <point x="394" y="0"/>
      <point x="251" y="0" type="curve" smooth="yes"/>
      <point x="93" y="0" type="line"/>
      <point x="93" y="320" type="line"/>
      <point x="20" y="320" type="line"/>
      <point x="20" y="386" type="line"/>
      <point x="93" y="386" type="line"/>
      <point x="93" y="689" type="line"/>
    </contour>
    <contour>
      <point x="262" y="70" type="line" smooth="yes"/>
      <point x="361" y="70"/>
      <point x="470" y="120"/>
      <point x="470" y="348" type="curve" smooth="yes"/>
      <point x="470" y="588"/>
      <point x="355" y="618"/>
      <point x="261" y="618" type="curve" smooth="yes"/>
      <point x="180" y="618" type="line"/>
      <point x="180" y="386" type="line"/>
      <point x="338" y="386" type="line"/>
      <point x="338" y="320" type="line"/>
      <point x="180" y="320" type="line"/>
      <point x="180" y="70" type="line"/>
    </contour>
  </outline>
</glyph>
<glyph name="dcroat" format="2">
  <advance width="600"/>
  <unicode hex="0111"/>
  <outline>
    <contour>
      <point x="581" y="665" type="line"/>
      <point x="581" y="597" type="line"/>
      <point x="502" y="597" type="line"/>
      <point x="502" y="0" type="line"/>
      <point x="428" y="0" type="line"/>
      <point x="420" y="69" type="line"/>
      <point x="381" y="14"/>
      <point x="329" y="-11"/>
      <point x="271" y="-11" type="curve" smooth="yes"/>
      <point x="133" y="-11"/>
      <point x="70" y="99"/>
      <point x="70" y="263" type="curve" smooth="yes"/>
      <point x="70" y="421"/>
      <point x="147" y="538"/>
      <point x="277" y="538" type="curve" smooth="yes"/>
      <point x="337" y="538"/>
      <point x="383" y="516"/>
      <point x="418" y="475" type="curve"/>
      <point x="418" y="597" type="line"/>
      <point x="247" y="597" type="line"/>
      <point x="247" y="665" type="line"/>
      <point x="418" y="665" type="line"/>
      <point x="418" y="749" type="line"/>
      <point x="502" y="739" type="line"/>
      <point x="502" y="665" type="line"/>
    </contour>
    <contour>
      <point x="418" y="140" type="curve"/>
      <point x="418" y="402" type="line"/>
      <point x="389" y="445"/>
      <point x="347" y="470"/>
      <point x="298" y="470" type="curve" smooth="yes"/>
      <point x="211" y="470"/>
      <point x="162" y="402"/>
      <point x="162" y="263" type="curve" smooth="yes"/>
      <point x="162" y="126"/>
      <point x="206" y="56"/>
      <point x="288" y="56" type="curve" smooth="yes"/>
      <point x="348" y="56"/>
      <point x="389" y="96"/>
    </contour>
  </outline>
</glyph>
<glyph name="emacron" format="2">
  <advance width="600"/>
  <unicode hex="0113"/>
  <outline>
    <contour>
      <point x="444" y="676" type="line"/>
      <point x="175" y="676" type="line"/>
      <point x="175" y="740" type="line"/>
      <point x="444" y="740" type="line"/>
    </contour>
    <contour>
      <point x="167" y="234" type="line"/>
      <point x="171" y="112"/>
      <point x="239" y="59"/>
      <point x="320" y="59" type="curve" smooth="yes"/>
      <point x="374" y="59"/>
      <point x="414" y="75"/>
      <point x="461" y="106" type="curve"/>
      <point x="500" y="50" type="line"/>
      <point x="451" y="12"/>
      <point x="385" y="-11"/>
      <point x="320" y="-11" type="curve" smooth="yes"/>
      <point x="166" y="-11"/>
      <point x="79" y="99"/>
      <point x="79" y="263" type="curve" smooth="yes"/>
      <point x="79" y="422"/>
      <point x="168" y="538"/>
      <point x="308" y="538" type="curve" smooth="yes"/>
      <point x="441" y="538"/>
      <point x="523" y="439"/>
      <point x="523" y="279" type="curve" smooth="yes"/>
      <point x="523" y="261"/>
      <point x="522" y="245"/>
      <point x="521" y="234" type="curve"/>
    </contour>
    <contour>
      <point x="309" y="469" type="curve" smooth="yes"/>
      <point x="231" y="469"/>
      <point x="174" y="414"/>
      <point x="167" y="298" type="curve"/>
      <point x="441" y="298" type="line"/>
      <point x="439" y="411"/>
      <point x="389" y="469"/>
    </contour>
  </outline>
</glyph>
<glyph name="Ebreve" format="2">
  <advance width="600"/>
  <unicode hex="0114"/>
  <outline>
    <contour>
      <point x="319" y="759" type="curve" smooth="yes"/>
      <point x="243" y="759"/>
      <point x="179" y="805"/>
      <point x="172" y="878" type="curve"/>
      <point x="229" y="891" type="line"/>
      <point x="244" y="851"/>
      <point x="272" y="824"/>
      <point x="319" y="824" type="curve" smooth="yes"/>
      <point x="366" y="824"/>
      <point x="398" y="851"/>
      <point x="412" y="891" type="curve"/>
      <point x="470" y="878" type="line"/>
      <point x="462" y="805"/>
      <point x="396" y="759"/>
    </contour>
    <contour>
      <point x="212" y="617" type="line"/>
      <point x="212" y="385" type="line"/>
      <point x="468" y="385" type="line"/>
      <point x="468" y="314" type="line"/>
      <point x="212" y="314" type="line"/>
      <point x="212" y="70" type="line"/>
      <point x="526" y="70" type="line"/>
      <point x="526" y="0" type="line"/>
      <point x="126" y="0" type="line"/>
      <point x="126" y="689" type="line"/>
      <point x="517" y="689" type="line"/>
      <point x="507" y="617" type="line"/>
    </contour>
  </outline>
</glyph>
<glyph name="Edotaccent" format="2">
  <advance width="600"/>
  <unicode hex="0116"/>
  <outline>
    <contour>
      <point x="320" y="892" type="curve" smooth="yes"/>
      <point x="357" y="892"/>
      <point x="381" y="867"/>
      <point x="381" y="833" type="curve" smooth="yes"/>
      <point x="381" y="799"/>
      <point x="357" y="774"/>
      <point x="320" y="774" type="curve" smooth="yes"/>
      <point x="284" y="774"/>
      <point x="260" y="799"/>
      <point x="260" y="833" type="curve" smooth="yes"/>
      <point x="260" y="867"/>
      <point x="284" y="892"/>
    </contour>
    <contour>
      <point x="212" y="617" type="line"/>
      <point x="212" y="385" type="line"/>
      <point x="468" y="385" type="line"/>
      <point x="468" y="314" type="line"/>
      <point x="212" y="314" type="line"/>
      <point x="212" y="70" type="line"/>
      <point x="526" y="70" type="line"/>
      <point x="526" y="0" type="line"/>
      <point x="126" y="0" type="line"/>
      <point x="126" y="689" type="line"/>
      <point x="517" y="689" type="line"/>
      <point x="507" y="617" type="line"/>
    </contour>
  </outline>
</glyph>
<glyph name="Eogonek" format="2">
  <advance width="600"/>
  <unicode hex="0118"/>
  <outline>
    <contour>
      <point x="212" y="70" type="line"/>
      <point x="526" y="70" type="line"/>
      <point x="526" y="0" type="line"/>
      <point x="468" y="0" type="line"/>
      <point x="365" y="-45"/>
      <point x="344" y="-79"/>
      <point x="344" y="-114" type="curve" smooth="yes"/>
      <point x="344" y="-144"/>
      <point x="358" y="-162"/>
      <point x="400" y="-162" type="curve" smooth="yes"/>
      <point x="421" y="-162"/>
      <point x="437" y="-160"/>
      <point x="461" y="-155" type="curve"/>
      <point x="453" y="-223" type="line"/>
      <point x="432" y="-226"/>
      <point x="416" y="-229"/>
      <point x="389" y="-229" type="curve" smooth="yes"/>
      <point x="313" y="-229"/>
      <point x="267" y="-187"/>
      <point x="267" y="-131" type="curve" smooth="yes"/>
      <point x="267" y="-78"/>
      <point x="300" y="-35"/>
      <point x="372" y="0" type="curve"/>
      <point x="126" y="0" type="line"/>
      <point x="126" y="689" type="line"/>
      <point x="517" y="689" type="line"/>
      <point x="507" y="617" type="line"/>
      <point x="212" y="617" type="line"/>
      <point x="212" y="385" type="line"/>
      <point x="468" y="385" type="line"/>
      <point x="468" y="314" type="line"/>
      <point x="212" y="314" type="line"/>
    </contour>
  </outline>
</glyph>
<glyph name="eogonek" format="2">
  <advance width="600"/>
  <unicode hex="0119"/>
  <outline>
    <contour>
      <point x="523" y="279" type="curve" smooth="yes"/>
      <point x="523" y="261"/>
      <point x="522" y="245"/>
      <point x="521" y="234" type="curve"/>
      <point x="167" y="234" type="line"/>
      <point x="171" y="112"/>
      <point x="239" y="59"/>
      <point x="320" y="59" type="curve" smooth="yes"/>
      <point x="374" y="59"/>
      <point x="414" y="75"/>
      <point x="461" y="106" type="curve"/>
      <point x="500" y="50" type="line"/>
      <point x="471" y="27"/>
      <point x="435" y="10"/>
      <point x="397" y="-1" type="curve"/>
      <point x="296" y="-45"/>
      <point x="275" y="-79"/>
      <point x="275" y="-114" type="curve" smooth="yes"/>
      <point x="275" y="-144"/>
      <point x="289" y="-162"/>
      <point x="331" y="-162" type="curve" smooth="yes"/>
      <point x="352" y="-162"/>
      <point x="368" y="-160"/>
      <point x="392" y="-155" type="curve"/>
      <point x="384" y="-223" type="line"/>
      <point x="363" y="-226"/>
      <point x="347" y="-229"/>
      <point x="320" y="-229" type="curve" smooth="yes"/>
      <point x="244" y="-229"/>
      <point x="198" y="-187"/>
      <point x="198" y="-131" type="curve" smooth="yes"/>
      <point x="198" y="-81"/>
      <point x="232" y="-38"/>
      <point x="300" y="-11" type="curve"/>
      <point x="158" y="-2"/>
      <point x="79" y="106"/>
      <point x="79" y="263" type="curve" smooth="yes"/>
      <point x="79" y="422"/>
      <point x="168" y="538"/>
      <point x="308" y="538" type="curve" smooth="yes"/>
      <point x="441" y="538"/>
      <point x="523" y="439"/>
    </contour>
    <contour>
      <point x="167" y="298" type="curve"/>
      <point x="441" y="298" type="line"/>
      <point x="439" y="411"/>
      <point x="389" y="469"/>
      <point x="309" y="469" type="curve" smooth="yes"/>
      <point x="231" y="469"/>
      <point x="174" y="414"/>
    </contour>
  </outline>
</glyph>
<glyph name="Ecaron" format="2">
  <advance width="600"/>
  <unicode hex="011A"/>
  <outline>
    <contour>
      <point x="447" y="905" type="line"/>
      <point x="484" y="862" type="line"/>
      <point x="350" y="754" type="line"/>
      <point x="293" y="754" type="line"/>
      <point x="158" y="862" type="line"/>
      <point x="196" y="905" type="line"/>
      <point x="321" y="824" type="line"/>
    </contour>
    <contour>
      <point x="212" y="617" type="line"/>
      <point x="212" y="385" type="line"/>
      <point x="468" y="385" type="line"/>
      <point x="468" y="314" type="line"/>
      <point x="212" y="314" type="line"/>
      <point x="212" y="70" type="line"/>
      <point x="526" y="70" type="line"/>
      <point x="526" y="0" type="line"/>
      <point x="126" y="0" type="line"/>
      <point x="126" y="689" type="line"/>
      <point x="517" y="689" type="line"/>
      <point x="507" y="617" type="line"/>
    </contour>
  </outline>
</glyph>
<glyph name="Gbreve" format="2">
  <advance width="600"/>
  <unicode hex="011E"/>
  <outline>
    <contour>
      <point x="328" y="759" type="curve" smooth="yes"/>
      <point x="252" y="759"/>
      <point x="188" y="805"/>
      <point x="181" y="878" type="curve"/>
      <point x="238" y="891" type="line"/>
      <point x="253" y="851"/>
      <point x="281" y="824"/>
      <point x="328" y="824" type="curve" smooth="yes"/>
      <point x="375" y="824"/>
      <point x="407" y="851"/>
      <point x="421" y="891" type="curve"/>
      <point x="479" y="878" type="line"/>
      <point x="471" y="805"/>
      <point x="405" y="759"/>
    </contour>
    <contour>
      <point x="314" y="-11" type="curve" smooth="yes"/>
      <point x="150" y="-11"/>
      <point x="45" y="107"/>
      <point x="45" y="345" type="curve" smooth="yes"/>
      <point x="45" y="582"/>
      <point x="185" y="700"/>
      <point x="334" y="700" type="curve" smooth="yes"/>
      <point x="424" y="700"/>
      <point x="476" y="674"/>
      <point x="530" y="624" type="curve"/>
      <point x="478" y="570" type="line"/>
      <point x="436" y="609"/>
      <point x="391" y="627"/>
      <point x="334" y="627" type="curve" smooth="yes"/>
      <point x="234" y="627"/>
      <point x="138" y="557"/>
      <point x="138" y="345" type="curve" smooth="yes"/>
      <point x="138" y="145"/>
      <point x="201" y="62"/>
      <point x="321" y="62" type="curve" smooth="yes"/>
      <point x="369" y="62"/>
      <point x="413" y="73"/>
      <point x="452" y="95" type="curve"/>
      <point x="452" y="304" type="line"/>
      <point x="317" y="304" type="line"/>
      <point x="307" y="377" type="line"/>
      <point x="539" y="377" type="line"/>
      <point x="539" y="49" type="line"/>
      <point x="477" y="14"/>
      <point x="411" y="-11"/>
    </contour>
  </outline>
</glyph>
<glyph name="Hcircumflex" format="2">
  <advance width="600"/>
  <unicode hex="0124"/>
  <outline>
    <contour>
      <point x="329" y="910" type="line"/>
      <point x="463" y="803" type="line"/>
      <point x="426" y="760" type="line"/>
      <point x="300" y="841" type="line"/>
      <point x="175" y="760" type="line"/>
      <point x="137" y="803" type="line"/>
      <point x="272" y="910" type="line"/>
    </contour>
    <contour>
      <point x="430" y="0" type="line"/>
      <point x="430" y="327" type="line"/>
      <point x="170" y="327" type="line"/>
      <point x="170" y="0" type="line"/>
      <point x="83" y="0" type="line"/>
      <point x="83" y="689" type="line"/>
      <point x="170" y="689" type="line"/>
      <point x="170" y="398" type="line"/>
      <point x="430" y="398" type="line"/>
      <point x="430" y="689" type="line"/>
      <point x="517" y="689" type="line"/>
      <point x="517" y="0" type="line"/>
    </contour>
  </outline>
</glyph>
<glyph name="hcircumflex" format="2">
  <advance width="600"/>
  <unicode hex="0125"/>
  <outline>
    <contour>
      <point x="329" y="960" type="line"/>
      <point x="463" y="853" type="line"/>
      <point x="426" y="810" type="line"/>
      <point x="300" y="891" type="line"/>
      <point x="175" y="810" type="line"/>
      <point x="137" y="853" type="line"/>
      <point x="272" y="960" type="line"/>
    </contour>
    <contour>
      <point x="184" y="747" type="line"/>
      <point x="184" y="454" type="line"/>
      <point x="226" y="509"/>
      <point x="290" y="538"/>
      <point x="353" y="538" type="curve" smooth="yes"/>
      <point x="456" y="538"/>
      <point x="501" y="480"/>
      <point x="501" y="382" type="curve" smooth="yes"/>
      <point x="501" y="0" type="line"/>
      <point x="417" y="0" type="line"/>
      <point x="417" y="381" type="line" smooth="yes"/>
      <point x="417" y="444"/>
      <point x="388" y="471"/>
      <point x="325" y="471" type="curve" smooth="yes"/>
      <point x="266" y="471"/>
      <point x="212" y="425"/>
      <point x="184" y="384" type="curve"/>
      <point x="184" y="0" type="line"/>
      <point x="100" y="0" type="line"/>
      <point x="100" y="738" type="line"/>
    </contour>
  </outline>
</glyph>
<glyph name="Hbar" format="2">
  <advance width="600"/>
  <unicode hex="0126"/>
  <outline>
    <contour>
      <point x="598" y="575" type="line"/>
      <point x="598" y="509" type="line"/>
      <point x="517" y="509" type="line"/>
      <point x="517" y="0" type="line"/>
      <point x="431" y="0" type="line"/>
      <point x="431" y="326" type="line"/>
      <point x="169" y="326" type="line"/>
      <point x="169" y="0" type="line"/>
      <point x="83" y="0" type="line"/>
      <point x="83" y="509" type="line"/>
      <point x="2" y="509" type="line"/>
      <point x="2" y="575" type="line"/>
      <point x="83" y="575" type="line"/>
      <point x="83" y="689" type="line"/>
      <point x="169" y="689" type="line"/>
      <point x="169" y="575" type="line"/>
      <point x="431" y="575" type="line"/>
      <point x="431" y="689" type="line"/>
      <point x="517" y="689" type="line"/>
      <point x="517" y="575" type="line"/>
    </contour>
    <contour>
      <point x="431" y="398" type="line"/>
      <point x="431" y="509" type="line"/>
      <point x="169" y="509" type="line"/>
      <point x="169" y="398" type="line"/>
    </contour>
  </outline>
</glyph>
<glyph name="hbar" format="2">
  <advance width="600"/>
  <unicode hex="0127"/>
  <outline>
    <contour>
      <point x="353" y="538" type="curve" smooth="yes"/>
      <point x="456" y="538"/>
      <point x="501" y="480"/>
      <point x="501" y="382" type="curve" smooth="yes"/>
      <point x="501" y="0" type="line"/>
      <point x="417" y="0" type="line"/>
      <point x="417" y="381" type="line" smooth="yes"/>
      <point x="417" y="444"/>
      <point x="388" y="471"/>
      <point x="325" y="471" type="curve" smooth="yes"/>
      <point x="266" y="471"/>
      <point x="212" y="425"/>
      <point x="184" y="384" type="curve"/>
      <point x="184" y="0" type="line"/>
      <point x="100" y="0" type="line"/>
      <point x="100" y="597" type="line"/>
      <point x="19" y="597" type="line"/>
      <point x="19" y="665" type="line"/>
      <point x="100" y="665" type="line"/>
      <point x="100" y="738" type="line"/>
      <point x="184" y="747" type="line"/>
      <point x="184" y="665" type="line"/>
      <point x="353" y="665" type="line"/>
      <point x="353" y="597" type="line"/>
      <point x="184" y="597" type="line"/>
      <point x="184" y="454" type="line"/>
      <point x="226" y="509"/>
      <point x="290" y="538"/>
    </contour>
  </outline>
</glyph>
<glyph name="itilde" format="2">
  <advance width="600"/>
  <unicode hex="0129"/>
  <outline>
    <contour>
      <point x="359" y="659" type="curve" smooth="yes"/>
      <point x="307" y="659"/>
      <point x="279" y="707"/>
      <point x="243" y="707" type="curve" smooth="yes"/>
      <point x="220" y="707"/>
      <point x="206" y="691"/>
      <point x="190" y="661" type="curve"/>
      <point x="137" y="687" type="line"/>
      <point x="160" y="735"/>
      <point x="195" y="772"/>
      <point x="243" y="772" type="curve" smooth="yes"/>
      <point x="299" y="772"/>
      <point x="322" y="723"/>
      <point x="359" y="723" type="curve" smooth="yes"/>
      <point x="379" y="723"/>
      <point x="394" y="737"/>
      <point x="412" y="768" type="curve"/>
      <point x="466" y="741" type="line"/>
      <point x="440" y="685"/>
      <point x="402" y="659"/>
    </contour>
    <contour>
      <point x="367" y="527" type="line"/>
      <point x="367" y="67" type="line"/>
      <point x="515" y="67" type="line"/>
      <point x="515" y="0" type="line"/>
      <point x="121" y="0" type="line"/>
      <point x="121" y="67" type="line"/>
      <point x="283" y="67" type="line"/>
      <point x="283" y="460" type="line"/>
      <point x="126" y="460" type="line"/>
      <point x="126" y="527" type="line"/>
    </contour>
  </outline>
</glyph>
<glyph name="imacron" format="2">
  <advance width="600"/>
  <unicode hex="012B"/>
  <outline>
    <contour>
      <point x="435" y="676" type="line"/>
      <point x="166" y="676" type="line"/>
      <point x="166" y="740" type="line"/>
      <point x="435" y="740" type="line"/>
    </contour>
    <contour>
      <point x="367" y="527" type="line"/>
      <point x="367" y="67" type="line"/>
      <point x="515" y="67" type="line"/>
      <point x="515" y="0" type="line"/>
      <point x="121" y="0" type="line"/>
      <point x="121" y="67" type="line"/>
      <point x="283" y="67" type="line"/>
      <point x="283" y="460" type="line"/>
      <point x="126" y="460" type="line"/>
      <point x="126" y="527" type="line"/>
    </contour>
  </outline>
</glyph>
<glyph name="ibreve" format="2">
  <advance width="600"/>
  <unicode hex="012D"/>
  <outline>
    <contour>
      <point x="299" y="630" type="curve" smooth="yes"/>
      <point x="208" y="630"/>
      <point x="159" y="705"/>
      <point x="151" y="766" type="curve"/>
      <point x="209" y="779" type="line"/>
      <point x="224" y="728"/>
      <point x="252" y="694"/>
      <point x="299" y="694" type="curve" smooth="yes"/>
      <point x="347" y="694"/>
      <point x="377" y="728"/>
      <point x="392" y="779" type="curve"/>
      <point x="449" y="766" type="line"/>
      <point x="441" y="705"/>
      <point x="391" y="630"/>
    </contour>
    <contour>
      <point x="367" y="527" type="line"/>
      <point x="367" y="67" type="line"/>
      <point x="515" y="67" type="line"/>
      <point x="515" y="0" type="line"/>
      <point x="121" y="0" type="line"/>
      <point x="121" y="67" type="line"/>
      <point x="283" y="67" type="line"/>
      <point x="283" y="460" type="line"/>
      <point x="126" y="460" type="line"/>
      <point x="126" y="527" type="line"/>
    </contour>
  </outline>
</glyph>
<glyph name="Iogonek" format="2">
  <advance width="600"/>
  <unicode hex="012E"/>
  <outline>
    <contour>
      <point x="497" y="619" type="line"/>
      <point x="344" y="619" type="line"/>
      <point x="344" y="69" type="line"/>
      <point x="497" y="69" type="line"/>
      <point x="497" y="0" type="line"/>
      <point x="344" y="0" type="line"/>
      <point x="241" y="-45"/>
      <point x="220" y="-79"/>
      <point x="220" y="-114" type="curve" smooth="yes"/>
      <point x="220" y="-144"/>
      <point x="234" y="-162"/>
      <point x="276" y="-162" type="curve" smooth="yes"/>
      <point x="297" y="-162"/>
      <point x="313" y="-160"/>
      <point x="337" y="-155" type="curve"/>
      <point x="329" y="-223" type="line"/>
      <point x="308" y="-226"/>
      <point x="292" y="-229"/>
      <point x="265" y="-229" type="curve" smooth="yes"/>
      <point x="189" y="-229"/>
      <point x="143" y="-187"/>
      <point x="143" y="-131" type="curve" smooth="yes"/>
      <point x="143" y="-78"/>
      <point x="176" y="-35"/>
      <point x="248" y="0" type="curve"/>
      <point x="103" y="0" type="line"/>
      <point x="103" y="69" type="line"/>
      <point x="256" y="69" type="line"/>
      <point x="256" y="619" type="line"/>
      <point x="103" y="619" type="line"/>
      <point x="103" y="689" type="line"/>
      <point x="497" y="689" type="line"/>
    </contour>
  </outline>
</glyph>
<glyph name="iogonek" format="2">
  <advance width="600"/>
  <unicode hex="012F"/>
  <outline>
    <contour>
      <point x="300" y="655" type="curve" smooth="yes"/>
      <point x="264" y="655"/>
      <point x="240" y="680"/>
      <point x="240" y="714" type="curve" smooth="yes"/>
      <point x="240" y="748"/>
      <point x="264" y="773"/>
      <point x="300" y="773" type="curve" smooth="yes"/>
      <point x="337" y="773"/>
      <point x="361" y="748"/>
      <point x="361" y="714" type="curve" smooth="yes"/>
      <point x="361" y="680"/>
      <point x="337" y="655"/>
    </contour>
    <contour>
      <point x="367" y="67" type="line"/>
      <point x="515" y="67" type="line"/>
      <point x="515" y="0" type="line"/>
      <point x="367" y="0" type="line"/>
      <point x="264" y="-45"/>
      <point x="243" y="-79"/>
      <point x="243" y="-114" type="curve" smooth="yes"/>
      <point x="243" y="-144"/>
      <point x="257" y="-162"/>
      <point x="299" y="-162" type="curve" smooth="yes"/>
      <point x="320" y="-162"/>
      <point x="336" y="-160"/>
      <point x="360" y="-155" type="curve"/>
      <point x="352" y="-223" type="line"/>
      <point x="331" y="-226"/>
      <point x="315" y="-229"/>
      <point x="288" y="-229" type="curve" smooth="yes"/>
      <point x="212" y="-229"/>
      <point x="166" y="-187"/>
      <point x="166" y="-131" type="curve" smooth="yes"/>
      <point x="166" y="-78"/>
      <point x="199" y="-35"/>
      <point x="271" y="0" type="curve"/>
      <point x="121" y="0" type="line"/>
      <point x="121" y="67" type="line"/>
      <point x="283" y="67" type="line"/>
      <point x="283" y="460" type="line"/>
      <point x="126" y="460" type="line"/>
      <point x="126" y="527" type="line"/>
      <point x="367" y="527" type="line"/>
    </contour>
  </outline>
</glyph>
<glyph name="Idotaccent" format="2">
  <advance width="600"/>
  <unicode hex="0130"/>
  <outline>
    <contour>
      <point x="299" y="892" type="curve" smooth="yes"/>
      <point x="336" y="892"/>
      <point x="360" y="867"/>
      <point x="360" y="833" type="curve" smooth="yes"/>
      <point x="360" y="799"/>
      <point x="336" y="774"/>
      <point x="299" y="774" type="curve" smooth="yes"/>
      <point x="263" y="774"/>
      <point x="239" y="799"/>
      <point x="239" y="833" type="curve" smooth="yes"/>
      <point x="239" y="867"/>
      <point x="263" y="892"/>
    </contour>
    <contour>
      <point x="497" y="689" type="line"/>
      <point x="497" y="619" type="line"/>
      <point x="344" y="619" type="line"/>
      <point x="344" y="69" type="line"/>
      <point x="497" y="69" type="line"/>
      <point x="497" y="0" type="line"/>
      <point x="103" y="0" type="line"/>
      <point x="103" y="69" type="line"/>
      <point x="256" y="69" type="line"/>
      <point x="256" y="619" type="line"/>
      <point x="103" y="619" type="line"/>
      <point x="103" y="689" type="line"/>
    </contour>
  </outline>
</glyph>
<glyph name="dotlessi" format="2">
  <advance width="600"/>
  <unicode hex="0131"/>
  <outline>
    <contour>
      <point x="367" y="527" type="line"/>
      <point x="367" y="67" type="line"/>
      <point x="515" y="67" type="line"/>
      <point x="515" y="0" type="line"/>
      <point x="121" y="0" type="line"/>
      <point x="121" y="67" type="line"/>
      <point x="283" y="67" type="line"/>
      <point x="283" y="460" type="line"/>
      <point x="126" y="460" type="line"/>
      <point x="126" y="527" type="line"/>
    </contour>
  </outline>
</glyph>
<glyph name="IJ" format="2">
  <advance width="600"/>
  <unicode hex="0132"/>
  <outline>
    <contour>
      <point x="194" y="-71" type="line"/>
      <point x="398" y="-51"/>
      <point x="445" y="45"/>
      <point x="445" y="193" type="curve" smooth="yes"/>
      <point x="445" y="617" type="line"/>
      <point x="201" y="617" type="line"/>
      <point x="201" y="72" type="line"/>
      <point x="281" y="72" type="line"/>
      <point x="281" y="0" type="line"/>
      <point x="11" y="0" type="line"/>
      <point x="11" y="72" type="line"/>
      <point x="111" y="72" type="line"/>
      <point x="111" y="617" type="line"/>
      <point x="11" y="617" type="line"/>
      <point x="11" y="689" type="line"/>
      <point x="532" y="689" type="line"/>
      <point x="532" y="188" type="line" smooth="yes"/>
      <point x="532" y="32"/>
      <point x="471" y="-112"/>
      <point x="204" y="-136" type="curve"/>
    </contour>
  </outline>
</glyph>
<glyph name="ij" format="2">
  <advance width="600"/>
  <unicode hex="0133"/>
  <outline>
    <contour>
      <point x="184" y="773" type="curve" smooth="yes"/>
      <point x="220" y="773"/>
      <point x="246" y="748"/>
      <point x="246" y="714" type="curve" smooth="yes"/>
      <point x="246" y="680"/>
      <point x="220" y="655"/>
      <point x="184" y="655" type="curve" smooth="yes"/>
      <point x="148" y="655"/>
      <point x="124" y="680"/>
      <point x="124" y="714" type="curve" smooth="yes"/>
      <point x="124" y="748"/>
      <point x="148" y="773"/>
    </contour>
    <contour>
      <point x="448" y="773" type="curve" smooth="yes"/>
      <point x="484" y="773"/>
      <point x="510" y="748"/>
      <point x="510" y="714" type="curve" smooth="yes"/>
      <point x="510" y="680"/>
      <point x="484" y="655"/>
      <point x="448" y="655" type="curve" smooth="yes"/>
      <point x="412" y="655"/>
      <point x="388" y="680"/>
      <point x="388" y="714" type="curve" smooth="yes"/>
      <point x="388" y="748"/>
      <point x="412" y="773"/>
    </contour>
    <contour>
      <point x="500" y="527" type="line"/>
      <point x="500" y="55" type="line" smooth="yes"/>
      <point x="500" y="-90"/>
      <point x="386" y="-166"/>
      <point x="245" y="-212" type="curve"/>
      <point x="220" y="-146" type="line"/>
      <point x="315" y="-110"/>
      <point x="418" y="-61"/>
      <point x="418" y="50" type="curve" smooth="yes"/>
      <point x="418" y="462" type="line"/>
      <point x="223" y="462" type="line"/>
      <point x="223" y="67" type="line"/>
      <point x="319" y="67" type="line"/>
      <point x="319" y="0" type="line"/>
      <point x="48" y="0" type="line"/>
      <point x="48" y="67" type="line"/>
      <point x="142" y="67" type="line"/>
      <point x="142" y="462" type="line"/>
      <point x="53" y="462" type="line"/>
      <point x="53" y="527" type="line"/>
    </contour>
  </outline>
</glyph>
<glyph name="jcircumflex" format="2">
  <advance width="600"/>
  <unicode hex="0135"/>
  <outline>
    <contour>
      <point x="245" y="629" type="line"/>
      <point x="205" y="670" type="line"/>
      <point x="340" y="789" type="line"/>
      <point x="397" y="789" type="line"/>
      <point x="531" y="670" type="line"/>
      <point x="493" y="629" type="line"/>
      <point x="369" y="720" type="line"/>
    </contour>
    <contour>
      <point x="445" y="527" type="line"/>
      <point x="445" y="84" type="line" smooth="yes"/>
      <point x="445" y="-92"/>
      <point x="322" y="-176"/>
      <point x="110" y="-212" type="curve"/>
      <point x="96" y="-147" type="line"/>
      <point x="251" y="-121"/>
      <point x="361" y="-63"/>
      <point x="361" y="79" type="curve" smooth="yes"/>
      <point x="361" y="460" type="line"/>
      <point x="142" y="460" type="line"/>
      <point x="142" y="527" type="line"/>
    </contour>
  </outline>
</glyph>
<glyph name="Kcommaaccent" format="2">
  <advance width="600"/>
  <unicode hex="0136"/>
  <outline>
    <contour>
      <point x="192" y="0" type="line"/>
      <point x="105" y="0" type="line"/>
      <point x="105" y="689" type="line"/>
      <point x="192" y="689" type="line"/>
    </contour>
    <contour>
      <point x="197" y="368" type="line"/>
      <point x="467" y="689" type="line"/>
      <point x="568" y="689" type="line"/>
      <point x="299" y="373" type="line"/>
      <point x="587" y="0" type="line"/>
      <point x="478" y="0" type="line"/>
    </contour>
    <contour>
      <point x="325" y="-71" type="curve" smooth="yes"/>
      <point x="356" y="-71"/>
      <point x="380" y="-94"/>
      <point x="380" y="-124" type="curve" smooth="yes"/>
      <point x="380" y="-141"/>
      <point x="375" y="-156"/>
      <point x="365" y="-179" type="curve" smooth="yes"/>
      <point x="314" y="-286" type="line"/>
      <point x="264" y="-286" type="line"/>
      <point x="293" y="-169" type="line"/>
      <point x="279" y="-158"/>
      <point x="271" y="-142"/>
      <point x="271" y="-124" type="curve" smooth="yes"/>
      <point x="271" y="-93"/>
      <point x="295" y="-71"/>
    </contour>
  </outline>
</glyph>
<glyph name="kcommaaccent" format="2">
  <advance width="600"/>
  <unicode hex="0137"/>
  <outline>
    <contour>
      <point x="190" y="749" type="line"/>
      <point x="190" y="0" type="line"/>
      <point x="106" y="0" type="line"/>
      <point x="106" y="739" type="line"/>
    </contour>
    <contour>
      <point x="541" y="527" type="line"/>
      <point x="305" y="289" type="line"/>
      <point x="569" y="0" type="line"/>
      <point x="458" y="0" type="line"/>
      <point x="199" y="288" type="line"/>
      <point x="433" y="527" type="line"/>
    </contour>
    <contour>
      <point x="309" y="-71" type="curve" smooth="yes"/>
      <point x="340" y="-71"/>
      <point x="364" y="-94"/>
      <point x="364" y="-124" type="curve" smooth="yes"/>
      <point x="364" y="-141"/>
      <point x="359" y="-156"/>
      <point x="349" y="-179" type="curve" smooth="yes"/>
      <point x="298" y="-286" type="line"/>
      <point x="248" y="-286" type="line"/>
      <point x="277" y="-169" type="line"/>
      <point x="263" y="-158"/>
      <point x="255" y="-142"/>
      <point x="255" y="-124" type="curve" smooth="yes"/>
      <point x="255" y="-93"/>
      <point x="279" y="-71"/>
    </contour>
  </outline>
</glyph>
<glyph name="kgreenlandic" format="2">
  <advance width="600"/>
  <unicode hex="0138"/>
  <outline>
    <contour>
      <point x="184" y="527" type="line"/>
      <point x="184" y="0" type="line"/>
      <point x="100" y="0" type="line"/>
      <point x="100" y="527" type="line"/>
    </contour>
    <contour>
      <point x="536" y="527" type="line"/>
      <point x="297" y="288" type="line"/>
      <point x="563" y="0" type="line"/>
      <point x="453" y="0" type="line"/>
      <point x="194" y="283" type="line"/>
      <point x="427" y="527" type="line"/>
    </contour>
  </outline>
</glyph>
<glyph name="Lcommaaccent" format="2">
  <advance width="600"/>
  <unicode hex="013B"/>
  <outline>
    <contour>
      <point x="136" y="0" type="line"/>
      <point x="136" y="689" type="line"/>
      <point x="222" y="689" type="line"/>
      <point x="222" y="77" type="line"/>
      <point x="537" y="77" type="line"/>
      <point x="526" y="0" type="line"/>
    </contour>
    <contour>
      <point x="335" y="-71" type="curve" smooth="yes"/>
      <point x="366" y="-71"/>
      <point x="390" y="-94"/>
      <point x="390" y="-124" type="curve" smooth="yes"/>
      <point x="390" y="-141"/>
      <point x="385" y="-156"/>
      <point x="375" y="-179" type="curve" smooth="yes"/>
      <point x="324" y="-286" type="line"/>
      <point x="274" y="-286" type="line"/>
      <point x="303" y="-169" type="line"/>
      <point x="289" y="-158"/>
      <point x="281" y="-142"/>
      <point x="281" y="-124" type="curve" smooth="yes"/>
      <point x="281" y="-93"/>
      <point x="305" y="-71"/>
    </contour>
  </outline>
</glyph>
<glyph name="lcommaaccent" format="2">
  <advance width="600"/>
  <unicode hex="013C"/>
  <outline>
    <contour>
      <point x="306" y="739" type="line"/>
      <point x="306" y="130" type="line" smooth="yes"/>
      <point x="306" y="78"/>
      <point x="342" y="59"/>
      <point x="393" y="59" type="curve" smooth="yes"/>
      <point x="424" y="59"/>
      <point x="452" y="66"/>
      <point x="481" y="77" type="curve"/>
      <point x="503" y="16" type="line"/>
      <point x="475" y="1"/>
      <point x="432" y="-11"/>
      <point x="378" y="-11" type="curve" smooth="yes"/>
      <point x="285" y="-11"/>
      <point x="222" y="43"/>
      <point x="222" y="134" type="curve" smooth="yes"/>
      <point x="222" y="672" type="line"/>
      <point x="60" y="672" type="line"/>
      <point x="60" y="739" type="line"/>
    </contour>
    <contour>
      <point x="364" y="-71" type="curve" smooth="yes"/>
      <point x="395" y="-71"/>
      <point x="419" y="-94"/>
      <point x="419" y="-124" type="curve" smooth="yes"/>
      <point x="419" y="-141"/>
      <point x="414" y="-156"/>
      <point x="404" y="-179" type="curve" smooth="yes"/>
      <point x="353" y="-286" type="line"/>
      <point x="303" y="-286" type="line"/>
      <point x="332" y="-169" type="line"/>
      <point x="318" y="-158"/>
      <point x="310" y="-142"/>
      <point x="310" y="-124" type="curve" smooth="yes"/>
      <point x="310" y="-93"/>
      <point x="334" y="-71"/>
    </contour>
  </outline>
</glyph>
<glyph name="Lcaron" format="2">
  <advance width="600"/>
  <unicode hex="013D"/>
  <outline>
    <contour>
      <point x="308" y="698" type="line"/>
      <point x="384" y="688" type="line"/>
      <point x="331" y="510" type="line"/>
      <point x="283" y="517" type="line"/>
    </contour>
    <contour>
      <point x="136" y="0" type="line"/>
      <point x="136" y="689" type="line"/>
      <point x="222" y="689" type="line"/>
      <point x="222" y="77" type="line"/>
      <point x="537" y="77" type="line"/>
      <point x="526" y="0" type="line"/>
    </contour>
  </outline>
</glyph>
<glyph name="Ldot" format="2">
  <advance width="600"/>
  <unicode hex="013F"/>
  <outline>
    <contour>
      <point x="136" y="0" type="line"/>
      <point x="136" y="689" type="line"/>
      <point x="222" y="689" type="line"/>
      <point x="222" y="77" type="line"/>
      <point x="537" y="77" type="line"/>
      <point x="526" y="0" type="line"/>
    </contour>
    <contour>
      <point x="472" y="437" type="curve" smooth="yes"/>
      <point x="509" y="437"/>
      <point x="533" y="412"/>
      <point x="533" y="378" type="curve" smooth="yes"/>
      <point x="533" y="344"/>
      <point x="509" y="319"/>
      <point x="472" y="319" type="curve" smooth="yes"/>
      <point x="436" y="319"/>
      <point x="412" y="344"/>
      <point x="412" y="378" type="curve" smooth="yes"/>
      <point x="412" y="412"/>
      <point x="436" y="437"/>
    </contour>
  </outline>
</glyph>
<glyph name="Lslash" format="2">
  <advance width="600"/>
  <unicode hex="0141"/>
  <outline>
    <contour>
      <point x="220" y="77" type="line"/>
      <point x="535" y="77" type="line"/>
      <point x="525" y="0" type="line"/>
      <point x="134" y="0" type="line"/>
      <point x="134" y="268" type="line"/>
      <point x="77" y="232" type="line"/>
      <point x="40" y="289" type="line"/>
      <point x="134" y="346" type="line"/>
      <point x="134" y="689" type="line"/>
      <point x="220" y="689" type="line"/>
      <point x="220" y="399" type="line"/>
      <point x="385" y="502" type="line"/>
      <point x="422" y="446" type="line"/>
      <point x="220" y="321" type="line"/>
    </contour>
  </outline>
</glyph>
<glyph name="Nacute" format="2">
  <advance width="600"/>
  <unicode hex="0143"/>
  <outline>
    <contour>
      <point x="382" y="906" type="line"/>
      <point x="419" y="834" type="line"/>
      <point x="206" y="755" type="line"/>
      <point x="184" y="801" type="line"/>
    </contour>
    <contour>
      <point x="395" y="0" type="line"/>
      <point x="152" y="605" type="line"/>
      <point x="154" y="575"/>
      <point x="164" y="451"/>
      <point x="164" y="345" type="curve" smooth="yes"/>
      <point x="164" y="0" type="line"/>
      <point x="83" y="0" type="line"/>
      <point x="83" y="689" type="line"/>
      <point x="201" y="689" type="line"/>
      <point x="448" y="81" type="line"/>
      <point x="447" y="109"/>
      <point x="436" y="220"/>
      <point x="436" y="344" type="curve" smooth="yes"/>
      <point x="436" y="689" type="line"/>
      <point x="517" y="689" type="line"/>
      <point x="517" y="0" type="line"/>
    </contour>
  </outline>
</glyph>
<glyph name="Ncommaaccent" format="2">
  <advance width="600"/>
  <unicode hex="0145"/>
  <outline>
    <contour>
      <point x="395" y="0" type="line"/>
      <point x="152" y="605" type="line"/>
      <point x="154" y="575"/>
      <point x="164" y="451"/>
      <point x="164" y="345" type="curve" smooth="yes"/>
      <point x="164" y="0" type="line"/>
      <point x="83" y="0" type="line"/>
      <point x="83" y="689" type="line"/>
      <point x="201" y="689" type="line"/>
      <point x="448" y="81" type="line"/>
      <point x="447" y="109"/>
      <point x="436" y="220"/>
      <point x="436" y="344" type="curve" smooth="yes"/>
      <point x="436" y="689" type="line"/>
      <point x="517" y="689" type="line"/>
      <point x="517" y="0" type="line"/>
    </contour>
    <contour>
      <point x="303" y="-71" type="curve" smooth="yes"/>
      <point x="334" y="-71"/>
      <point x="358" y="-94"/>
      <point x="358" y="-124" type="curve" smooth="yes"/>
      <point x="358" y="-141"/>
      <point x="353" y="-156"/>
      <point x="343" y="-179" type="curve" smooth="yes"/>
      <point x="292" y="-286" type="line"/>
      <point x="242" y="-286" type="line"/>
      <point x="271" y="-169" type="line"/>
      <point x="257" y="-158"/>
      <point x="249" y="-142"/>
      <point x="249" y="-124" type="curve" smooth="yes"/>
      <point x="249" y="-93"/>
      <point x="273" y="-71"/>
    </contour>
  </outline>
</glyph>
<glyph name="ncommaaccent" format="2">
  <advance width="600"/>
  <unicode hex="0146"/>
  <outline>
    <contour>
      <point x="100" y="0" type="line"/>
      <point x="100" y="527" type="line"/>
      <point x="172" y="527" type="line"/>
      <point x="179" y="453" type="line"/>
      <point x="221" y="507"/>
      <point x="291" y="538"/>
      <point x="353" y="538" type="curve" smooth="yes"/>
      <point x="456" y="538"/>
      <point x="501" y="480"/>
      <point x="501" y="382" type="curve" smooth="yes"/>
      <point x="501" y="0" type="line"/>
      <point x="417" y="0" type="line"/>
      <point x="417" y="320" type="line" smooth="yes"/>
      <point x="417" y="428"/>
      <point x="406" y="471"/>
      <point x="327" y="471" type="curve" smooth="yes"/>
      <point x="265" y="471"/>
      <point x="212" y="425"/>
      <point x="184" y="383" type="curve"/>
      <point x="184" y="0" type="line"/>
    </contour>
    <contour>
      <point x="304" y="-71" type="curve" smooth="yes"/>
      <point x="335" y="-71"/>
      <point x="359" y="-94"/>
      <point x="359" y="-124" type="curve" smooth="yes"/>
      <point x="359" y="-141"/>
      <point x="354" y="-156"/>
      <point x="344" y="-179" type="curve" smooth="yes"/>
      <point x="293" y="-286" type="line"/>
      <point x="243" y="-286" type="line"/>
      <point x="272" y="-169" type="line"/>
      <point x="258" y="-158"/>
      <point x="250" y="-142"/>
      <point x="250" y="-124" type="curve" smooth="yes"/>
      <point x="250" y="-93"/>
      <point x="274" y="-71"/>
    </contour>
  </outline>
</glyph>
<glyph name="napostrophe" format="2">
  <advance width="600"/>
  <unicode hex="0149"/>
  <outline>
    <contour>
      <point x="63" y="752" type="curve" smooth="yes"/>
      <point x="94" y="752"/>
      <point x="118" y="729"/>
      <point x="118" y="698" type="curve" smooth="yes"/>
      <point x="118" y="682"/>
      <point x="113" y="666"/>
      <point x="92" y="621" type="curve" smooth="yes"/>
      <point x="51" y="534" type="line"/>
      <point x="1" y="534" type="line"/>
      <point x="31" y="653" type="line"/>
      <point x="17" y="665"/>
      <point x="8" y="680"/>
      <point x="8" y="698" type="curve" smooth="yes"/>
      <point x="8" y="729"/>
      <point x="33" y="752"/>
    </contour>
    <contour>
      <point x="109" y="0" type="line"/>
      <point x="109" y="527" type="line"/>
      <point x="181" y="527" type="line"/>
      <point x="187" y="453" type="line"/>
      <point x="230" y="507"/>
      <point x="300" y="538"/>
      <point x="361" y="538" type="curve" smooth="yes"/>
      <point x="465" y="538"/>
      <point x="510" y="480"/>
      <point x="510" y="382" type="curve" smooth="yes"/>
      <point x="510" y="0" type="line"/>
      <point x="426" y="0" type="line"/>
      <point x="426" y="320" type="line" smooth="yes"/>
      <point x="426" y="428"/>
      <point x="415" y="471"/>
      <point x="335" y="471" type="curve" smooth="yes"/>
      <point x="273" y="471"/>
      <point x="221" y="425"/>
      <point x="193" y="383" type="curve"/>
      <point x="193" y="0" type="line"/>
    </contour>
  </outline>
</glyph>
<glyph name="Eng" format="2">
  <advance width="600"/>
  <unicode hex="014A"/>
  <outline>
    <contour>
      <point x="517" y="-62" type="line" smooth="yes"/>
      <point x="517" y="-162"/>
      <point x="460" y="-212"/>
      <point x="372" y="-212" type="curve" smooth="yes"/>
      <point x="320" y="-212"/>
      <point x="283" y="-193"/>
      <point x="259" y="-175" type="curve"/>
      <point x="293" y="-118" type="line"/>
      <point x="316" y="-133"/>
      <point x="334" y="-142"/>
      <point x="368" y="-142" type="curve" smooth="yes"/>
      <point x="408" y="-142"/>
      <point x="430" y="-118"/>
      <point x="430" y="-67" type="curve" smooth="yes"/>
      <point x="430" y="0" type="line"/>
      <point x="395" y="0" type="line"/>
      <point x="152" y="605" type="line"/>
      <point x="154" y="575"/>
      <point x="164" y="451"/>
      <point x="164" y="345" type="curve" smooth="yes"/>
      <point x="164" y="0" type="line"/>
      <point x="83" y="0" type="line"/>
      <point x="83" y="689" type="line"/>
      <point x="201" y="689" type="line"/>
      <point x="448" y="81" type="line"/>
      <point x="447" y="109"/>
      <point x="436" y="220"/>
      <point x="436" y="344" type="curve" smooth="yes"/>
      <point x="436" y="689" type="line"/>
      <point x="517" y="689" type="line"/>
    </contour>
  </outline>
</glyph>
<glyph name="eng" format="2">
  <advance width="600"/>
  <unicode hex="014B"/>
  <outline>
    <contour>
      <point x="501" y="29" type="line" smooth="yes"/>
      <point x="501" y="-121"/>
      <point x="449" y="-164"/>
      <point x="346" y="-211" type="curve"/>
      <point x="315" y="-150" type="line"/>
      <point x="384" y="-117"/>
      <point x="417" y="-92"/>
      <point x="417" y="23" type="curve" smooth="yes"/>
      <point x="417" y="320" type="line" smooth="yes"/>
      <point x="417" y="428"/>
      <point x="407" y="471"/>
      <point x="325" y="471" type="curve" smooth="yes"/>
      <point x="266" y="471"/>
      <point x="212" y="425"/>
      <point x="184" y="384" type="curve"/>
      <point x="184" y="0" type="line"/>
      <point x="100" y="0" type="line"/>
      <point x="100" y="527" type="line"/>
      <point x="172" y="527" type="line"/>
      <point x="179" y="453" type="line"/>
      <point x="221" y="507"/>
      <point x="291" y="538"/>
      <point x="353" y="538" type="curve" smooth="yes"/>
      <point x="456" y="538"/>
      <point x="501" y="480"/>
      <point x="501" y="382" type="curve" smooth="yes"/>
    </contour>
  </outline>
</glyph>
